<svg width="64" height="64" viewBox="0 0 64 64" fill="none" xmlns="http://www.w3.org/2000/svg">
<path fill-rule="evenodd" clip-rule="evenodd" d="M52 16.6666C53.1046 16.6666 54 17.5621 54 18.6666C54 24.6518 51.4614 28.5856 48.1686 30.9564C44.9778 33.2537 41.2089 34 38.6667 34L16.8284 34L26.7475 43.9191C27.5286 44.7001 27.5286 45.9665 26.7475 46.7475C25.9665 47.5286 24.7002 47.5286 23.9191 46.7475L10.5858 33.4142C9.80474 32.6331 9.80474 31.3668 10.5858 30.5857L23.9191 17.2524C24.7002 16.4714 25.9665 16.4714 26.7475 17.2524C27.5286 18.0335 27.5286 19.2998 26.7475 20.0808L16.8284 30L38.6667 30C40.5688 30 43.4666 29.4129 45.8314 27.7102C48.0942 26.081 50 23.3481 50 18.6666C50 17.5621 50.8954 16.6666 52 16.6666Z" fill="#1C274C"/>
</svg>
