<svg width="97" height="96" viewBox="0 0 97 96" fill="none" xmlns="http://www.w3.org/2000/svg">
<path fill-rule="evenodd" clip-rule="evenodd" d="M78.5 25C80.1569 25 81.5 26.3431 81.5 28C81.5 36.9778 77.6921 42.8784 72.7529 46.4346C67.9667 49.8807 62.3134 51 58.5 51L25.7426 51L40.6213 65.8787C41.7929 67.0503 41.7929 68.9498 40.6213 70.1213C39.4497 71.2929 37.5503 71.2929 36.3787 70.1213L16.3787 50.1213C15.2071 48.9498 15.2071 47.0503 16.3787 45.8787L36.3787 25.8787C37.5503 24.7071 39.4497 24.7071 40.6213 25.8787C41.7929 27.0503 41.7929 28.9498 40.6213 30.1213L25.7426 45L58.5 45C61.3533 45 65.6999 44.1193 69.2471 41.5654C72.6413 39.1216 75.5 35.0222 75.5 28C75.5 26.3431 76.8431 25 78.5 25Z" fill="#3D4734"/>
</svg>
