<svg width="396" height="501" viewBox="0 0 396 501" fill="none" xmlns="http://www.w3.org/2000/svg">
<path d="M25.5209 130.702C30.9378 124.402 38.337 118.857 46.5778 115.331C53.5974 112.325 61.2262 110.786 68.7599 111.49C69.6123 111.57 70.4627 111.679 71.311 111.818C72.2234 111.963 73.1353 112.147 74.0433 112.37C75.31 112.674 76.5697 113.052 77.8195 113.505C81.7092 114.907 85.4908 117.034 89.0562 119.995C89.1992 120.111 89.3428 120.227 89.4827 120.347C90.4616 121.183 91.4241 122.08 92.3679 123.044C94.2718 124.99 95.8653 126.891 97.1665 128.742C97.4657 129.177 97.7562 129.608 98.0314 130.035C103.117 137.983 102.854 145.018 99.2945 151.159C98.0541 148.169 96.8047 145.164 95.5564 142.141L95.0936 141.02L94.2848 140.118C90.0512 135.396 83.59 132.543 77.0496 131.212C70.3447 129.848 62.7187 129.898 55.3596 131.761L55.3574 131.76L54.4491 132C50.2113 133.165 46.0227 134.955 42.1484 137.486L41.3226 138.039C32.5558 144.078 25.8498 153.832 23.9301 167.844L23.6315 170.028L24.7005 172.022L24.704 172.028C24.7062 172.032 24.7098 172.039 24.7141 172.047C24.7234 172.064 24.737 172.091 24.7558 172.126C24.794 172.198 24.8526 172.307 24.9294 172.451C25.0837 172.74 25.3148 173.175 25.6201 173.75C25.7155 173.93 25.8168 174.124 25.9267 174.332C22.7356 171.937 20.3191 168.601 18.7033 164.342C18.1422 162.863 17.6802 161.274 17.3147 159.576C16.8583 157.462 16.5524 155.181 16.397 152.73C16.2877 150.977 16.4194 149.172 16.7721 147.349C16.8827 146.776 17.015 146.203 17.1699 145.629C18.5094 140.584 21.4571 135.431 25.5183 130.703L25.5209 130.702Z" fill="white"/>
<path d="M172.932 34.9737C163.519 22.4747 165.792 8.11111 180.317 2.39271C184.039 0.929666 187.397 0.391097 190.387 0.600666C205.252 1.64643 211.065 21.1267 207.638 36.7972C207.445 37.6796 207.334 38.576 207.299 39.4866C206.991 46.9308 211.616 55.2472 217.269 62.5378L217.271 62.5406C218.31 63.8811 219.388 65.1848 220.473 66.4444C216.357 67.6821 212.294 69.2563 208.418 71.1013C205.99 72.255 203.588 73.5386 201.258 74.9418C201.187 74.6126 201.117 74.2808 201.041 73.9494C199.593 67.5817 197.291 60.8555 193.632 55.1076C191.937 52.4448 189.948 49.9926 187.623 47.8854C186.502 46.8715 185.302 45.9387 184.018 45.0981C183.998 45.085 183.978 45.0733 183.958 45.0587C182.011 43.7833 180.231 42.4344 178.627 41.0321L178.622 41.031C177.688 40.2154 176.811 39.3869 175.989 38.5387C174.863 37.3745 173.842 36.1832 172.932 34.9737Z" fill="white"/>
<path d="M5.23536 78.7692C-2.63696 66.7261 0.0878614 53.4634 13.9064 48.0263C14.5088 47.7873 15.1068 47.573 15.6913 47.3849C18.3165 46.5329 20.7486 46.161 22.9857 46.1949C38.5843 46.4189 44.7324 66.4101 41.2328 82.4297C39.5489 90.1324 44.0625 99.102 49.9829 107.013C47.8853 107.647 45.8327 108.398 43.8413 109.251L43.8417 109.248C40.1899 110.811 36.6905 112.731 33.4216 114.921C33.3875 114.804 33.3563 114.686 33.3215 114.569C31.4243 108.198 28.5695 101.822 24.28 96.7164C22.3588 94.4273 20.1479 92.3951 17.6093 90.7344C17.3458 90.5603 17.0836 90.3867 16.8259 90.2128C16.0682 89.6984 15.3406 89.173 14.6368 88.6381C13.2707 87.5984 12.0073 86.523 10.843 85.4201C8.59456 83.2899 6.72683 81.0508 5.23536 78.7692Z" fill="white"/>
<path d="M211.368 77.0861C199.087 82.9228 188.642 91.7519 185.099 101.326C184.728 102.322 184.436 103.324 184.222 104.333C183.561 107.448 183.666 110.617 184.703 113.766C185.662 116.675 186.742 119.297 187.94 121.651L187.942 121.654C190.464 126.612 193.499 130.374 196.966 133.06C197.917 133.798 198.903 134.454 199.918 135.03C200.293 135.243 200.674 135.444 201.058 135.636L200.672 134.879C199.508 132.593 198.338 130.298 197.158 127.995L196.678 127.06L196.494 126.027L196.493 126.02C196.492 126.015 196.49 126.009 196.489 126.003C196.487 125.992 196.485 125.98 196.482 125.967C196.478 125.939 196.472 125.906 196.467 125.87C196.455 125.799 196.442 125.711 196.427 125.608C196.397 125.401 196.362 125.131 196.329 124.805C196.262 124.152 196.199 123.264 196.19 122.196C196.171 120.068 196.367 117.152 197.218 113.898C198.962 107.23 203.396 99.4691 213.45 94.3273L213.453 94.3256C215.733 93.1614 218.271 92.1487 221.088 91.3127C234.535 87.3221 244.955 89.2369 252.233 92.5971C255.807 94.247 258.504 96.1882 260.348 97.7703C261.27 98.5617 261.985 99.2682 262.496 99.8097C262.751 100.08 262.957 100.312 263.113 100.493C263.19 100.583 263.256 100.663 263.309 100.728C263.336 100.76 263.36 100.788 263.381 100.814C263.391 100.826 263.4 100.839 263.409 100.85L263.427 100.873L263.964 101.553L264.32 102.335L264.324 102.341L264.333 102.362C264.342 102.381 264.354 102.409 264.371 102.446C264.405 102.521 264.457 102.634 264.524 102.782L265.123 104.097C265.651 105.256 266.431 106.972 267.441 109.191C267.462 109.237 267.482 109.282 267.503 109.328C268.375 107.533 268.967 105.655 269.269 103.663C269.648 101.158 269.572 98.4715 269.03 95.5521C268.442 92.3826 267.302 88.9301 265.6 85.132C265.113 84.0415 264.579 82.9209 263.998 81.7713C262.781 79.3679 261.175 77.3643 259.257 75.7336C259.16 75.6535 259.064 75.5716 258.967 75.4915C257.199 74.0464 255.175 72.9036 252.953 72.0401C252.95 72.0404 252.948 72.0399 252.945 72.0379C251.592 71.5119 250.167 71.0897 248.68 70.7657C243.403 69.6134 237.372 69.6882 231.156 70.7359C224.535 71.8497 217.706 74.0691 211.368 77.0861Z" fill="white"/>
<path d="M224.492 464.6C224.72 465.64 224.91 466.677 225.069 467.711C225.766 472.292 225.791 476.812 225.219 480.963C224.87 483.478 224.307 485.859 223.535 488.036C222.301 491.535 220.542 494.513 218.329 496.687C216.66 498.325 214.731 499.508 212.577 500.115C209.154 501.077 205.399 501.116 201.598 500.253C199.321 499.733 197.026 498.895 194.771 497.732C189.518 495.029 184.487 490.591 180.433 484.469C177.927 480.69 175.795 476.265 174.212 471.208C173.222 468.048 172.448 464.641 171.931 460.989C170.992 454.35 174.183 447.742 179.432 442.979C180.547 441.966 181.755 441.037 183.037 440.209C185.842 438.395 189 437.066 192.302 436.407C199.733 434.914 207.882 436.811 214.365 444.19C219.634 450.189 222.912 457.386 224.492 464.6Z" fill="white"/>
<path d="M390.358 404.92C391.302 407.299 392.044 409.724 392.591 412.148C393.66 416.857 394.003 421.562 393.681 425.921C393.485 428.618 393.032 431.184 392.337 433.532C390.521 439.692 387.055 444.362 382.211 446.06C380.388 446.698 378.453 447.069 376.446 447.173C370.882 447.461 364.79 445.69 359.127 441.862C356.533 440.112 354.033 437.932 351.712 435.317L351.712 435.316C348.83 432.074 346.231 428.172 344.089 423.604C342.125 419.42 340.543 414.678 339.482 409.384C337.805 401.027 342.734 392.313 350.286 387.204C350.645 386.959 351.01 386.725 351.38 386.499C359.978 381.252 371.541 380.623 380.719 389.95C385.036 394.334 388.215 399.507 390.358 404.92Z" fill="white"/>
<path d="M336.411 362.173C342.264 358.566 348.96 356.006 355.75 355.043C358.247 354.689 360.757 354.551 363.243 354.654C369.851 354.934 376.29 356.929 381.873 361.156C383.146 362.118 384.373 363.2 385.547 364.4C390.163 369.125 393.049 373.492 394.546 377.537C395.215 379.339 395.607 381.08 395.755 382.756C395.858 383.919 395.843 385.051 395.719 386.157C395.701 386.346 395.676 386.534 395.649 386.723C395.225 389.627 394.059 392.335 392.337 394.864C392.028 395.317 391.698 395.761 391.355 396.202C389.564 393.128 387.421 390.187 384.899 387.481L384.003 386.544C372.787 375.148 358.674 376.181 348.762 382.23C348.547 382.361 348.335 382.494 348.122 382.632L347.482 383.054C339.035 388.775 332.577 399.148 334.779 410.122C335.46 413.521 336.345 416.728 337.408 419.738C334.033 419.172 331.069 418.005 328.526 416.298C327.317 415.488 326.204 414.557 325.187 413.512C324.534 412.843 323.919 412.124 323.345 411.362C321.88 409.421 320.675 407.185 319.732 404.691C319.546 404.199 319.368 403.698 319.202 403.185C319.123 402.945 319.046 402.7 318.973 402.452L318.972 402.447C317.938 399.005 317.351 395.139 317.217 390.914C316.872 380.073 325.068 369.158 336.411 362.173Z" fill="white"/>
<path d="M150.713 441.247C150.99 430.896 159.116 420.96 170.139 414.646C179.853 409.08 191.817 406.33 202.644 408.579C206.26 409.331 209.748 410.64 212.983 412.586C213.974 413.182 214.943 413.837 215.88 414.556L215.883 414.555C217.58 415.851 219.191 417.353 220.69 419.073C221.345 419.826 221.962 420.567 222.538 421.298C225 424.397 226.778 427.312 227.962 430.057C228.981 432.413 229.562 434.645 229.767 436.759C230.046 439.644 229.619 442.313 228.629 444.786C228.359 445.468 228.044 446.133 227.69 446.785C226.876 448.285 225.849 449.71 224.651 451.067C222.849 447.529 220.599 444.13 217.856 441.006C210.028 432.096 200.025 429.789 191.14 431.572L191.141 431.57C187.243 432.348 183.565 433.906 180.324 436.001L180.321 436.003C178.837 436.961 177.436 438.038 176.141 439.214C170.168 444.636 165.942 452.687 167.178 461.435C167.663 464.861 168.361 468.108 169.25 471.17C168.247 470.939 167.285 470.658 166.363 470.325C165.044 469.853 163.81 469.276 162.66 468.605C160.436 467.308 158.523 465.653 156.915 463.678C155.248 461.629 153.914 459.236 152.916 456.541C151.515 452.761 150.773 448.386 150.7 443.532C150.698 443.361 150.695 443.191 150.697 443.018C150.691 442.434 150.699 441.844 150.713 441.247Z" fill="white"/>
<path d="M110.795 178.7C118.825 183.392 127.45 187.17 136.415 189.204C138.267 189.626 140.137 189.974 142.012 190.232C145.611 190.744 149.253 190.95 152.925 190.807C174.673 189.952 189.898 178.658 200.127 166.266C203.942 161.649 207.059 156.876 209.566 152.438C259.117 250.772 293.57 328.697 310.245 367.755L313.481 375.369C313.648 375.764 313.809 376.155 313.971 376.539C311.842 380.985 310.656 385.78 310.815 390.773C310.964 395.48 311.623 399.951 312.859 404.065C312.953 404.388 313.048 404.687 313.134 404.951L313.451 405.882C313.557 406.184 313.666 406.48 313.777 406.772C314.017 407.408 314.275 408.036 314.547 408.654C308.376 419.724 299.587 428.885 287.094 431.71C280.889 433.113 273.707 433.066 266.036 432.001C260.847 431.281 255.436 430.096 249.944 428.578C243.627 426.834 237.205 424.65 230.903 422.23C229.881 420.6 228.718 418.963 227.411 417.319C227.088 416.908 226.757 416.499 226.42 416.093L225.366 414.855L225.359 414.847L224.674 414.08C223.059 412.318 221.335 410.748 219.523 409.364L215.923 406.614L215.668 406.776C214.267 405.952 212.835 405.23 211.379 404.602C211.211 404.247 211.039 403.887 210.867 403.523C204.461 389.995 195.205 370.227 183.813 345.286C164.464 302.926 138.96 245.653 110.795 178.7Z" fill="white"/>
<path d="M104.155 179.164C103.557 177.74 102.953 176.314 102.352 174.882L102.158 174.416C102.824 176.005 103.492 177.586 104.155 179.164Z" fill="white"/>
<path d="M362.428 354.628L363.245 354.653C362.965 354.642 362.685 354.634 362.404 354.628C362.412 354.628 362.42 354.628 362.428 354.628Z" fill="white"/>
<path d="M202.792 125.19C202.792 125.19 199.852 108.777 216.553 100.235C218.485 99.2487 220.682 98.3679 223.175 97.6283C247.155 90.5118 258.489 104.77 258.545 104.842C258.545 104.842 320.967 241.902 368.668 348.682C366.837 348.364 364.997 348.17 363.162 348.092L363.156 348.092L362.073 348.06C359.546 348.016 357.024 348.183 354.537 348.536C346.842 349.627 339.374 352.503 332.9 356.493C327.254 359.969 321.986 364.558 318.009 369.902C301.359 330.683 263.507 244.501 207.892 135.181C206.209 131.871 204.51 128.541 202.792 125.19Z" fill="white"/>
<path d="M354.559 355.227L355.752 355.042C355.332 355.102 354.912 355.167 354.493 355.238C354.515 355.235 354.537 355.231 354.559 355.227Z" fill="white"/>
<path d="M201.659 408.387L202.646 408.578C201.976 408.439 201.302 408.32 200.624 408.219C200.97 408.271 201.315 408.325 201.659 408.387Z" fill="white"/>
<path d="M45.0905 143.551C48.8215 140.98 52.9684 139.215 57.2096 138.14C70.1276 134.87 83.9382 138.011 89.6819 144.417C139.335 264.66 183.025 359.273 203.23 402.075C190.666 399.577 177.348 402.823 166.792 408.871L166.792 408.869C160.467 412.492 154.584 417.464 150.422 423.382C149.234 420.593 148.05 417.817 146.867 415.058C104.283 315.758 64.4405 235.438 44.1929 195.85C35.4208 178.698 30.3241 169.193 30.2742 169.1C31.9506 156.862 37.7105 148.634 45.0905 143.551Z" fill="white"/>
</svg>
