<svg width="64" height="64" viewBox="0 0 64 64" fill="none" xmlns="http://www.w3.org/2000/svg">
<path fill-rule="evenodd" clip-rule="evenodd" d="M32.0002 3.33301C30.1119 3.33301 28.3962 3.87386 26.535 4.77898C24.7358 5.65393 22.6573 6.94391 20.0611 8.5552L14.5503 11.9754C12.0937 13.5 10.1267 14.7207 8.61056 15.8818C7.04056 17.0842 5.83469 18.3087 4.96366 19.9C4.09444 21.488 3.70301 23.1777 3.51534 25.1749C3.33346 27.1105 3.33348 29.4773 3.3335 32.4456V36.746C3.33346 41.823 3.33343 45.8306 3.74071 48.964C4.15849 52.1782 5.03633 54.7732 7.01978 56.8249C9.01238 58.886 11.548 59.8068 14.6871 60.2433C17.7295 60.6664 21.615 60.6664 26.5118 60.6663H37.4884C42.3852 60.6664 46.2709 60.6664 49.3132 60.2433C52.4523 59.8068 54.9879 58.886 56.9805 56.8249C58.964 54.7732 59.8418 52.1782 60.2596 48.964C60.6669 45.8306 60.6669 41.823 60.6668 36.746V32.4456C60.6668 29.4774 60.6669 27.1104 60.485 25.1749C60.2973 23.1777 59.9059 21.488 59.0367 19.9C58.1656 18.3087 56.9598 17.0842 55.3898 15.8818C53.8737 14.7208 51.9067 13.5 49.4501 11.9754L43.9392 8.55518C41.343 6.94391 39.2646 5.65392 37.4654 4.77898C35.6041 3.87386 33.8885 3.33301 32.0002 3.33301ZM22.0789 12.0107C24.7876 10.3296 26.6922 9.15043 28.2843 8.3762C29.8354 7.62188 30.934 7.33301 32.0002 7.33301C33.0663 7.33301 34.1649 7.62188 35.716 8.37619C37.3082 9.15043 39.2127 10.3296 41.9214 12.0107L47.2548 15.3207C49.817 16.9109 51.6159 18.0299 52.9577 19.0575C54.2633 20.0574 55.0144 20.8825 55.5279 21.8206C56.0432 22.7621 56.3441 23.8627 56.5025 25.5491C56.6648 27.2759 56.6668 29.4552 56.6668 32.5435V36.5995C56.6668 41.8554 56.6628 45.6028 56.293 48.4484C55.9297 51.2432 55.2455 52.8647 54.1047 54.0446C52.9731 55.2151 51.4325 55.9101 48.7622 56.2815C46.0273 56.6618 42.4202 56.6663 37.3335 56.6663H26.6668C21.5801 56.6663 17.973 56.6618 15.2381 56.2815C12.5678 55.9101 11.0272 55.2151 9.8956 54.0446C8.75486 52.8647 8.0706 51.2432 7.70734 48.4484C7.33747 45.6028 7.3335 41.8554 7.3335 36.5995V32.5435C7.3335 29.4552 7.33553 27.2759 7.49779 25.5491C7.65625 23.8627 7.95709 22.7621 8.47241 21.8206C8.98591 20.8825 9.73703 20.0574 11.0426 19.0575C12.3844 18.0299 14.1833 16.9109 16.7456 15.3207L22.0789 12.0107Z" fill="#3D4734"/>
</svg>
