<svg width="64" height="64" viewBox="0 0 64 64" fill="none" xmlns="http://www.w3.org/2000/svg">
<path fill-rule="evenodd" clip-rule="evenodd" d="M31.9997 3.33301C30.1114 3.33301 28.3958 3.87386 26.5345 4.77898C24.7353 5.65393 22.6568 6.94391 20.0606 8.5552L14.5498 11.9754C12.0932 13.5 10.1262 14.7207 8.61007 15.8818C7.04007 17.0842 5.8342 18.3087 4.96317 19.9C4.09395 21.488 3.70252 23.1777 3.51485 25.1749C3.33297 27.1105 3.33299 29.4773 3.33301 32.4456V36.746C3.33297 41.823 3.33294 45.8306 3.74022 48.964C4.158 52.1782 5.03584 54.7732 7.0193 56.8249C9.0119 58.886 11.5476 59.8068 14.6866 60.2433C17.729 60.6664 21.6145 60.6664 26.5113 60.6663H37.4879C42.3847 60.6664 46.2704 60.6664 49.3127 60.2433C52.4518 59.8068 54.9874 58.886 56.98 56.8249C58.9635 54.7732 59.8413 52.1782 60.2591 48.964C60.6664 45.8306 60.6664 41.823 60.6663 36.746V32.4456C60.6664 29.4774 60.6664 27.1104 60.4845 25.1749C60.2968 23.1777 59.9054 21.488 59.0362 19.9C58.1651 18.3087 56.9593 17.0842 55.3893 15.8818C53.8732 14.7208 51.9062 13.5 49.4497 11.9754L43.9387 8.55518C41.3425 6.94391 39.2641 5.65392 37.4649 4.77898C35.6036 3.87386 33.888 3.33301 31.9997 3.33301ZM22.0784 12.0107C24.7871 10.3296 26.6917 9.15043 28.2838 8.3762C29.8349 7.62188 30.9335 7.33301 31.9997 7.33301C33.0659 7.33301 34.1644 7.62188 35.7156 8.37619C37.3077 9.15043 39.2122 10.3296 41.9209 12.0107L47.2543 15.3207C49.8165 16.9109 51.6154 18.0299 52.9572 19.0575C54.2628 20.0574 55.0139 20.8825 55.5274 21.8206C56.0427 22.7621 56.3436 23.8627 56.502 25.5491C56.6643 27.2759 56.6663 29.4552 56.6663 32.5435V36.5995C56.6663 41.8554 56.6624 45.6028 56.2925 48.4484C55.9292 51.2432 55.245 52.8647 54.1042 54.0446C52.9726 55.2151 51.4321 55.9101 48.7618 56.2815C46.0268 56.6618 42.4198 56.6663 37.333 56.6663H26.6663C21.5796 56.6663 17.9726 56.6618 15.2376 56.2815C12.5673 55.9101 11.0267 55.2151 9.89511 54.0446C8.75437 52.8647 8.07011 51.2432 7.70685 48.4484C7.33698 45.6028 7.33301 41.8554 7.33301 36.5995V32.5435C7.33301 29.4552 7.33504 27.2759 7.4973 25.5491C7.65576 23.8627 7.9566 22.7621 8.47192 21.8206C8.98542 20.8825 9.73654 20.0574 11.0421 19.0575C12.3839 18.0299 14.1829 16.9109 16.7451 15.3207L22.0784 12.0107Z" fill="#3D4734"/>
</svg>
