<svg width="446" height="556" viewBox="0 0 446 556" fill="none" xmlns="http://www.w3.org/2000/svg">
<path d="M196.447 492.739C200.478 495.561 205.606 496.802 210.814 495.76L376.303 462.621C381.506 461.578 385.754 458.46 388.388 454.309L439.829 469.115L445.718 498.553L160.563 555.655L154.668 526.218L196.447 492.739Z" fill="white"/>
<path fill-rule="evenodd" clip-rule="evenodd" d="M365.585 405.806C365.506 405.82 365.423 405.826 365.345 405.841L199.052 439.141C198.979 439.156 198.906 439.176 198.834 439.191L145.27 171.708C145.343 171.695 145.42 171.69 145.492 171.676L311.785 138.376C311.864 138.36 311.941 138.327 312.019 138.31L365.585 405.806ZM164.849 170.866C158.702 172.097 154.712 178.081 155.942 184.224L203.706 422.751C204.937 428.895 210.923 432.881 217.07 431.65L217.296 431.605C223.448 430.371 227.433 424.389 226.203 418.247L178.438 179.719C178.361 179.336 178.262 178.959 178.149 178.592C178.016 178.162 177.852 177.748 177.671 177.345C177.555 177.086 177.436 176.83 177.303 176.583C177.291 176.56 177.282 176.535 177.27 176.513L177.243 176.474C177.206 176.407 177.177 176.334 177.138 176.267L176.693 175.564C174.203 171.91 169.684 169.899 165.074 170.821L164.849 170.866ZM206.178 162.59C200.031 163.821 196.042 169.805 197.271 175.948L245.036 414.475C246.266 420.619 252.252 424.605 258.4 423.374L258.625 423.328C264.771 422.096 268.756 416.114 267.526 409.972L219.761 171.444C218.531 165.303 212.549 161.316 206.404 162.545L206.178 162.59ZM252.036 153.407C245.889 154.638 241.9 160.622 243.129 166.765L290.894 405.292C292.124 411.436 298.11 415.421 304.258 414.191L304.483 414.145C310.63 412.914 314.62 406.93 313.39 400.787L265.625 162.26C264.394 156.118 258.408 152.132 252.261 153.362L252.036 153.407ZM293.365 145.131C287.218 146.362 283.229 152.346 284.458 158.489L332.223 397.016C333.453 403.16 339.433 407.147 345.587 405.914L345.812 405.869C351.959 404.637 355.95 398.654 354.719 392.511L306.955 153.984C305.724 147.842 299.737 143.856 293.591 145.086L293.365 145.131Z" fill="white"/>
<path d="M60.5799 118.188C63.5301 117.598 66.4172 119.521 67.0106 122.475C67.5995 125.424 65.6741 128.304 62.7241 128.896C59.7738 129.485 56.8937 127.567 56.3019 124.62C55.7122 121.665 57.6303 118.78 60.5799 118.188Z" fill="white"/>
<path fill-rule="evenodd" clip-rule="evenodd" d="M56.9452 100.037C69.9124 97.4415 82.5766 105.88 85.1734 118.838C87.7669 131.797 79.3259 144.449 66.3588 147.047C53.3915 149.642 40.7343 141.209 38.1392 128.257C35.5449 115.292 43.9786 102.635 56.9452 100.037ZM59.2699 111.646C52.713 112.961 48.4444 119.371 49.756 125.93C51.071 132.489 57.4764 136.749 64.0341 135.438C70.5977 134.122 74.8686 127.724 73.5565 121.164C72.2412 114.606 65.8337 110.333 59.2699 111.646Z" fill="white"/>
<path fill-rule="evenodd" clip-rule="evenodd" d="M53.3117 81.892C76.2897 77.2919 98.7299 92.2398 103.33 115.202C107.927 138.166 92.9702 160.589 69.9923 165.192C47.0141 169.792 24.5823 154.855 19.9825 131.892C15.3848 108.923 30.3342 86.4946 53.3117 81.892ZM55.6352 93.4953C39.0612 96.8156 28.2783 113.004 31.5932 129.567C34.9116 146.131 51.0928 156.9 67.6676 153.582C84.242 150.262 95.0347 134.091 91.7193 117.527C88.3994 100.958 72.2098 90.1774 55.6352 93.4953Z" fill="white"/>
<path d="M369.548 56.3175C372.497 55.7297 375.379 57.6531 375.973 60.6059C376.561 63.5535 374.64 66.4322 371.692 67.0254C368.741 67.6163 365.856 65.699 365.264 62.7503C364.674 59.7951 366.597 56.9084 369.548 56.3175Z" fill="white"/>
<path fill-rule="evenodd" clip-rule="evenodd" d="M365.913 38.1665C378.879 35.5728 391.537 44.0055 394.135 56.9689C396.727 69.9208 388.292 82.5772 375.327 85.1764C362.359 87.7732 349.698 79.3466 347.101 66.3874C344.508 53.4278 352.945 40.7633 365.913 38.1665ZM368.238 49.7758C361.673 51.0904 357.406 57.5009 358.718 64.0611C360.033 70.6211 366.437 74.8816 373.002 73.567C379.558 72.2514 383.83 65.854 382.518 59.2951C381.203 52.7373 374.795 48.4657 368.238 49.7758Z" fill="white"/>
<path fill-rule="evenodd" clip-rule="evenodd" d="M362.28 20.0216C385.257 15.4233 407.691 30.3653 412.292 53.333C416.889 76.2955 401.937 98.7175 378.96 103.321C355.981 107.923 333.544 92.9868 328.944 70.0232C324.348 47.0594 339.301 24.6231 362.28 20.0216ZM364.603 31.6248C348.028 34.944 337.239 51.1274 340.555 67.6982C343.874 84.2625 360.06 95.0312 376.636 91.7119C393.208 88.3905 403.996 72.2212 400.681 55.658C397.363 39.0958 381.177 28.3088 364.603 31.6248Z" fill="white"/>
<path d="M279.93 40.3322C287.217 38.8732 294.315 43.5985 295.773 50.8816L295.851 51.2714C297.311 58.5594 292.58 65.6481 285.291 67.108L142.488 95.7041C135.2 97.1635 128.103 92.4379 126.645 85.1547L126.567 84.7649C125.107 77.4768 129.837 70.388 137.127 68.9283L279.93 40.3322Z" fill="white"/>
<path fill-rule="evenodd" clip-rule="evenodd" d="M356.138 2.55007C382.832 -4.07271 411.56 8.11933 424.776 33.5887C440.245 63.4083 428.595 100.124 398.756 115.594C372.069 129.427 339.885 121.573 322.31 98.4347C322.25 97.8374 322.171 97.2314 322.05 96.6305L322.002 96.3868C319.976 86.2848 310.144 79.7324 300.035 81.7548L134.546 114.894C124.437 116.92 117.887 126.753 119.907 136.856L119.956 137.1C120.095 137.792 120.279 138.47 120.489 139.128C118.562 146.444 115.232 153.526 110.43 159.964C90.3355 186.896 52.2006 192.457 25.2569 172.382C-1.68459 152.306 -7.23555 114.194 12.8584 87.2623C22.2194 74.7187 35.4959 66.8096 49.7294 63.9713L49.7172 63.9104L356.138 2.55007ZM52.0017 75.3504C25.4169 80.6753 8.11827 106.635 13.4366 133.203C18.7595 159.777 44.7167 177.056 71.3023 171.733C97.8875 166.409 115.195 140.46 109.876 113.891C104.553 87.3177 78.5872 70.0279 52.0017 75.3504ZM360.97 13.4799C334.383 18.8038 317.079 44.7589 322.398 71.3341C327.72 97.9027 353.684 115.187 380.27 109.863C406.854 104.537 424.158 78.596 418.838 52.0222C413.516 25.4556 387.554 8.15921 360.97 13.4799ZM135.878 62.6912L134.883 62.9157C124.716 65.4916 118.243 75.6153 120.326 86.0147L120.404 86.4045C122.485 96.7979 132.358 103.654 142.733 102.117L143.737 101.941L286.54 73.3451L287.535 73.1206C297.374 70.6267 303.756 61.0651 302.268 51.0254L302.092 50.0216L302.014 49.6318C299.933 39.2391 290.06 32.3831 279.685 33.9193L278.681 34.0951L135.878 62.6912Z" fill="white"/>
<path d="M202.947 458.579C199.333 459.303 195.82 456.964 195.097 453.352L195.071 453.221C194.348 449.61 196.689 446.099 200.303 445.375L366.599 412.075C370.212 411.351 373.725 413.69 374.448 417.301L374.475 417.432C375.198 421.044 372.856 424.555 369.243 425.279L202.947 458.579Z" fill="white"/>
<path d="M202.939 458.579C199.325 459.303 195.812 456.964 195.089 453.353L195.063 453.222C194.34 449.61 196.681 446.099 200.295 445.376L366.59 412.075C370.204 411.351 373.717 413.69 374.44 417.302L374.466 417.433C375.19 421.044 372.848 424.555 369.235 425.279L202.939 458.579Z" fill="white"/>
<path d="M209.562 489.518C202.897 490.853 196.418 486.539 195.084 479.878L195.035 479.634C193.703 472.979 198.02 466.497 204.685 465.162L370.17 432.024C376.835 430.689 383.314 435.003 384.648 441.665L384.697 441.908C386.031 448.569 381.712 455.045 375.047 456.38L209.562 489.518Z" fill="white"/>
<path d="M141.591 152.235C137.977 152.959 135.635 156.47 136.359 160.081L136.385 160.212C137.108 163.824 140.621 166.163 144.235 165.439L310.53 132.139C314.144 131.415 316.485 127.904 315.762 124.292L315.736 124.161C315.013 120.55 311.5 118.211 307.886 118.935L141.591 152.235Z" fill="white"/>
<path d="M135.79 121.131C129.125 122.466 124.806 128.942 126.14 135.604L126.189 135.847C127.522 142.502 134.002 146.822 140.668 145.487L306.152 112.349C312.817 111.015 317.136 104.538 315.802 97.8772L315.753 97.6339C314.419 90.9727 307.94 86.6587 301.275 87.9934L135.79 121.131Z" fill="white"/>
</svg>
