<svg width="796" height="881" viewBox="0 0 796 881" fill="none" xmlns="http://www.w3.org/2000/svg">
<path d="M519.756 691.844C584.307 705.639 632.421 726.853 652.557 751.741C647.967 753.582 643.978 756.596 640.953 760.398H367.09C362.33 754.414 355.185 750.386 347.059 749.804L345.021 749.729C336.057 749.729 328.1 753.916 322.943 760.398H49.0807C46.0395 756.575 42.0232 753.554 37.4012 751.717C57.5361 726.85 105.62 705.651 170.119 691.86L177.423 711.801L184.585 710.371C206.022 706.08 229.928 703.694 255.103 703.694C295.802 703.694 333.084 709.98 361.991 720.35L364.487 721.248L367.057 720.566C391.234 714.149 419.769 710.433 450.353 710.429L457.216 710.488C473.632 710.785 489.418 712.166 504.192 714.446L511.088 715.51L519.756 691.844Z" fill="white"/>
<path d="M173.903 683.471C180.659 683.471 186.136 677.33 186.136 669.753C186.136 662.177 180.659 656.035 173.903 656.035C167.148 656.035 161.671 662.177 161.671 669.753C161.671 677.33 167.148 683.471 173.903 683.471Z" fill="white"/>
<path d="M258.287 669.753C258.287 677.323 252.809 683.471 246.054 683.471C239.299 683.471 233.822 677.332 233.822 669.753C233.822 662.175 239.299 656.035 246.054 656.035C252.809 656.044 258.287 662.183 258.287 669.753Z" fill="white"/>
<path d="M344.953 683.471C351.709 683.471 357.186 677.33 357.186 669.753C357.186 662.177 351.709 656.035 344.953 656.035C338.197 656.035 332.721 662.177 332.721 669.753C332.721 677.33 338.197 683.471 344.953 683.471Z" fill="white"/>
<path d="M446.297 683.471C453.053 683.471 458.529 677.33 458.529 669.753C458.529 662.177 453.053 656.035 446.297 656.035C439.541 656.035 434.064 662.177 434.064 669.753C434.064 677.33 439.541 683.471 446.297 683.471Z" fill="white"/>
<path d="M517.426 683.471C524.181 683.471 529.658 677.33 529.658 669.753C529.658 662.177 524.181 656.035 517.426 656.035C510.67 656.035 505.193 662.177 505.193 669.753C505.193 677.33 510.67 683.471 517.426 683.471Z" fill="white"/>
<path d="M258.056 672.483C257.975 672.917 257.871 673.344 257.757 673.763C257.868 673.355 257.971 672.94 258.048 672.516L258.056 672.483Z" fill="white"/>
<path fill-rule="evenodd" clip-rule="evenodd" d="M344.946 539C345.009 539.06 388.917 580.673 388.919 612.752C388.919 622.639 387.047 631.951 383.753 640.102H412.802C424.777 613.989 449.546 589.518 449.546 589.518C449.546 589.518 466.097 614.252 472.972 640.102H493.419C491.649 628.488 492.908 615.524 497.479 604.935C508.221 580.029 531.362 569.119 555.128 568.429L529.456 640.102H529.639L526.17 649.548C523.575 648.263 520.641 647.519 517.435 647.519C505.082 647.521 496.689 658.424 496.689 669.755C496.69 678.989 502.265 687.932 511.013 690.927L505.49 706.028C490.327 703.688 474.163 702.282 457.374 701.979L450.403 701.912C419.139 701.912 389.844 705.703 364.869 712.331C334.889 701.577 296.61 695.176 255.103 695.176C229.402 695.176 204.935 697.612 182.913 702.02L178.987 691.31C188.506 688.807 194.666 679.453 194.667 669.755C194.667 658.423 186.267 647.519 173.912 647.519C170.187 647.52 166.83 648.526 163.946 650.222L160.244 640.102H160.502L134.831 568.429C158.596 569.119 181.738 580.029 192.48 604.935C197.051 615.524 198.309 628.487 196.539 640.102H217.819C225.387 614.851 241.51 591.089 241.51 591.089C241.8 591.376 265.312 614.716 276.965 640.102H306.131C302.835 631.951 300.965 622.639 300.965 612.752C300.966 580.649 344.946 539 344.946 539ZM246.069 647.519C233.716 647.519 225.314 658.42 225.314 669.755C225.315 681.09 233.717 691.983 246.069 691.983C258.423 691.982 266.815 681.077 266.816 669.755C266.816 659.128 259.432 648.892 248.34 647.644L246.069 647.519ZM344.963 647.519C332.609 647.521 324.216 658.424 324.216 669.755C324.217 681.085 332.61 691.981 344.963 691.983C357.317 691.983 365.716 681.086 365.718 669.755C365.718 658.423 357.317 647.519 344.963 647.519ZM446.31 647.519C433.955 647.519 425.555 658.423 425.555 669.755C425.556 681.086 433.956 691.983 446.31 691.983C458.664 691.983 467.056 681.086 467.057 669.755C467.057 658.423 458.665 647.52 446.31 647.519Z" fill="white"/>
<path d="M663.014 758.244C673.894 758.247 682.713 767.068 682.713 777.944C682.711 788.819 673.892 797.633 663.014 797.636C654.986 797.636 648.091 792.829 645.02 785.944H362.989C359.92 792.828 353.031 797.634 345.004 797.636C336.976 797.636 330.081 792.829 327.011 785.944H44.9796C41.9098 792.828 35.0209 797.634 26.9944 797.636C16.114 797.636 7.28935 788.82 7.28724 777.944C7.28724 767.066 16.1127 758.244 26.9944 758.244C34.6168 758.246 41.2134 762.582 44.4888 768.913H327.501C330.777 762.58 337.38 758.244 345.004 758.244C352.626 758.246 359.223 762.582 362.499 768.913H645.511C648.787 762.58 655.39 758.244 663.014 758.244Z" fill="white"/>
<path d="M53.9472 853.026H0L17.4361 804.488C20.4219 805.562 23.6394 806.151 26.9944 806.151L29.1323 806.068C31.7071 805.874 34.1791 805.325 36.5111 804.488L53.9472 853.026Z" fill="white"/>
<path d="M335.446 804.471C338.429 805.548 341.643 806.151 345.004 806.151L347.142 806.068C349.717 805.874 352.189 805.325 354.521 804.488L371.965 853.026H318.01L335.446 804.471Z" fill="white"/>
<path d="M690 853.026H636.053L653.481 804.479C656.457 805.551 659.662 806.151 663.014 806.151L664.47 806.118C667.297 805.974 670.008 805.395 672.556 804.479L690 853.026Z" fill="white"/>
<path d="M322.119 794.459C323.734 796.689 325.665 798.679 327.851 800.355L327.41 801.594L305.881 861.541H384.061L362.523 801.61L362.066 800.346C364.257 798.669 366.205 796.694 367.823 794.459H640.129C641.747 796.694 643.693 798.672 645.886 800.346L645.445 801.602L640.154 816.329C593.172 854.229 478.715 881 344.954 881C211.174 881 96.7448 854.231 49.7961 816.321L44.5137 801.61L44.0562 800.346C46.2499 798.673 48.1952 796.694 49.8128 794.459H322.119Z" fill="white"/>
<path fill-rule="evenodd" clip-rule="evenodd" d="M650.056 552.776L308.998 440.516L453.995 0L795.053 112.26L650.056 552.776ZM333.674 435.221L463.543 477.968L461.401 484.476L507.521 499.656L509.663 493.148L635.304 534.503L768.899 128.628L467.269 29.3456L333.674 435.221Z" fill="white"/>
<path d="M702.71 128.561L703.952 128.97C704.037 127.806 704.231 126.677 704.529 125.577L703.505 125.24C703.277 126.3 703.026 127.409 702.71 128.561ZM702.71 128.561L703.952 128.97C704.037 127.806 704.231 126.677 704.529 125.577L703.505 125.24C703.277 126.3 703.026 127.409 702.71 128.561ZM702.71 128.561L703.952 128.97C704.037 127.806 704.231 126.677 704.529 125.577L703.505 125.24C703.277 126.3 703.026 127.409 702.71 128.561ZM345.464 421.752L631.6 515.935L758.217 131.26L472.081 37.0771L345.464 421.752ZM740.081 140.862L622.715 497.433L363.607 412.146L480.973 55.5754L740.081 140.862ZM702.71 128.561L703.952 128.97C704.037 127.806 704.231 126.677 704.529 125.577L703.505 125.24C703.277 126.3 703.026 127.409 702.71 128.561ZM702.71 128.561L703.952 128.97C704.037 127.806 704.231 126.677 704.529 125.577L703.505 125.24C703.277 126.3 703.026 127.409 702.71 128.561ZM702.71 128.561L703.952 128.97C704.037 127.806 704.231 126.677 704.529 125.577L703.505 125.24C703.277 126.3 703.026 127.409 702.71 128.561Z" fill="white"/>
<path d="M522.965 192.516C528.674 198.913 535.074 205.061 541.944 210.756C538.742 209.858 535.308 209.453 531.62 209.711L529.902 209.832L528.503 210.846C525.964 212.688 523.599 214.837 521.451 217.279C517.55 221.602 514.275 226.97 511.359 233.269C511.249 233.248 511.137 233.226 511.026 233.208C505.593 232.352 501.322 235.684 498.81 238.908C496.152 242.32 494.307 246.906 493.526 251.837C492.886 255.865 492.996 259.841 493.828 263.335C494.629 266.696 496.255 270.207 499.154 272.567C499.16 272.571 499.167 272.581 499.173 272.586C499.179 272.591 499.185 272.599 499.191 272.604C499.419 272.789 499.667 272.949 499.913 273.12C499.636 278.209 499.633 282.965 499.94 287.221C500.331 292.63 501.25 297.661 503.039 301.584C506.352 308.851 508.877 315.04 511.469 319.818L512.304 321.307C514.294 324.735 516.576 327.775 519.674 330.519C522.521 333.04 525.879 335.142 529.976 337.104L513.178 331.575C512.919 330.919 499.61 325.774 492.609 320.873C459.366 302.069 475.451 274.968 500.59 224.79C501.572 222.578 502.534 220.42 503.592 218.36C509.316 206.944 515.978 198.577 522.965 192.516Z" fill="white"/>
<path d="M565.288 227.151C574.1 232.316 583.229 236.58 592.357 239.584C605.635 243.954 618.315 246.948 630.06 248.719C629.749 254.227 628.906 260.17 627.41 266.532C627.168 268.037 626.865 269.524 626.623 271.029C617.585 323.527 613.64 353.039 576.755 348.57C568.151 348.336 554.437 344.585 553.851 344.963L537.07 339.439C541.531 340.294 545.482 340.597 549.27 340.26C553.977 339.84 558.061 338.479 562.226 336.525C567.148 334.217 572.84 330.736 579.822 326.857C583.592 324.764 587.323 321.265 590.851 317.145C593.624 313.905 596.438 310.072 599.235 305.819C599.539 305.828 599.839 305.839 600.137 305.824L600.141 305.832C600.153 305.831 600.167 305.827 600.18 305.826C600.188 305.826 600.196 305.828 600.204 305.828L600.2 305.82C603.933 305.642 607.324 303.783 609.963 301.555C612.708 299.236 615.163 296.103 617.037 292.478L617.033 292.471C619.328 288.045 620.573 283.268 620.462 278.95C620.356 274.865 618.892 269.643 614.008 267.106C613.904 267.051 613.798 267.002 613.693 266.952C614.293 263.998 614.747 261.163 615.011 258.433L615.926 248.977L606.982 252.187C600.18 254.627 594.811 253.68 589.774 250.894C584.365 247.902 579.328 242.777 573.759 236.571C571.084 233.589 568.261 230.323 565.288 227.151Z" fill="white"/>
<path d="M581.413 318.279C581.358 318.329 581.298 318.372 581.243 318.421C581.425 318.259 581.607 318.091 581.791 317.921C581.662 318.039 581.541 318.164 581.413 318.279Z" fill="white"/>
<path d="M587.541 311.721C587.12 312.238 586.7 312.74 586.283 313.226C585.448 314.203 584.619 315.114 583.805 315.959C583.65 316.12 583.489 316.273 583.335 316.429C584.7 315.046 586.114 313.475 587.541 311.721Z" fill="white"/>
<path d="M529.014 218.171C529.091 218.102 529.167 218.031 529.244 217.962L530.421 216.963C529.944 217.352 529.476 217.755 529.014 218.171Z" fill="white"/>
<path d="M544.087 217.938C544.912 218.308 545.726 218.715 546.526 219.162C546.125 218.938 545.72 218.726 545.313 218.521L544.087 217.938Z" fill="white"/>
<path d="M634.753 227.295C663.42 233.55 682.205 222.704 681.371 240.231C681.35 240.641 681.338 241.022 681.282 241.421C681.284 241.764 681.191 242.162 681.181 242.539C679.701 255.612 661.662 263.76 634.226 263.508C635.705 255.997 636.34 249.008 636.23 242.56C636.247 238.335 635.903 234.389 635.294 230.637L634.753 227.295Z" fill="white"/>
<path d="M503.782 122.679C542.542 114.602 549.015 141.615 565.656 171.334C553.837 171.127 538.688 173.569 524.245 183.869C517.394 188.754 510.823 195.363 504.926 204.133C481.989 177.034 472.293 146.254 493.386 129.021C496.942 126.134 500.205 123.416 503.782 122.679Z" fill="white"/>
<path fill-rule="evenodd" clip-rule="evenodd" d="M428.642 349.24L436.143 353.746C459.263 367.631 486.541 380.105 516.51 389.969C546.477 399.833 575.826 406.005 602.675 408.56L611.386 409.391L610.341 405.623C611.478 407.713 612.369 409.908 612.984 412.171C614.451 417.344 614.392 422.904 612.641 428.224C610.552 434.572 606.346 439.621 600.921 443.045L600.934 443.006L554.372 427.681L543.949 459.349C543.646 459.516 543.346 459.686 543.037 459.842C543.343 459.688 543.644 459.53 543.943 459.366L540.356 470.265L449.188 440.256L463.208 397.661L416.658 382.339L416.627 382.434C414.283 376.436 413.889 369.835 415.975 363.496C418.654 355.357 424.864 349.272 432.642 346.099L428.642 349.24ZM463.774 441.652C463.765 441.647 463.759 441.637 463.75 441.632C463.628 441.557 463.505 441.483 463.384 441.406C463.514 441.488 463.643 441.572 463.774 441.652ZM532.371 462.751C532.438 462.747 532.505 462.748 532.572 462.743C532.656 462.737 532.739 462.722 532.823 462.714C532.673 462.727 532.522 462.741 532.371 462.751ZM541.008 460.759C539.248 461.47 537.403 461.997 535.502 462.345C534.619 462.507 533.726 462.633 532.823 462.714C535.674 462.468 538.431 461.801 541.008 460.759ZM541.008 460.759C541.082 460.729 541.159 460.708 541.233 460.678C541.261 460.666 541.286 460.648 541.314 460.637C541.213 460.679 541.11 460.717 541.008 460.759Z" fill="white"/>
<path d="M523.931 386.028C523.963 386.038 523.996 386.044 524.028 386.054C524.039 386.057 524.05 386.061 524.061 386.065L523.931 386.028Z" fill="white"/>
<path d="M529.452 387.728L527.04 386.984C528.474 387.422 529.903 387.858 531.332 388.279C530.706 388.094 530.078 387.916 529.452 387.728Z" fill="white"/>
<path d="M540.419 390.861C537.882 390.172 535.338 389.445 532.784 388.701C533.556 388.926 534.33 389.138 535.1 389.358C536.37 389.719 537.636 390.082 538.902 390.43C539.409 390.57 539.913 390.723 540.419 390.861Z" fill="white"/>
<path d="M443.012 346.101C443.166 346.015 443.322 345.93 443.48 345.846L444.713 345.224C444.122 345.51 443.555 345.801 443.012 346.101Z" fill="white"/>
<path d="M681.279 241.404C671.92 244.219 659.603 245.427 645.125 244.339C630.115 243.329 612.829 239.986 594.238 233.866C565.179 224.301 535.707 201.35 518.037 176.83C504.254 157.838 497.628 137.905 503.779 122.685C554.701 112.057 549.918 162.027 585.594 199.067C589.265 202.938 593.431 206.655 598.167 210.18C618.067 225.035 636.001 228.529 650.058 229.352C669.868 230.42 682.021 226.051 681.351 240.223C681.333 240.661 681.335 241.042 681.279 241.404Z" fill="white"/>
<path d="M601.377 212.476C600.933 212.168 600.482 211.864 600.036 211.545L598.175 210.183C599.246 210.983 600.317 211.741 601.377 212.476Z" fill="white"/>
<path d="M596.061 159.535C623.514 168.571 639.541 195.477 633.203 220.747C623.686 218.321 613.101 213.809 601.781 205.359L601.772 205.349C597.309 202.028 593.4 198.542 589.972 194.927L589.94 194.892C581.538 186.168 575.442 176.611 570.201 167.109C568.549 164.112 566.92 160.997 565.307 157.882C575.022 155.721 585.645 156.106 596.061 159.535Z" fill="white"/>
<path d="M513.197 336.552C512.644 338.234 510.935 339.187 509.385 338.676C507.835 338.166 507.024 336.391 507.58 334.703C508.133 333.021 509.842 332.068 511.392 332.579C512.946 333.096 513.751 334.87 513.197 336.552Z" fill="white"/>
<path d="M516.193 342.033C515.639 343.715 513.93 344.668 512.38 344.158C510.83 343.647 510.02 341.872 510.575 340.184C511.129 338.502 512.837 337.549 514.387 338.06C515.936 338.576 516.746 340.351 516.193 342.033Z" fill="white"/>
<path d="M518.845 347.534C518.292 349.216 516.583 350.169 515.033 349.659C513.483 349.149 512.672 347.373 513.228 345.685C513.781 344.004 515.49 343.051 517.04 343.561C518.594 344.079 519.399 345.853 518.845 347.534Z" fill="white"/>
<path d="M523.171 351.862C522.618 353.544 520.909 354.497 519.359 353.987C517.809 353.476 516.998 351.701 517.554 350.013C518.107 348.331 519.816 347.378 521.366 347.889C522.914 348.405 523.725 350.18 523.171 351.862Z" fill="white"/>
<path d="M550.894 348.96C550.341 350.642 551.149 352.423 552.699 352.933C554.249 353.444 555.956 352.497 556.512 350.809C557.065 349.127 556.257 347.346 554.706 346.836C553.154 346.331 551.448 347.278 550.894 348.96Z" fill="white"/>
<path d="M545.235 351.592C544.681 353.274 545.49 355.056 547.04 355.566C548.59 356.076 550.297 355.129 550.852 353.441C551.406 351.76 550.597 349.978 549.047 349.468C547.489 348.962 545.788 349.911 545.235 351.592Z" fill="white"/>
<path d="M539.827 354.441C539.274 356.123 540.082 357.904 541.632 358.414C543.183 358.924 544.889 357.977 545.445 356.29C545.998 354.608 545.19 352.827 543.64 352.316C542.087 351.812 540.381 352.759 539.827 354.441Z" fill="white"/>
<path d="M535.587 359.328C537.139 359.839 538.845 358.888 539.4 357.204C539.954 355.52 539.146 353.741 537.595 353.23C536.043 352.72 534.337 353.671 533.782 355.355C533.228 357.039 534.036 358.818 535.587 359.328Z" fill="white"/>
<path d="M533.428 356.43C532.381 359.611 529.159 361.409 526.224 360.443C523.289 359.477 521.765 356.116 522.812 352.936C523.858 349.755 527.082 347.957 530.016 348.923C532.951 349.889 534.475 353.25 533.428 356.43Z" fill="white"/>
<path d="M443.467 438.373L408.358 426.817L420.495 389.942L455.605 401.499L443.467 438.373Z" fill="white"/>
<path d="M581.204 483.685L546.083 472.125L558.21 435.284L593.33 446.844L581.204 483.685Z" fill="white"/>
<path d="M561.287 354.68C569.369 362.163 582.251 374.227 588.585 380.773C597.226 389.671 601.569 396.495 603.249 402.564C576.883 400.054 547.972 393.985 518.393 384.249C488.813 374.512 461.947 362.216 439.242 348.581C444.198 344.696 451.748 341.781 463.977 339.758C472.963 338.256 490.484 336.198 501.43 334.978C501.204 337.816 502.247 340.763 504.509 342.703C504.806 344.615 505.678 346.438 507.112 347.832C507.454 350.804 509.172 353.631 512.222 355.012C513.171 357.089 514.909 358.828 517.406 359.672C518.607 362.591 520.949 365.042 524.341 366.159C527.731 367.274 531.064 366.689 533.762 365.056C536.278 365.866 538.708 365.49 540.708 364.382C543.981 365.082 547.035 363.831 549.076 361.645C551.064 361.377 552.852 360.429 554.229 359.063C557.199 358.843 559.785 357.094 561.287 354.68Z" fill="white"/>
<path d="M536.761 359.443L536.172 359.447C536.565 359.486 536.957 359.441 537.328 359.32C537.144 359.38 536.954 359.421 536.761 359.443Z" fill="white"/>
<path d="M517.074 349.526C516.796 349.651 516.506 349.739 516.206 349.773L516.158 349.769C516.474 349.739 516.782 349.658 517.074 349.526Z" fill="white"/>
<path d="M517.805 349.073C517.759 349.111 517.707 349.139 517.66 349.174C517.733 349.12 517.803 349.063 517.871 349.002C517.847 349.024 517.83 349.053 517.805 349.073Z" fill="white"/>
<path d="M518.233 348.638C518.206 348.671 518.17 348.695 518.142 348.726C518.183 348.68 518.224 348.635 518.262 348.586C518.25 348.602 518.245 348.623 518.233 348.638Z" fill="white"/>
<path d="M530.548 349.126C530.893 349.283 531.216 349.475 531.512 349.697C531.363 349.585 531.205 349.484 531.044 349.388L530.548 349.126Z" fill="white"/>
<path d="M578.008 108.593C585.483 111.054 589.59 118.983 587.182 126.299C586.806 127.438 586.274 128.483 585.65 129.447C586.821 130.016 587.891 130.718 588.836 131.543C593.956 124.915 603.005 121.923 611.569 124.741C616.75 126.45 620.805 129.978 623.247 134.35C627.263 133.532 631.559 133.717 635.755 135.098C648.389 139.257 655.324 152.645 651.257 165.01L651.268 165.014C662.066 168.574 668.007 180.032 664.528 190.603C662.927 195.469 659.605 199.292 655.439 201.666C656.658 205.057 656.819 208.833 655.615 212.491C653.961 217.515 650.119 221.202 645.457 222.923C643.36 222.701 641.19 222.394 638.948 221.988C639.72 221.107 640.562 220.149 641.472 219.117C641.942 218.479 642.44 217.813 642.953 217.121C643.206 216.774 643.461 216.413 643.724 216.056L643.924 215.788L644.026 215.648L644.072 215.582L644.249 215.288L644.549 214.736C645.321 213.159 646.285 211.864 647.039 209.786C647.76 207.748 648.71 205.585 649.019 203.373C649.31 202.259 649.523 201.11 649.669 199.934C649.891 199.442 650.165 198.89 650.497 198.3C651.771 196.031 654.106 193.116 656.139 190.021C657.004 188.316 658.07 186.786 658.633 185.115C659.246 183.461 659.46 181.821 659.493 180.451C659.447 179.765 659.399 179.132 659.361 178.575C659.287 178.032 659.064 177.574 658.96 177.198C658.724 176.485 658.586 176.061 658.576 176.032C658.58 176.055 658.651 176.489 658.78 177.238C658.823 177.625 658.965 178.075 658.956 178.602C658.908 179.131 658.859 179.732 658.808 180.386C658.571 181.665 658.151 183.14 657.357 184.552C656.614 185.98 655.353 187.29 654.374 188.685C652.909 190.312 651.326 191.868 649.882 193.379C649.823 191.924 649.716 190.445 649.56 188.958C649.419 188.08 649.24 187.207 649.048 186.337C649.538 184.464 650.796 181.872 651.783 179.195C652.13 177.719 652.685 176.366 652.784 174.967C652.931 173.578 652.727 172.271 652.447 171.234C652.087 170.193 651.709 169.395 651.257 168.942C650.901 168.48 650.692 168.209 650.676 168.187C650.687 168.209 650.839 168.52 651.1 169.045C651.211 169.321 651.432 169.618 651.529 170.016C651.599 170.419 651.679 170.879 651.765 171.369C651.824 172.364 651.774 173.54 651.405 174.718C651.081 175.897 650.3 177.072 649.769 178.259C649.109 179.34 648.383 180.4 647.687 181.444C646.806 178.894 645.652 176.342 644.173 173.761C644.081 173.611 643.977 173.463 643.881 173.312C644.463 172.187 645.131 170.635 645.551 168.71C646.534 164.857 646.102 159.432 643.582 155.129C640.981 150.977 637.701 147.82 636.434 144.659C636.045 143.904 635.864 143.16 635.738 142.486C635.559 141.818 635.462 141.224 635.536 140.729C635.572 139.744 635.588 139.161 635.588 139.161C635.693 139.173 634.757 141.47 635.784 144.884C636.706 148.325 639.747 152.129 641.605 156.112C643.333 160.122 643.098 164.679 641.931 167.686C641.692 168.372 641.413 168.981 641.142 169.519C639.072 166.957 636.602 164.443 633.996 162.356C634.104 161.375 634.025 160.201 633.719 159.002C633.329 157.493 632.558 155.988 631.553 154.581C630.532 153.237 629.431 151.964 628.392 150.735C626.261 148.329 625.189 145.387 625.381 142.952C625.504 140.569 626.431 139.124 626.337 139.069C626.432 139.128 625.26 140.374 624.696 142.851C624.461 144.085 624.333 145.606 624.657 147.24C624.981 148.855 625.721 150.478 626.564 151.979C628.288 154.821 629.826 157.396 630.002 159.481C626.456 157.216 622.547 155.484 618.531 154.207C618.716 153.278 618.832 152.158 618.725 150.891C618.642 149.141 617.958 147.177 616.914 145.484C615.868 143.771 614.489 142.343 613.207 140.945C611.902 139.578 610.736 138.2 609.829 136.781C609.02 135.33 608.484 133.843 608.514 132.478C608.454 129.715 610.105 128.343 610.057 128.318C610.134 128.337 608.223 129.427 607.824 132.431C607.572 133.893 607.908 135.65 608.574 137.395C609.322 139.086 610.379 140.773 611.477 142.326C612.535 143.884 613.609 145.42 614.224 146.902C614.839 148.384 615.088 149.77 614.959 150.97C614.903 151.814 614.725 152.52 614.526 153.094C612.696 152.693 610.833 152.427 608.886 152.172C608.408 152.149 607.925 152.124 607.448 152.101C607.304 151.036 606.918 149.701 606.072 148.552C604.319 146.157 601.698 144.658 600.158 142.346C598.495 140.043 597.627 137.155 597.484 134.952C597.459 133.855 597.425 132.918 597.543 132.272C597.612 131.618 597.65 131.249 597.65 131.249C597.65 131.249 597.544 131.608 597.351 132.234C597.119 132.861 596.98 133.799 596.794 134.942C596.528 137.232 596.831 140.456 598.228 143.432C598.858 144.944 599.892 146.338 600.801 147.467C601.297 148.074 601.657 148.596 601.989 149.085C602.328 149.575 602.696 150.04 602.822 150.448C603.097 151.065 603.184 151.54 603.194 151.896C602.34 151.856 601.483 151.817 600.633 151.777C598.874 151.758 597.118 151.766 595.384 151.771C594.551 151.388 593.538 150.9 592.921 150.452C591.618 149.712 590.403 148.122 589.517 146.348C588.737 144.507 588.605 142.406 588.827 140.864C588.871 140.074 589.18 139.474 589.272 139.023C589.405 138.579 589.479 138.317 589.479 138.317C589.479 138.317 589.36 138.552 589.143 138.962C588.966 139.385 588.527 139.947 588.324 140.736C587.786 142.276 587.448 144.534 587.93 146.841C588.392 148.625 589.22 150.414 590.26 151.707C589.006 151.671 587.762 151.631 586.542 151.529C585.089 150.771 583.1 149.692 582.225 148.901C580.789 147.661 579.064 145.614 578.324 143.146C577.501 140.721 577.776 137.985 578.848 136.304C579.886 134.625 581.179 133.996 581.14 133.932C581.178 134.003 579.809 134.393 578.427 136.004C577.016 137.594 576.185 140.608 576.703 143.517C577.092 146.267 578.519 148.769 579.936 150.531C577.265 149.909 574.724 148.998 572.466 147.701C571.342 146.835 569.843 145.532 568.57 143.812C567.369 142.129 567.352 138.681 568.146 135.958C568.92 133.202 571.251 131.029 573.279 130.125C574.279 129.644 575.213 129.381 575.861 129.315C576.484 129.234 576.851 129.183 576.891 129.177C576.849 129.177 576.469 129.177 575.84 129.172C575.171 129.148 574.194 129.29 573.082 129.651C570.85 130.311 567.972 132.227 566.58 135.374C565.672 137.385 565.529 139.668 565.873 141.679C565.531 141.18 565.217 140.666 564.935 140.145C564.784 139.686 563.934 136.72 563.221 134.819C563.178 134.443 563.158 134.06 563.192 133.646C563.23 132.664 563.092 131.634 563.401 130.792C563.648 129.924 563.716 129.021 564.089 128.232C564.462 127.444 564.835 126.671 565.188 125.926C566.202 124.618 567.007 123.31 568.216 122.427C569.351 121.559 570.535 120.954 571.685 120.597C573.973 119.896 575.978 120.082 577.144 120.642C578.313 121.167 578.841 121.672 578.86 121.634C578.834 121.676 578.339 121.145 577.177 120.56C576.011 119.943 573.978 119.663 571.595 120.289C570.408 120.602 569.134 121.19 567.906 122.053C566.691 122.857 565.699 124.249 564.616 125.558C564.212 126.325 563.791 127.116 563.364 127.932C562.938 128.748 562.806 129.738 562.51 130.678C562.234 131.426 562.231 132.175 562.206 132.937C561.819 132.428 561.397 131.872 560.963 131.296C560.203 130.546 559.285 129.867 558.255 129.439C557.207 129.032 556.075 128.885 555.051 129.072C554.034 129.3 553.242 129.853 552.728 130.431C551.669 131.61 551.881 132.716 551.844 132.722C551.871 132.688 551.955 131.602 553.074 130.811C553.616 130.413 554.387 130.116 555.178 130.116C555.969 130.151 556.785 130.45 557.487 130.907C560.293 132.877 563.38 140.341 563.649 140.496L563.664 140.488C564.609 142.499 565.961 144.404 567.654 146.086C567.792 146.291 567.934 146.484 568.071 146.663C566.603 146.113 565.083 145.611 563.696 145.34C560.855 144.829 558.217 143.553 556.924 141.78C556.222 140.954 555.932 140.079 555.73 139.48C555.63 138.866 555.571 138.503 555.569 138.486C555.569 138.486 555.577 138.869 555.593 139.503C555.631 139.713 555.693 139.955 555.757 140.226C555.685 140.105 555.615 139.984 555.542 139.864C553.09 135.842 550.401 132 547.285 128.59C549.736 124.215 554.408 121.541 559.423 121.49C559.441 120.127 559.664 118.747 560.111 117.388C562.519 110.072 570.531 106.132 578.008 108.593Z" fill="white"/>
<path d="M631.67 185.713C633.218 186.815 635.587 187.374 637.517 188.077C638.78 188.387 639.763 189.065 640.688 189.597C641.474 190.382 642.296 190.967 642.719 191.758C643.271 192.427 643.561 193.09 643.725 193.594C643.923 194.061 644.055 194.367 644.085 194.437L644.13 194.414C644.077 197.015 643.788 199.494 643.107 201.755C642.402 201.165 641.679 200.576 641.012 200.162C639.319 199.11 637.941 197.937 637.417 196.601C636.808 195.348 637.171 194.325 637.137 194.292C637.17 194.321 636.506 195.209 636.752 196.778C636.871 198.382 638.148 200.31 639.486 201.77C640.207 202.577 640.676 203.339 641.144 204.013C641.579 204.509 641.767 205.044 641.901 205.512C641.708 205.976 641.513 206.43 641.348 206.891C641.14 207.621 640.602 208.438 640.144 209.213C639.681 209.984 639.237 210.74 638.803 211.464L638.547 211.882L638.535 211.902L638.449 212.011L638.277 212.233L637.585 213.094C637.537 213.155 637.487 213.215 637.439 213.275C638.172 203.704 636.069 194.217 631.67 185.713Z" fill="white"/>
<path d="M614.688 157.097C612.649 158.174 611.117 159.604 609.612 159.655C608.14 159.82 607.313 158.953 607.256 158.948C607.285 158.899 607.823 160.052 609.577 160.343C611.362 160.732 613.563 159.567 615.481 159.166C617.388 158.762 619.321 158.986 620.626 159.485C621.936 159.935 624.133 160.83 624.293 160.834L624.292 160.821C625.851 161.69 627.355 162.648 628.764 163.711C628.399 163.759 628.022 163.809 627.651 163.859C626.391 164.223 625.122 164.658 624.065 165.291C622.051 166.541 620.112 167.266 618.485 166.631C616.953 166.089 616.265 165.023 616.201 165.031C616.268 165.01 616.629 166.214 618.184 167.244C618.96 167.714 620.095 168.173 621.319 168.065C622.578 168.068 623.778 167.633 624.917 167.33C627.093 166.647 629.109 166.821 630.565 167.344C631.3 167.541 632.816 167.897 633.192 168.166C633.371 168.267 633.915 168.577 634.48 168.899C636.143 170.687 637.621 172.595 638.994 174.768C637.186 174.701 635.286 174.9 633.459 174.953C632.241 174.868 630.898 174.991 629.778 174.738C628.636 174.533 627.644 174.047 626.85 173.551C626.487 173.255 626.144 172.975 625.85 172.733C625.566 172.469 625.44 172.149 625.269 171.922C624.972 171.46 624.794 171.188 624.781 171.167C624.79 171.191 624.91 171.492 625.105 172.005C625.245 172.602 625.709 173.287 626.404 174.079C627.132 174.794 628.125 175.566 629.352 176.071C630.558 176.619 631.921 176.782 633.302 177.161C635.974 177.628 638.659 177.879 640.202 178.64C640.631 178.837 640.989 179.043 641.281 179.236C642.436 182.032 643.303 185.012 643.776 187.89C643.27 187.58 642.728 187.28 642.199 186.962C640.828 186.473 639.414 185.963 638.029 185.918C635.283 185.54 632.79 185.607 631.237 184.413C631.059 184.29 630.895 184.159 630.745 184.028C623.808 171.685 611.976 161.603 596.985 156.669C585.808 152.99 574.341 152.664 563.876 155.139C561.844 151.209 559.825 147.34 557.811 143.768C558.211 144.178 558.66 144.579 559.166 144.939C560.369 145.765 561.792 146.422 563.244 146.938C566.165 147.937 569.077 148.589 570.915 149.629C571.803 150.111 573.571 150.645 575.196 151.088C578.041 152.309 581.166 153.131 584.352 153.613C589.624 154.48 594.998 154.44 600.408 154.718C603.136 154.957 605.881 155.198 608.64 155.441C610.705 155.813 612.968 156.233 615.099 156.904C614.963 156.967 614.822 157.029 614.688 157.097Z" fill="white"/>
<path d="M532.039 215.723C563.037 213.552 574.672 270.178 609.012 257.856C608.581 262.31 607.637 267.181 606.192 272.537C608.025 271.822 609.784 271.7 611.233 272.456C615.332 274.585 615.527 282.31 611.682 289.717C608.575 295.724 603.764 299.652 599.88 299.819C598.971 299.868 598.089 299.697 597.325 299.288C597.067 299.146 596.827 298.959 596.596 298.775C589.623 310.059 582.614 318.431 576.897 321.602C569.575 325.67 564.341 328.879 559.663 331.074C552.173 334.587 546.122 335.459 535.283 332.912C525.049 328.523 520.7 324.227 516.761 316.952C514.298 312.414 511.992 306.717 508.516 299.094C505.801 293.147 505.132 282.256 506.227 269.03C505.932 269.04 505.638 269.052 505.341 269.011C504.489 268.889 503.678 268.501 502.97 267.921C499.944 265.479 498.407 259.462 499.47 252.782C500.776 244.539 505.521 238.44 510.089 239.164C511.704 239.418 513.047 240.559 514.097 242.223C517.597 233.266 521.38 226.346 525.919 221.318C527.788 219.183 529.842 217.316 532.039 215.723Z" fill="white"/>
</svg>
