<svg width="351" height="284" viewBox="0 0 351 284" fill="none" xmlns="http://www.w3.org/2000/svg">
<path d="M17.9385 6.79492V25H14.041V17.5859H6.24609V25H2.33594V6.79492H6.24609V14.082H14.041V6.79492H17.9385ZM32.5122 17.332L30.3032 11.3525L28.0815 17.332H32.5122ZM33.8071 20.709H26.7866L25.2251 25H21.061L28.2212 6.79492H32.3725L39.5327 25H35.3686L33.8071 20.709ZM42.6552 25V6.79492H46.5654V21.4961H53.9668V6.79492H57.8642V21.4961H60.0732V28.7705H56.1757V25H42.6552ZM79.8393 25H75.9418V13.4346L66.9789 25H63.5893V6.79492H67.4995V18.373L76.4623 6.79492H79.8393V25ZM89.7284 11.6572C88.5943 12.8083 88.0273 14.2259 88.0273 15.9102C88.0273 17.5859 88.5943 18.9993 89.7284 20.1504C90.8626 21.3014 92.2421 21.877 93.8671 21.877C95.5006 21.877 96.8844 21.3014 98.0185 20.1504C99.1526 18.9993 99.7197 17.5859 99.7197 15.9102C99.7197 14.2259 99.1526 12.8083 98.0185 11.6572C96.8844 10.4977 95.5006 9.91797 93.8671 9.91797C92.2421 9.91797 90.8626 10.4977 89.7284 11.6572ZM86.8466 22.6133C84.9423 20.7513 83.9902 18.5127 83.9902 15.8975C83.9902 13.2822 84.9423 11.0479 86.8466 9.19434C88.7594 7.34082 91.0995 6.41406 93.8671 6.41406C96.6432 6.41406 98.9833 7.34082 100.888 9.19434C102.8 11.0479 103.757 13.2822 103.757 15.8975C103.757 18.5127 102.8 20.7513 100.888 22.6133C98.9833 24.4668 96.6432 25.3936 93.8671 25.3936C91.0995 25.3936 88.7594 24.4668 86.8466 22.6133ZM123.523 6.79492V25H119.625V17.5859H111.83V25H107.92V6.79492H111.83V14.082H119.625V6.79492H123.523ZM138.097 17.332L135.888 11.3525L133.666 17.332H138.097ZM139.391 20.709H132.371L130.809 25H126.645L133.806 6.79492H137.957L145.117 25H140.953L139.391 20.709ZM163.449 6.79492V25H159.551V10.3115H154.219V12.3936C154.219 14.958 154.075 17.112 153.787 18.8555C153.508 20.5905 153.089 21.9235 152.531 22.8545C151.98 23.7855 151.363 24.4414 150.677 24.8223C149.992 25.2031 149.179 25.3936 148.24 25.3936C147.859 25.3936 147.474 25.3512 147.084 25.2666C146.695 25.1904 146.407 25.1185 146.221 25.0508L145.904 24.9492V21.2295C146.335 21.3988 146.767 21.4876 147.199 21.4961C147.876 21.4961 148.422 21.293 148.836 20.8867C149.259 20.472 149.611 19.5791 149.89 18.208C150.178 16.8285 150.322 14.8988 150.322 12.4189V6.79492H163.449ZM176.308 25H168.64V6.79492H172.551V12.7744H176.308C178.179 12.7744 179.728 13.3626 180.955 14.5391C182.191 15.707 182.808 17.1585 182.808 18.8936C182.808 20.6286 182.191 22.0801 180.955 23.248C179.728 24.416 178.179 25 176.308 25ZM172.551 21.4961H176.181C176.96 21.4961 177.608 21.2464 178.124 20.7471C178.649 20.2393 178.911 19.6214 178.911 18.8936C178.911 18.1657 178.649 17.5521 178.124 17.0527C177.608 16.5449 176.96 16.291 176.181 16.291H172.551V21.4961ZM202.435 6.79492V25H198.537V17.5859H190.742V25H186.832V6.79492H190.742V14.082H198.537V6.79492H202.435ZM227.533 6.79492V25H223.636V6.79492H227.533ZM215.054 25H207.639V6.79492H211.55V12.7744H215.054C216.924 12.7744 218.473 13.3626 219.7 14.5391C220.936 15.707 221.554 17.1585 221.554 18.8936C221.554 20.6286 220.936 22.0801 219.7 23.248C218.473 24.416 216.924 25 215.054 25ZM211.55 21.4961H214.927C215.705 21.4961 216.353 21.2464 216.869 20.7471C217.394 20.2393 217.656 19.6214 217.656 18.8936C217.656 18.1657 217.394 17.5521 216.869 17.0527C216.353 16.5449 215.705 16.291 214.927 16.291H211.55V21.4961ZM239.682 1.80566C239.978 2.10189 240.351 2.25 240.799 2.25C241.248 2.25 241.62 2.10189 241.916 1.80566C242.213 1.50944 242.361 1.13704 242.361 0.688477H244.963C244.963 1.86491 244.578 2.83398 243.808 3.5957C243.038 4.34896 242.035 4.72559 240.799 4.72559C239.572 4.72559 238.573 4.34896 237.803 3.5957C237.033 2.83398 236.648 1.86491 236.648 0.688477H239.238C239.238 1.13704 239.386 1.50944 239.682 1.80566ZM248.988 25H245.09V13.4346L236.127 25H232.738V6.79492H236.648V18.373L245.611 6.79492H248.988V25ZM260.031 25V6.79492H263.942V21.4961H271.343V6.79492H275.24V21.4961H277.449V28.7705H273.552V25H260.031ZM284.876 21.4961H294.626V25H280.966V6.79492H294.359V10.3115H284.876V13.9551H292.277V17.459H284.876V21.4961ZM314.379 6.79492V25H310.482V17.5859H302.687V25H298.777V6.79492H302.687V14.082H310.482V6.79492H314.379ZM317.768 6.79492H332.063V10.3115H326.871V25H322.973V10.3115H317.768V6.79492ZM335.44 6.79492H343.108C344.978 6.79492 346.527 7.38314 347.754 8.55957C348.99 9.72754 349.608 11.179 349.608 12.9141C349.608 14.6406 348.994 16.0921 347.767 17.2686C346.54 18.4365 344.986 19.0205 343.108 19.0205H339.35V25H335.44V6.79492ZM342.981 10.3115H339.35V15.5039H342.981C343.759 15.5039 344.407 15.2542 344.923 14.7549C345.448 14.2555 345.71 13.6419 345.71 12.9141C345.71 12.1862 345.448 11.5726 344.923 11.0732C344.407 10.5654 343.759 10.3115 342.981 10.3115ZM7.66797 45.209L4.41797 49.7539L7.66797 54.3115H4.29102L1.04102 49.7539L4.29102 45.209H7.66797ZM13.2539 45.209L10.0039 49.7539L13.2539 54.3115H9.87695L6.62695 49.7539L9.87695 45.209H13.2539ZM17.1509 37.7949H24.8188C26.6893 37.7949 28.2381 38.3831 29.4653 39.5596C30.701 40.7275 31.3188 42.179 31.3188 43.9141C31.3188 45.6406 30.7052 47.0921 29.478 48.2686C28.2508 49.4365 26.6977 50.0205 24.8188 50.0205H21.061V56H17.1509V37.7949ZM24.6919 41.3115H21.061V46.5039H24.6919C25.4705 46.5039 26.118 46.2542 26.6343 45.7549C27.159 45.2555 27.4214 44.6419 27.4214 43.9141C27.4214 43.1862 27.159 42.5726 26.6343 42.0732C26.118 41.5654 25.4705 41.3115 24.6919 41.3115ZM40.04 42.6572C38.9059 43.8083 38.3388 45.2259 38.3388 46.9102C38.3388 48.5859 38.9059 49.9993 40.04 51.1504C41.1741 52.3014 42.5537 52.877 44.1787 52.877C45.8121 52.877 47.1959 52.3014 48.33 51.1504C49.4642 49.9993 50.0312 48.5859 50.0312 46.9102C50.0312 45.2259 49.4642 43.8083 48.33 42.6572C47.1959 41.4977 45.8121 40.918 44.1787 40.918C42.5537 40.918 41.1741 41.4977 40.04 42.6572ZM37.1582 53.6133C35.2539 51.7513 34.3017 49.5127 34.3017 46.8975C34.3017 44.2822 35.2539 42.0479 37.1582 40.1943C39.0709 38.3408 41.4111 37.4141 44.1787 37.4141C46.9547 37.4141 49.2949 38.3408 51.1992 40.1943C53.1119 42.0479 54.0683 44.2822 54.0683 46.8975C54.0683 49.5127 53.1119 51.7513 51.1992 53.6133C49.2949 55.4668 46.9547 56.3936 44.1787 56.3936C41.4111 56.3936 39.0709 55.4668 37.1582 53.6133ZM67.0805 37.4141C68.0369 37.4141 68.9467 37.541 69.81 37.7949C70.6733 38.0404 71.38 38.3408 71.9301 38.6963C72.4887 39.0518 72.9796 39.4072 73.4028 39.7627C73.8344 40.1182 74.1433 40.4186 74.3295 40.6641L74.6215 41.0449L72.1459 43.5205C72.0952 43.4528 72.0232 43.3597 71.9301 43.2412C71.8455 43.1143 71.6466 42.9027 71.3334 42.6064C71.0288 42.3102 70.6944 42.0521 70.3305 41.832C69.9666 41.6035 69.4884 41.3962 68.8959 41.21C68.3035 41.0153 67.6983 40.918 67.0805 40.918C65.3793 40.918 63.9575 41.4893 62.8149 42.6318C61.6723 43.7744 61.101 45.1963 61.101 46.8975C61.101 48.5986 61.6723 50.0205 62.8149 51.1631C63.9575 52.3057 65.3793 52.877 67.0805 52.877C67.7407 52.877 68.3712 52.7881 68.9721 52.6104C69.5815 52.4242 70.0851 52.2083 70.4829 51.9629C70.8806 51.709 71.2319 51.4551 71.5366 51.2012C71.8413 50.9473 72.0613 50.7272 72.1967 50.541L72.3998 50.2744L74.7485 52.75C74.6808 52.8516 74.575 52.987 74.4311 53.1562C74.2957 53.3171 73.9868 53.609 73.5043 54.0322C73.0304 54.4469 72.5183 54.8151 71.9682 55.1367C71.4265 55.4499 70.7114 55.7376 69.8227 56C68.9425 56.2624 68.0284 56.3936 67.0805 56.3936C64.3045 56.3936 61.9601 55.4668 60.0473 53.6133C58.143 51.7513 57.1909 49.5127 57.1909 46.8975C57.1909 44.2822 58.143 42.0479 60.0473 40.1943C61.9601 38.3408 64.3045 37.4141 67.0805 37.4141ZM86.6943 37.4141C87.6506 37.4141 88.5605 37.541 89.4238 37.7949C90.287 38.0404 90.9937 38.3408 91.5439 38.6963C92.1025 39.0518 92.5933 39.4072 93.0165 39.7627C93.4482 40.1182 93.7571 40.4186 93.9433 40.6641L94.2353 41.0449L91.7597 43.5205C91.7089 43.4528 91.637 43.3597 91.5439 43.2412C91.4592 43.1143 91.2603 42.9027 90.9472 42.6064C90.6425 42.3102 90.3082 42.0521 89.9443 41.832C89.5803 41.6035 89.1021 41.3962 88.5097 41.21C87.9172 41.0153 87.3121 40.918 86.6943 40.918C84.9931 40.918 83.5712 41.4893 82.4286 42.6318C81.2861 43.7744 80.7148 45.1963 80.7148 46.8975C80.7148 48.5986 81.2861 50.0205 82.4286 51.1631C83.5712 52.3057 84.9931 52.877 86.6943 52.877C87.3544 52.877 87.9849 52.7881 88.5859 52.6104C89.1952 52.4242 89.6988 52.2083 90.0966 51.9629C90.4944 51.709 90.8456 51.4551 91.1503 51.2012C91.455 50.9473 91.6751 50.7272 91.8105 50.541L92.0136 50.2744L94.3622 52.75C94.2945 52.8516 94.1887 52.987 94.0448 53.1562C93.9094 53.3171 93.6005 53.609 93.1181 54.0322C92.6441 54.4469 92.1321 54.8151 91.582 55.1367C91.0403 55.4499 90.3251 55.7376 89.4364 56C88.5562 56.2624 87.6422 56.3936 86.6943 56.3936C83.9182 56.3936 81.5738 55.4668 79.6611 53.6133C77.7568 51.7513 76.8046 49.5127 76.8046 46.8975C76.8046 44.2822 77.7568 42.0479 79.6611 40.1943C81.5738 38.3408 83.9182 37.4141 86.6943 37.4141ZM114.243 56H110.345V44.4346L101.382 56H97.9926V37.7949H101.903V49.373L110.866 37.7949H114.243V56ZM132.955 37.7949V56H129.058V49.627H125.681L122.164 56H118.013L121.91 49.1064C121.825 49.0726 121.707 49.0176 121.555 48.9414C121.411 48.8652 121.153 48.6706 120.78 48.3574C120.408 48.0443 120.078 47.7057 119.79 47.3418C119.502 46.9779 119.24 46.4743 119.003 45.8311C118.774 45.1878 118.66 44.5023 118.66 43.7744C118.66 42.0902 119.248 40.6725 120.425 39.5215C121.601 38.3704 123.091 37.7949 124.893 37.7949H132.955ZM122.558 43.7744C122.558 44.4346 122.79 44.9932 123.256 45.4502C123.73 45.8988 124.322 46.123 125.033 46.123H129.058V41.3115H125.033C124.322 41.3115 123.73 41.5443 123.256 42.0098C122.79 42.4753 122.558 43.0635 122.558 43.7744ZM145.701 49.7539L142.451 45.209H145.827L149.077 49.7539L145.827 54.3115H142.451L145.701 49.7539ZM140.115 49.7539L136.865 45.209H140.242L143.492 49.7539L140.242 54.3115H136.865L140.115 49.7539Z" fill="white"/>
<path d="M276.46 157.31C276.46 157.104 276.524 157.104 278.463 157.825C283.487 159.713 288.86 163.694 293.82 169.255C298.558 174.575 301.801 179.621 306.824 189.437C310.767 197.126 316.268 201.039 324.789 202.171C328.35 202.652 329.781 202.446 331.021 201.245C332.801 199.528 334.55 198.911 337.571 198.911C342.658 198.945 345.201 201.142 346.41 206.531C346.886 208.693 347.014 211.027 347.173 219.642C347.363 231.587 347.586 233.578 349.112 237.902C349.716 239.619 350.416 242.124 350.606 243.463C351.147 246.861 351.115 257.982 350.606 261.002C349.557 266.94 347.554 271.677 344.852 274.526C342.244 277.34 340.559 278.13 336.998 278.267C334.423 278.37 333.85 278.301 332.07 277.478C328.127 275.693 325.743 275.247 319.702 275.144L314.137 275.075L313.946 283.141H307.301V274.869L302.055 275.075L301.864 282.832L296.014 282.626L295.823 274.869L291.245 275.075L291.054 282.798H284.377L284.568 268.553L285.649 266.151C287.08 262.959 289.401 260.419 292.358 258.668C294.074 257.673 295.537 256.403 297.636 254.137C301.228 250.19 302.469 249.435 305.934 249.229C311.021 248.92 313.597 249.984 318.748 254.55C321.45 256.952 324.312 257.33 326.092 255.476C327.873 253.623 328.509 249.641 328.572 239.962C328.636 230.969 328 228.292 325.584 227.056C324.948 226.713 322.976 226.164 321.196 225.82C319.415 225.477 316.872 224.722 315.536 224.173C312.134 222.697 308.637 221.976 304.758 221.976C299.925 221.942 298.971 222.182 281.388 227.846C274.425 230.077 269.942 231.003 264.855 231.175L260.403 231.347L261.612 230.557C266.476 227.434 268.988 225.34 272.676 221.358C279.926 213.533 284.25 204.849 285.871 194.792C286.507 190.913 286.317 181.646 285.522 177.87C284.25 171.623 281.643 165.239 278.368 160.331C277.319 158.752 276.46 157.414 276.46 157.31Z" fill="white"/>
<path fill-rule="evenodd" clip-rule="evenodd" d="M151.568 77.8167C156.051 75.8603 161.615 78.3314 163.142 82.9308C164.668 87.5645 162.283 96.5917 157.228 105.516C156.369 107.026 156.083 107.816 156.337 107.884C156.56 107.953 157.546 108.193 158.5 108.399C162.601 109.326 164.954 113.204 163.905 117.392C163.523 118.834 161.679 121.236 160.28 122.06C159.708 122.403 159.771 122.506 160.948 123.742C164.795 127.689 162.315 135.481 156.878 136.51C155.892 136.716 155.511 136.956 155.638 137.3C155.702 137.574 155.829 138.81 155.892 140.08C155.988 142.002 155.86 142.723 155.225 144.233C154.239 146.533 152.045 148.249 150.074 148.249C149.533 148.249 149.152 148.558 148.802 149.244C148.548 149.793 147.88 150.617 147.339 151.098L146.354 151.922L148.261 153.775C153.19 158.58 162.887 161.841 176.337 163.18L178.435 163.386L176.591 167.367C175.573 169.564 174.334 172.687 173.857 174.301C173.03 177.081 172.966 177.596 172.966 183.259C172.998 190.639 173.412 192.664 176.432 199.563C178.88 205.192 179.325 207.217 178.817 210.169C178.34 212.983 177.608 214.425 175.573 216.45C171.376 220.569 164.509 223.075 152.617 224.825C148.961 225.374 145.336 225.58 137.101 225.718L126.386 225.923L128.008 224.07C132.714 218.715 137.101 211.199 140.599 202.48C142.475 197.847 145.145 189.231 145.145 187.824C145.145 185.421 142.093 184.323 140.726 186.211C140.344 186.726 140.058 187.275 140.058 187.447C140.058 188.442 133.794 204.437 131.155 210.203C128.04 216.931 126.513 219.471 122.285 224.928C120.345 227.399 118.914 230.283 117.07 235.465C115.258 240.511 114.558 242.021 113.191 243.634C111.061 246.174 105.656 248.062 101.904 247.616C100.314 247.41 99.869 247.513 97.6116 248.646C96.2126 249.367 94.1458 250.362 93.0012 250.877C91.8565 251.426 89.5673 252.49 87.914 253.279C75.2913 259.286 61.2379 264.915 54.7516 266.528L52.2715 267.146L48.8377 266.219C46.9619 265.705 45.0225 265.293 44.5454 265.293C43.2418 265.293 41.2385 266.563 40.539 267.799C39.0128 270.579 38.2498 271.471 36.4692 272.364C34.5933 273.325 32.463 273.599 30.4599 273.119L29.4425 272.878L29.2517 282.626L23.0836 282.832L22.8926 274.045H17.4876L17.1694 282.626L11.3191 282.832L11.1284 274.045H6.35913L6.16841 282.832L0 282.626V269.927C0 255.923 0.0954223 255.133 2.03487 251.838C3.33847 249.641 4.92841 248.577 7.53562 248.165C10.1428 247.753 11.6371 247.067 15.2617 244.527C19.2043 241.712 21.3348 240.854 24.5779 240.648C28.0118 240.442 30.2375 241.026 37.5186 244.047C40.6662 245.351 43.9727 246.552 44.8313 246.724C47.0888 247.17 51.0315 246.586 53.0346 245.522C54.5298 244.698 86.958 221.394 87.8821 220.5C88.2318 220.123 87.9775 219.985 86.4513 219.642C81.4913 218.544 74.9414 216.725 71.0624 215.352C64.6717 213.121 64.8306 213.121 56.1188 212.606C49.1556 212.194 41.5246 211.404 34.8158 210.443C33.2261 210.203 32.8763 210.306 31.0004 211.302C28.2978 212.777 25.6907 213.464 22.7973 213.464C19.6496 213.464 18.1551 212.949 16.5654 211.267C12.4956 206.942 11.1601 197.606 11.9232 178.831C12.1458 173.442 12.432 163.145 12.5592 155.972L12.7818 142.929L13.8309 139.496C15.2299 135 15.1982 133.249 13.7357 129.371C13.1316 127.758 12.432 125.492 12.2094 124.291L11.7961 122.163H4.29236V114.303L13.354 114.097L13.545 108.433H4.29236V101.569H13.8309V96.7633H4.29236V88.8687H7.59919C13.7674 88.8688 20.8895 90.2418 24.3234 92.1296C25.1819 92.6101 26.5174 93.8115 27.3759 94.8756C28.2026 95.9396 29.5379 97.3126 30.3327 97.8961C32.463 99.475 35.7698 103.216 37.0416 105.516C38.8857 108.88 39.5533 111.522 39.5851 115.504C39.5851 121.511 37.582 127.552 33.7984 132.975C32.2405 135.172 32.1133 135.48 32.1133 137.265C32.1133 140.148 33.7348 151.132 35.1656 157.963C36.5963 164.793 39.744 177.045 40.2211 177.561C40.5073 177.87 44.8951 176.394 46.1669 175.502C47.1842 174.815 47.3115 174.85 50.4273 176.566C53.4161 178.179 56.9454 180.616 59.2983 182.71C61.6511 184.838 66.5477 190.124 68.4554 192.698C69.441 194.002 70.4265 195.272 70.5855 195.478C70.7763 195.684 71.5713 196.92 72.3344 198.224L73.7652 200.558L74.0512 199.048C74.2419 198.087 74.2419 196.474 73.9876 194.449C73.2881 188.511 70.9035 184.804 64.1311 179.175C59.5526 175.365 59.0122 174.815 57.6132 172.859C56.1824 170.834 55.2285 168.054 54.8152 164.759C54.4972 161.979 54.7515 156.041 55.1966 156.212C55.3556 156.281 56.1505 157.242 56.9772 158.374C58.8849 160.914 62.0327 163.797 65.9753 166.612C70.5856 169.873 73.5109 173.374 75.5458 178.007C75.9591 179.003 76.4042 179.792 76.4996 179.827C76.9129 179.826 77.1035 175.673 76.7856 173.442C76.3086 170.079 74.9415 167.298 72.5887 164.793C70.6174 162.733 70.1405 162.322 65.1805 158.374C60.443 154.599 58.2173 151.647 57.0727 147.597C55.8644 143.478 56.4367 138.192 58.6306 132.975C59.1711 131.705 59.6797 130.71 59.7433 130.778C59.8069 130.847 60.3157 132.391 60.8562 134.176C62.6685 139.977 65.244 143.821 69.9178 147.665C73.002 150.171 76.404 153.878 77.803 156.178C78.3435 157.104 78.9158 157.859 79.0431 157.859C79.4246 157.859 79.6472 156.418 79.6472 153.981C79.6471 151.201 78.8205 148.455 77.2625 146.018C76.1179 144.233 75.6728 143.718 70.84 138.226C64.1949 130.641 62.4142 125.87 63.9085 119.589C64.4808 117.323 65.9434 113.994 67.1834 112.243L68.0101 111.042L68.5506 114.989C69.5999 122.506 71.444 126.453 77.1354 133.249L79.4564 135.995L79.9969 133.798C80.2831 132.597 80.6329 131.259 80.7601 130.881C80.9508 130.263 80.7918 130.057 79.9017 129.749C77.6442 128.959 75.8635 125.767 75.8317 122.575C75.8317 120.309 76.5313 118.628 77.9621 117.461L79.0431 116.568L78.3118 116.053C77.8985 115.779 77.199 115.023 76.7539 114.337C76.0862 113.273 75.9908 112.724 75.9908 110.15C75.9908 107.575 76.0862 107.026 76.7539 105.996C77.5488 104.726 79.3293 103.285 80.0924 103.285C81.078 103.285 80.8871 102.564 79.2974 100.024C78.4071 98.5825 77.1354 96.1454 76.4677 94.6008C73.3836 87.4958 73.6061 82.7591 77.1354 79.4641C78.8523 77.8852 80.5694 77.2675 83.1766 77.2332C84.9889 77.1989 85.5931 77.3705 87.5326 78.4002C90.2987 79.9104 93.1602 82.828 95.672 86.7065C96.6892 88.285 97.6111 89.5547 97.7069 89.5553C97.8341 89.5553 98.1522 89.1092 98.4383 88.56C99.6784 86.1917 104.002 84.8186 107.118 85.7796C108.835 86.2945 110.87 88.0794 111.443 89.5553L111.856 90.6195L112.428 89.2463C113.414 86.8437 116.53 85.2648 119.678 85.5051C122.475 85.7454 125.051 87.3586 125.75 89.418L126.132 90.4133L126.736 89.1091C127.404 87.7361 129.025 86.4318 130.965 85.7796C133.826 84.7842 138.246 86.1573 139.581 88.457C139.931 89.0404 140.313 89.521 140.408 89.5553C140.536 89.5548 141.108 88.7312 141.68 87.7704C144.287 83.3427 148.42 79.224 151.568 77.8167ZM126.641 128.925C124.86 128.684 112.969 128.684 111.188 128.925C109.249 129.199 109.567 129.886 113.509 133.936C117.261 137.78 117.261 137.78 117.038 139.05C116.466 142.311 113.287 144.817 109.344 145.091C106.355 145.297 104.289 144.576 101.427 142.38C98.1204 139.874 96.626 139.153 95.2906 139.531C92.8105 140.217 92.3654 142.929 94.3367 145.366C96.4034 147.906 100.378 149.279 105.719 149.279C110.966 149.279 114.686 147.974 117.674 145.057L119.296 143.478L120.504 144.817C123.143 147.734 127.277 149.279 132.586 149.279C139.995 149.279 145.145 146.464 145.209 142.414C145.241 139.428 142.538 138.501 139.677 140.526C138.882 141.075 137.451 142.105 136.529 142.791C134.112 144.508 132.268 145.16 129.82 145.16C125.973 145.16 122.984 143.341 121.808 140.286C121.521 139.565 121.299 138.707 121.299 138.295C121.299 137.677 123.302 135.412 127.467 131.327C129.057 129.783 128.866 129.199 126.641 128.925ZM99.4558 111.9C98.7881 111.9 97.1664 112.243 95.8627 112.655C93.4145 113.445 90.4259 115.023 89.7581 115.882C89.472 116.259 89.7582 116.705 90.9982 118.01C95.227 122.403 102.19 124.6 107.055 123.055C112.11 121.476 111.824 115.401 106.578 112.964C105.147 112.312 104.956 112.484 105.847 113.616C107.468 115.71 106.737 119.348 104.447 120.618C101.427 122.3 98.0886 120 98.0886 116.225C98.0886 114.783 98.2475 114.44 99.3603 113.239L100.632 111.866L99.4558 111.9ZM138.055 112.861C140.058 115.023 140.09 117.907 138.151 119.932C136.911 121.236 134.367 121.511 132.872 120.515C130.806 119.108 130.297 115.71 131.823 113.479L132.523 112.449L131.601 112.69C130.265 113.033 128.262 114.612 127.563 115.882C126.227 118.387 127.181 121.511 129.629 122.712C131.664 123.707 136.942 123.639 139.772 122.575C143.301 121.27 148.007 117.77 148.007 116.431C148.007 115.916 144.51 113.788 142.22 112.93C141.266 112.586 139.74 112.175 138.786 112.037L137.07 111.797L138.055 112.861Z" fill="white"/>
<path d="M245.142 152.574C245.682 152.505 248.734 152.471 251.978 152.539C257.097 152.608 258.273 152.745 261.007 153.535C272.104 156.658 278.558 164.656 280.784 178.111C281.515 182.435 281.515 191.84 280.816 196.13C279.417 204.505 276.269 210.958 270.578 217.068C264.569 223.589 257.764 227.743 248.798 230.42C246.668 231.072 245.778 231.724 245.11 233.097C244.379 234.642 244.696 236.907 246.159 239.859C247.24 242.09 247.335 242.605 247.335 244.801C247.272 249.607 244.887 253.108 240.595 254.721C238.687 255.407 237.86 255.51 232.9 255.545C229.848 255.545 226.764 255.716 226.064 255.922C225.365 256.128 223.235 256.746 221.295 257.33C215.763 259.012 207.719 260.659 194.269 262.89C188.324 263.885 188.228 263.92 187.37 265.018C186.893 265.602 186.32 266.666 186.129 267.318C185.525 269.343 183.681 272.398 182.25 273.702C181.519 274.388 180.025 275.418 178.944 275.968C177.259 276.894 176.75 276.997 174.969 276.894C173.888 276.826 171.567 276.345 169.819 275.83C167.211 275.075 166.035 274.903 162.824 274.903C157.164 274.903 157.546 274.595 157.546 279.091V282.832L152.299 282.626L152.109 274.217H148.325V282.832L143.397 282.626L143.206 274.217H138.818L138.628 282.626H131.632L131.664 277.306C131.696 271.402 132.173 268.588 133.604 265.396C134.685 263.062 136.052 261.757 139.549 259.835C142.983 257.948 144.987 256.025 146.862 252.799C149.152 248.818 151.25 247.513 156.624 246.758C160.948 246.14 163.936 246.93 166.925 249.504C168.928 251.254 169.914 251.666 172.013 251.666C174.365 251.666 175.446 251.289 179.802 249.092C184.603 246.621 186.766 245.728 195.096 242.776C203.744 239.722 206.161 238.349 208.386 235.294C209.785 233.372 209.817 233.269 209.785 231.038C209.753 229.184 209.499 228.017 208.418 225.134C205.843 218.201 204.285 209.585 204.698 204.368C205.143 198.808 207.782 191.634 210.866 187.55C214.205 183.156 219.165 179.895 224.125 178.866C227.018 178.282 227.813 177.733 227.813 176.394C227.813 174.747 226.859 174.198 224.475 174.472C218.243 175.159 212.329 178.866 207.973 184.769C206.161 187.24 203.363 192.767 202.663 195.238C202.441 196.027 202.154 196.645 202.027 196.645C201.487 196.645 199.134 193.316 198.117 191.119C196.654 187.996 196.241 185.524 196.4 181.543C196.654 176.36 198.816 170.285 202.472 164.621L203.744 162.665H206.002C209.022 162.665 213.569 161.498 222.853 158.409C233.791 154.702 237.606 153.741 245.142 152.574Z" fill="white"/>
<path d="M175.033 91.8551C178.403 88.5943 181.933 87.4272 184.667 88.6629C186.988 89.6926 189.341 93.5025 189.341 96.2484C189.309 99.2689 187.052 102.289 182.918 104.829C180.852 106.099 180.597 106.374 180.661 107.198C180.82 109.429 181.996 109.6 186.161 108.09C189.691 106.82 193.379 104.829 198.879 101.225C213.251 91.7519 217.766 89.4523 223.712 88.5256C231.374 87.3929 239.8 91.8206 243.011 98.7196C245.205 103.422 245.173 108.159 242.884 114.646C241.898 117.529 238.846 123.055 236.716 125.87C235.826 127.071 235.126 128.135 235.222 128.204C235.285 128.272 235.985 128.101 236.748 127.826C239.291 126.831 248.544 124.257 253.249 123.193C265.586 120.447 275.951 119.383 283.805 120.069C289.369 120.55 291.594 120.996 296.046 122.541C307.397 126.453 316.013 134.382 319.638 144.233C320.973 147.837 321.387 150.72 321.228 154.908C320.942 161.017 318.652 165.274 314.36 167.539C312.42 168.569 312.007 168.671 309.209 168.671C305.712 168.671 304.122 168.225 302.023 166.681C298.43 164.003 297.35 158.271 299.766 154.427C300.752 152.814 302.214 151.99 304.408 151.784C306.634 151.544 308.669 152.436 310.036 154.187C310.831 155.182 310.894 155.217 311.689 154.736C312.134 154.496 312.643 153.981 312.834 153.638C313.12 153.089 312.993 152.814 311.912 151.784C310.322 150.274 307.46 148.558 304.599 147.356C302.659 146.533 301.896 146.43 298.717 146.395C294.774 146.361 293.725 146.567 287.429 148.626C279.544 151.166 277.159 151.716 272.899 151.922C268.098 152.162 265.268 151.75 260.594 150.102C255.03 148.146 251.024 145.194 249.879 142.242C249.339 140.835 249.307 137.986 249.816 136.75C250.006 136.27 250.102 135.824 250.006 135.721C249.91 135.618 248.003 135.927 245.746 136.407C229.689 139.84 217.798 145.675 206.733 155.525C193.665 167.196 189.277 180.17 194.206 192.801C195.382 195.787 197.385 199.151 199.356 201.451L200.692 203.029L200.883 207.629C201.073 212.606 201.678 217.308 202.663 221.29C203.076 223.04 203.14 223.761 202.886 223.761C202.186 223.761 197.576 221.05 194.651 218.887C191.026 216.244 185.843 210.718 183.713 207.286C178.912 199.528 177.036 192.389 177.354 182.916C177.767 170.697 182.378 160.262 192.044 149.759C199.166 142.002 205.652 137.128 216.494 131.327C227.463 125.492 231.661 120.79 231.629 114.337C231.597 112.037 230.579 108.468 229.88 108.193C229.721 108.159 229.339 109.36 229.053 110.939C227.559 119.314 222.058 125.321 212.965 128.513C209.308 129.817 205.302 130.401 200.119 130.401C190.931 130.401 183.204 128.032 177.068 123.33C171.981 119.451 169.246 113.513 169.278 106.374C169.278 100.642 171.313 95.459 175.033 91.8551Z" fill="white"/>
</svg>
