<svg width="406" height="528" viewBox="0 0 406 528" fill="none" xmlns="http://www.w3.org/2000/svg">
<path d="M206.218 153.217L66.5047 153.211C56.547 153.211 47.8306 159.899 45.2534 169.517L0.365611 337.041C0.365611 337.041 36.9273 373.651 67.332 379.332C100.206 385.474 150.78 360.113 150.78 360.113L206.218 153.217Z" fill="white"/>
<path d="M273.329 171.199L394.327 241.051C402.95 246.029 407.155 256.179 404.578 265.798L359.69 433.321C359.69 433.321 309.722 446.746 280.55 436.463C249.009 425.346 217.891 378.096 217.891 378.096L273.329 171.199Z" fill="white"/>
<path d="M202.228 380.627L205.803 386.055L217.891 378.096C205.802 386.055 205.804 386.057 205.806 386.06C205.806 386.06 205.809 386.063 205.81 386.065C205.813 386.07 205.816 386.075 205.82 386.08C205.828 386.092 205.837 386.106 205.848 386.123C205.871 386.157 205.901 386.203 205.939 386.26C206.014 386.373 206.12 386.53 206.254 386.729C206.523 387.127 206.908 387.692 207.402 388.403C208.389 389.823 209.814 391.833 211.616 394.266C215.21 399.118 220.356 405.721 226.569 412.719C238.486 426.141 256.234 443.238 275.739 450.113C293.754 456.462 316.473 455.212 332.904 453.103C333.953 452.969 334.988 452.828 336.005 452.684C294.795 484.379 208.057 542.148 142.664 524.626C77.2717 507.105 31.0379 413.705 11.1967 365.652C12.0062 366.285 12.8318 366.924 13.6736 367.566C26.8485 377.607 45.8988 390.05 64.6747 393.558C85.0044 397.357 108.922 391.424 125.954 385.759C134.834 382.805 142.592 379.66 148.131 377.255C150.908 376.05 153.147 375.021 154.712 374.284C155.495 373.916 156.11 373.619 156.542 373.409C156.758 373.304 156.928 373.221 157.05 373.16C157.111 373.13 157.16 373.105 157.197 373.087C157.215 373.078 157.23 373.07 157.243 373.064C157.249 373.061 157.254 373.058 157.259 373.056C157.261 373.055 157.265 373.053 157.265 373.053C157.268 373.052 157.27 373.05 150.78 360.113L157.27 373.05L163.08 370.137L220.2 156.963L259.348 167.453L202.228 380.627Z" fill="white"/>
<path d="M244.83 23.0957C249.278 6.49632 266.342 -3.35399 282.943 1.09444C299.545 5.54288 309.398 22.6055 304.95 39.205L273.673 155.934L213.552 139.824L244.83 23.0957Z" fill="white"/>
</svg>
