<svg width="438" height="878" viewBox="0 0 438 878" fill="none" xmlns="http://www.w3.org/2000/svg">
<path d="M158.46 418.334C158.46 411.707 153.087 406.334 146.46 406.334C139.833 406.334 134.46 411.707 134.46 418.334H146.46H158.46ZM215.237 485.379L214.761 473.388C205.279 473.765 190.816 471.339 179.099 463.251C168.065 455.634 158.46 442.37 158.46 418.334H146.46H134.46C134.46 450.111 147.822 470.823 165.465 483.002C182.426 494.71 202.352 497.9 215.713 497.369L215.237 485.379Z" fill="white"/>
<path d="M93.6416 418.334C93.6416 411.707 88.269 406.334 81.6416 406.334C75.0142 406.334 69.6416 411.707 69.6416 418.334H81.6416H93.6416ZM215.237 545.497V533.497C171.71 533.497 141.644 517.075 122.315 494.95C102.718 472.519 93.6416 443.609 93.6416 418.334H81.6416H69.6416C69.6416 448.872 80.4807 483.544 104.241 510.74C128.268 538.243 164.999 557.497 215.237 557.497V545.497Z" fill="white"/>
<path d="M336.832 418.334C336.832 411.707 342.204 406.334 348.832 406.334C355.459 406.334 360.832 411.707 360.832 418.334H348.832H336.832ZM215.237 545.497V533.497C258.763 533.497 288.829 517.075 308.159 494.95C327.755 472.519 336.832 443.609 336.832 418.334H348.832H360.832C360.832 448.872 349.993 483.544 326.233 510.74C302.206 538.243 265.474 557.497 215.237 557.497V545.497Z" fill="white"/>
<path d="M81.6416 418.334C81.6416 458.472 102.242 506.646 148.687 530.538" stroke="white" stroke-width="30" stroke-linecap="round" stroke-dasharray="25 25"/>
<path d="M348.832 418.334C348.832 458.472 328.232 506.646 281.787 530.538" stroke="white" stroke-width="30" stroke-linecap="round" stroke-dasharray="25 25"/>
<path d="M29.3179 418.334C29.3179 411.707 23.9453 406.334 17.3179 406.334C10.6905 406.334 5.31787 411.707 5.31787 418.334H17.3179H29.3179ZM215.237 611.552V599.552C170.696 599.552 124.074 585.477 88.809 556.017C53.8612 526.823 29.3179 481.931 29.3179 418.334H17.3179H5.31787C5.31787 488.827 32.8519 540.544 73.4224 574.436C113.675 608.063 166.013 623.552 215.237 623.552V611.552Z" fill="white"/>
<path d="M401.155 418.334C401.155 411.707 406.528 406.334 413.155 406.334C419.783 406.334 425.155 411.707 425.155 418.334H413.155H401.155ZM215.237 611.552V599.552C259.777 599.552 306.399 585.477 341.664 556.017C376.612 526.823 401.155 481.931 401.155 418.334H413.155H425.155C425.155 488.827 397.621 540.544 357.051 574.436C316.798 608.063 264.46 623.552 215.237 623.552V611.552Z" fill="white"/>
<path d="M17.3179 418.334C17.3179 515.741 72.2803 573.59 138.296 597.952" stroke="white" stroke-width="30" stroke-linecap="round" stroke-dasharray="25 25"/>
<path d="M413.155 418.334C413.155 515.741 358.193 573.59 292.178 597.952" stroke="white" stroke-width="30" stroke-linecap="round" stroke-dasharray="25 25"/>
<path d="M271.766 418.334C271.766 411.707 277.138 406.334 283.766 406.334C290.393 406.334 295.766 411.707 295.766 418.334H283.766H271.766ZM215.237 485.379L215.713 473.388C225.192 473.765 239.582 471.34 251.23 463.265C262.199 455.66 271.766 442.397 271.766 418.334H283.766H295.766C295.766 450.084 282.49 470.797 264.904 482.988C247.999 494.709 228.125 497.9 214.76 497.369L215.237 485.379Z" fill="white"/>
<path d="M146.46 418.334C146.46 448.861 160.127 466.323 176.249 475.73" stroke="white" stroke-width="30" stroke-linecap="round" stroke-dasharray="25 25"/>
<path d="M283.766 418.334C283.766 448.861 270.099 466.323 253.977 475.73" stroke="white" stroke-width="30" stroke-linecap="round" stroke-dasharray="25 25"/>
<path d="M155.628 402.023C154.263 405.026 151.269 406.954 147.971 406.954H143.959C140.661 406.954 137.667 405.026 136.302 402.023L129.401 386.841C128.904 385.748 128.647 384.561 128.647 383.361V363.412C128.647 358.766 132.413 355 137.059 355H154.871C159.517 355 163.283 358.766 163.283 363.412V383.361C163.283 384.561 163.026 385.748 162.529 386.841L155.628 402.023Z" fill="white"/>
<path d="M91.3047 402.023C89.9397 405.026 86.9456 406.954 83.6471 406.954H79.6358C76.3373 406.954 73.3431 405.026 71.9782 402.023L65.0775 386.841C64.5806 385.748 64.3236 384.561 64.3236 383.361V363.412C64.3236 358.766 68.0895 355 72.7351 355H90.5478C95.1933 355 98.9593 358.766 98.9593 363.412V383.361C98.9593 384.561 98.7022 385.748 98.2054 386.841L91.3047 402.023Z" fill="white"/>
<path d="M339.168 402.023C340.533 405.026 343.527 406.954 346.826 406.954H350.837C354.136 406.954 357.13 405.026 358.495 402.023L365.396 386.841C365.892 385.748 366.149 384.561 366.149 383.361V363.412C366.149 358.766 362.383 355 357.738 355H339.925C335.28 355 331.514 358.766 331.514 363.412V383.361C331.514 384.561 331.771 385.748 332.268 386.841L339.168 402.023Z" fill="white"/>
<path d="M26.9811 402.023C25.6162 405.026 22.6221 406.954 19.3235 406.954H15.3122C12.0137 406.954 9.01959 405.026 7.65465 402.023L0.753957 386.841C0.257081 385.748 0 384.561 0 383.361V363.412C0 358.766 3.76598 355 8.41154 355H26.2242C30.8698 355 34.6358 358.766 34.6358 363.412V383.361C34.6358 384.561 34.3787 385.748 33.8818 386.841L26.9811 402.023Z" fill="white"/>
<path d="M403.492 402.023C404.857 405.026 407.851 406.954 411.15 406.954H415.161C418.459 406.954 421.453 405.026 422.818 402.023L429.719 386.841C430.216 385.748 430.473 384.561 430.473 383.361V363.412C430.473 358.766 426.707 355 422.061 355H404.249C399.603 355 395.837 358.766 395.837 363.412V383.361C395.837 384.561 396.094 385.748 396.591 386.841L403.492 402.023Z" fill="white"/>
<path d="M274.597 402.023C275.962 405.026 278.956 406.954 282.255 406.954H286.266C289.565 406.954 292.559 405.026 293.924 402.023L300.825 386.841C301.321 385.748 301.579 384.561 301.579 383.361V363.412C301.579 358.766 297.813 355 293.167 355H275.354C270.709 355 266.943 358.766 266.943 363.412V383.361C266.943 384.561 267.2 385.748 267.697 386.841L274.597 402.023Z" fill="white"/>
<path d="M202.11 402.023C203.475 405.026 206.469 406.954 209.767 406.954H213.779C217.077 406.954 220.071 405.026 221.436 402.023L228.337 386.841C228.834 385.748 229.091 384.561 229.091 383.361V363.412C229.091 358.766 225.325 355 220.679 355H202.867C198.221 355 194.455 358.766 194.455 363.412V383.361C194.455 384.561 194.712 385.748 195.209 386.841L202.11 402.023Z" fill="white"/>
<path d="M84.6358 849C85.5254 847.072 87.4546 845.838 89.5776 845.838H335.949C338.071 845.838 340.001 847.072 340.89 849L350.71 870.276C352.375 873.883 349.74 878 345.768 878H79.7578C75.7857 878 73.1514 873.883 74.816 870.276L84.6358 849Z" fill="white"/>
<path d="M119.054 812.57C119.757 810.287 121.867 808.728 124.256 808.728H301.27C303.66 808.728 305.77 810.287 306.472 812.57L313.019 833.847C314.096 837.347 311.479 840.89 307.817 840.89H117.709C114.048 840.89 111.43 837.347 112.507 833.847L119.054 812.57Z" fill="white"/>
<path d="M158.335 797.843C158.335 794.837 160.772 792.4 163.778 792.4H261.748C264.754 792.4 267.191 794.837 267.191 797.843V798.338C267.191 801.343 264.754 803.78 261.748 803.78H163.778C160.772 803.78 158.335 801.343 158.335 798.338V797.843Z" fill="white"/>
<path d="M163.283 776.072H262.243V783.988C262.243 785.901 260.692 787.452 258.779 787.452H166.747C164.834 787.452 163.283 785.901 163.283 783.988V776.072Z" fill="white"/>
<path d="M179.996 761.452C185.205 750.93 194.964 742.426 206.704 742.426H218.08C230.152 742.426 240.014 751.459 245.422 762.252C249.079 769.552 254.51 776.072 262.243 776.072C244.678 776.072 179.612 776.072 163.283 776.072C170.733 776.072 176.226 769.068 179.996 761.452Z" fill="white"/>
<path d="M220.926 680.576C225.592 680.576 229.623 683.834 230.602 688.396L234.583 706.951C234.877 708.319 234.877 709.734 234.583 711.103L230.602 729.658C229.623 734.219 225.592 737.478 220.926 737.478H202.621C197.955 737.478 193.924 734.219 192.945 729.658L188.963 711.103C188.67 709.734 188.67 708.319 188.963 706.951L192.945 688.396C193.924 683.834 197.955 680.576 202.621 680.576H220.926Z" fill="white"/>
<path d="M205.836 472.761H217.711V672.659H205.836V472.761Z" fill="white"/>
<path d="M205.236 417.669C205.577 414.391 208.339 411.901 211.634 411.901H211.913C215.208 411.901 217.97 414.391 218.311 417.669L237.755 604.702C238.149 608.497 235.172 611.799 231.357 611.799H192.19C188.375 611.799 185.398 608.497 185.792 604.702L205.236 417.669Z" fill="white"/>
<path d="M238.555 189.039L243.391 191.503L238.665 194.242L236.247 199.783L233.83 194.242L229.103 191.503L233.939 189.039L236.247 184.366L238.555 189.039Z" fill="white"/>
<path fill-rule="evenodd" clip-rule="evenodd" d="M309.499 0C313.096 0 316.449 1.93642 318.248 5.05218L343.437 48.6894H427.895L428.063 48.6908C428.456 48.6974 428.845 48.727 429.23 48.7786C429.34 48.7934 429.449 48.81 429.558 48.8283C429.885 48.8833 430.209 48.9543 430.527 49.0406C430.633 49.0694 430.738 49.0999 430.843 49.1321C431.787 49.4216 432.683 49.8474 433.501 50.3927C433.546 50.423 433.591 50.4537 433.636 50.4847C434.805 51.2915 435.808 52.3457 436.558 53.5965C436.587 53.6446 436.616 53.6929 436.644 53.7416C436.865 54.1249 437.06 54.5216 437.229 54.9287C437.46 55.4885 437.641 56.068 437.769 56.6594C437.792 56.7669 437.814 56.8749 437.833 56.9831C437.863 57.1456 437.889 57.3088 437.91 57.4726C437.954 57.8003 437.981 58.1305 437.992 58.4619C437.996 58.5724 437.997 58.6831 437.997 58.7939C437.997 58.9046 437.996 59.0152 437.992 59.1257C437.977 59.5677 437.934 60.0074 437.862 60.4418C437.853 60.4961 437.843 60.5504 437.833 60.6045C437.814 60.7128 437.792 60.8208 437.769 60.9283C437.641 61.5197 437.46 62.0991 437.229 62.6589C437.102 62.9642 436.961 63.2637 436.805 63.5561C436.753 63.6536 436.699 63.7502 436.644 63.8461L394.415 137H394.418L436.647 210.154C437.532 211.687 438 213.434 438 215.206C438 216.978 437.532 218.725 436.647 220.258C434.848 223.375 431.494 225.311 427.897 225.311H343.44L318.249 268.948C318.193 269.045 318.135 269.141 318.076 269.236C318.017 269.332 317.956 269.425 317.894 269.518C317.676 269.843 317.441 270.152 317.19 270.446C317.047 270.615 316.898 270.777 316.745 270.935C316.515 271.171 316.274 271.396 316.023 271.608C315.855 271.749 315.684 271.885 315.508 272.015C315.244 272.21 314.971 272.391 314.69 272.56C314.503 272.672 314.312 272.778 314.118 272.878C313.972 272.953 313.825 273.025 313.676 273.092C313.576 273.138 313.476 273.181 313.375 273.223C312.921 273.413 312.452 273.569 311.973 273.691C311.866 273.718 311.759 273.743 311.651 273.767C311.49 273.802 311.327 273.834 311.164 273.861C311.055 273.879 310.945 273.896 310.835 273.911C310.561 273.948 310.283 273.973 310.004 273.987C309.893 273.993 309.781 273.997 309.669 273.999C309.612 273.999 309.556 274 309.5 274C309.444 274 309.388 273.999 309.331 273.999C309.163 273.996 308.995 273.989 308.828 273.977C308.661 273.966 308.495 273.951 308.33 273.931C308.219 273.918 308.11 273.904 308 273.887C307.945 273.879 307.891 273.87 307.836 273.861C307.727 273.843 307.619 273.823 307.51 273.801C307.294 273.757 307.08 273.706 306.868 273.649C306.762 273.62 306.656 273.589 306.551 273.557C306.394 273.509 306.238 273.457 306.083 273.401C305.929 273.346 305.776 273.286 305.624 273.223C305.473 273.16 305.323 273.093 305.175 273.023C305.027 272.953 304.881 272.879 304.737 272.802C304.544 272.698 304.355 272.589 304.169 272.474C303.938 272.33 303.711 272.177 303.492 272.014C303.272 271.852 303.059 271.68 302.852 271.5C302.77 271.428 302.688 271.355 302.608 271.28C302.528 271.205 302.448 271.129 302.37 271.052C302.293 270.974 302.216 270.895 302.14 270.815C302.065 270.735 301.991 270.654 301.918 270.571C301.845 270.488 301.773 270.404 301.702 270.319C301.632 270.234 301.563 270.147 301.495 270.059C301.394 269.928 301.295 269.793 301.2 269.656C301.041 269.427 300.891 269.191 300.751 268.948L275.56 225.311H191.103C187.504 225.311 184.152 223.374 182.353 220.258C181.468 218.725 181 216.978 181 215.206C181 213.434 181.468 211.687 182.353 210.154L224.582 137L182.353 63.8461C182.326 63.7982 182.299 63.7501 182.272 63.7018C181.708 62.6868 181.324 61.5824 181.136 60.4418C181.118 60.3332 181.101 60.2243 181.087 60.1151C181.029 59.6782 181 59.2368 181 58.7939C181 57.1329 181.412 55.4935 182.192 54.0316C182.244 53.9341 182.298 53.8374 182.353 53.7416C183.112 52.4271 184.148 51.3225 185.362 50.4847C185.406 50.4537 185.452 50.423 185.497 50.3927C187.133 49.302 189.079 48.6894 191.103 48.6894H275.559L300.749 5.05218C302.549 1.93644 305.901 1.19296e-05 309.499 0ZM309.499 243.686L320.106 225.311H298.891L309.499 243.686ZM208.6 205.102H263.893L236.247 157.209L208.6 205.102ZM247.914 136.996L287.227 205.099H287.223L287.225 205.102H331.772L371.085 137L331.772 68.8984H287.225L247.914 136.996ZM355.106 205.102H410.396L382.751 157.211L355.106 205.102ZM236.247 116.791L236.25 116.788L236.25 116.789L263.895 68.8984H208.602L236.247 116.791ZM382.749 116.791V116.79L410.395 68.8969H355.103L382.749 116.791ZM298.891 48.6894H320.107L309.499 30.3133L298.891 48.6894Z" fill="white"/>
<path d="M372.248 24.1935L381.631 28.9735L372.46 34.2871L367.768 45.0413L363.077 34.2871L353.906 28.9735L363.29 24.1935L367.768 15.1241L372.248 24.1935Z" fill="white"/>
<path d="M350.954 12.0887L355.791 14.5521L351.065 17.2906L348.647 22.8318L346.23 17.2906L341.502 14.5521L346.339 12.0887L348.647 7.41496L350.954 12.0887Z" fill="white"/>
</svg>
