<svg width="293" height="657" viewBox="0 0 293 657" fill="none" xmlns="http://www.w3.org/2000/svg">
<path d="M205.005 312.208C189.294 307.566 167.77 311.454 152.822 316.455C144.97 319.081 144.648 320.998 138.67 316.923C133.133 313.104 128.21 300.77 124.493 295.048C115.043 280.507 105.644 265.988 96.1946 251.447C122.636 216.426 135.038 171.079 130.116 127.476C125.194 83.8726 102.996 42.4644 69.3949 14.1913C58.6805 5.17528 44.0505 -2.83033 31.317 2.93054C21.787 7.27538 16.9439 17.8606 13.9887 27.9251C4.70077 59.7757 6.74349 94.2174 15.7139 126.179C24.7213 158.126 40.3517 187.798 58.1171 215.828C59.7967 218.502 61.5854 221.348 61.7024 224.502C61.8317 227.907 59.9992 231.093 58.2429 234.037C32.5627 276.612 4.18975 320.489 1.1604 370.084C-0.654304 399.541 7.02139 429.49 22.7717 454.422C38.9872 480.111 64.5989 500.783 94.4304 506.633C113.967 510.47 134.222 507.928 153.652 503.701C178.291 498.388 202.765 490.239 223.351 475.709C231.371 488.545 239.025 501.651 246.176 514.996C251.84 525.506 257.591 536.239 262.423 547.243C263.969 550.78 265.064 554.364 266.447 557.922C268.581 565.496 268.537 573.831 266.963 581.524C266.288 584.944 265.258 588.33 263.957 591.566C259.956 601.355 253.507 610.005 246.029 617.434C240.713 622.742 234.483 627.127 227.609 630.183C224.161 631.737 220.568 632.92 216.854 633.682C216.543 633.76 216.218 633.801 215.907 633.879C226.894 620.991 230.807 602.748 224.237 585.849C214.7 561.317 187.115 549.176 162.583 558.714C138.051 568.251 125.91 595.836 135.448 620.368C138.343 627.816 143.024 633.931 148.64 638.829L148.352 638.856C149.457 639.834 150.601 640.583 151.752 641.459C152.184 641.802 152.617 642.146 153.035 642.453C190.598 670.167 240.834 648.29 240.834 648.29C247.175 646.166 253.253 642.268 258.628 638.429C270.643 629.833 280.561 618.256 286.364 604.653C289.129 598.161 290.968 591.26 291.908 584.24C292.695 578.474 293.076 572.652 292.239 566.878C291.091 558.877 287.611 551.571 284.025 544.433C275.696 527.835 265.845 512.042 255.86 496.344C253.474 492.622 251.14 488.922 248.754 485.2C244.514 478.572 240.274 471.945 236.071 465.303C235.853 464.962 235.635 464.62 235.431 464.315C235.431 464.315 273.317 435.253 267.675 394.404C267.675 394.404 261.738 329.099 204.968 312.222L205.005 312.208ZM24.8308 75.4546C33.1139 45.1889 74.8126 40.9648 88.8416 69.0403C88.8416 69.0403 110.377 108.744 90.1018 164.233C87.3359 174.565 79.5195 191.767 70.0106 210.65L57.57 191.598C56.6828 190.193 54.9478 186.389 54.0977 184.97C40.5624 161.566 26.0216 126.139 22.9825 111.409C18.964 91.8553 24.8308 75.4546 24.8308 75.4546ZM102.96 485.23C78.7712 476.887 56.912 459.833 46.5367 436.438C34.6075 409.593 38.899 378.277 47.7583 350.262C56.7473 321.812 70.1973 294.742 87.5194 270.39C98.2352 286.103 108.914 301.83 119.63 317.543C121.894 320.843 124.251 324.491 123.968 328.483C123.704 332.852 120.451 336.334 117.657 339.682C96.9816 364.186 92.0495 399.121 103.042 428.931C107.207 440.195 113.37 451.108 123.01 458.239C132.65 465.369 146.224 468.026 156.88 462.518C152.302 464.895 136.643 447.222 134.2 444.119C127.432 435.489 122.733 425.158 120.667 414.358C116.334 391.471 126.823 370.501 147.858 359.977C169.472 392.313 194.926 430.792 216.621 464.76C216.693 464.945 216.839 465.102 216.948 465.273C185.61 490.552 141.042 498.366 102.997 485.215L102.96 485.23ZM227.881 453.344L218.538 438.419C218.291 438.004 218.118 437.559 217.871 437.143L163.183 353.422C175.671 349.335 212.195 342.003 238.896 384.349C238.896 384.349 259.928 415.844 227.881 453.344Z" fill="white"/>
</svg>
