<svg width="416" height="719" viewBox="0 0 416 719" fill="none" xmlns="http://www.w3.org/2000/svg">
<path d="M405.042 56.7558L405.004 56.8831L272.465 45.3255C271.437 45.2426 270.467 45.8972 270.173 46.8903L223.514 204.431C215.716 197.191 201.52 193.873 186.327 196.824C165.232 200.907 150.332 215.493 153.011 229.36C155.715 243.233 174.965 251.178 196.068 247.07C213.666 243.668 227.678 233.111 230.912 221.91L272.171 82.6013C272.427 81.7355 273.265 81.1526 274.183 81.2308L392.281 91.6132C393.495 91.7234 394.308 92.9059 393.961 94.0772L359.549 210.265C351.751 203.026 337.555 199.708 322.362 202.658C301.267 206.741 286.367 221.328 289.046 235.194C291.75 249.068 311 257.013 332.103 252.905C349.701 249.503 362.959 238.778 365.317 227.262L365.419 227.292L414.868 60.3307C415.26 59.0066 414.358 57.6591 412.984 57.5291L405.017 56.7482L405.042 56.7558Z" fill="white"/>
<path d="M118.157 332.441C108.545 333.234 99.2857 328.908 91.6786 322.591C88.5232 319.953 85.6462 317.025 82.9715 313.856C81.7921 312.438 75.0954 302.054 74.0003 300.544C73.1191 299.317 72.2612 297.733 71.0844 296.769C68.8418 294.958 63.4186 296.485 61.7157 298.508C60.392 300.065 61.8309 302.344 62.8321 303.762C64.4061 305.918 71.4466 317.071 72.8856 319.35C75.7806 323.936 78.6502 328.538 81.5198 333.141C85.3056 339.138 89.0406 345.167 92.8264 351.164C97.1946 358.084 101.495 365.008 105.838 371.944C110.463 379.271 115.037 386.63 119.637 393.973C124.211 401.218 128.717 408.468 133.265 415.73C137.462 422.378 141.608 429.058 145.78 435.723C149.292 441.286 152.778 446.865 156.264 452.444C158.783 456.433 161.258 460.411 163.776 464.4C164.975 466.299 166.175 468.199 167.374 470.098L167.545 470.37C155.387 471.289 142.032 480.934 133.523 496.514C121.696 518.136 123.755 542.87 138.057 551.754C152.384 560.622 169.896 553.514 181.706 531.866C191.575 513.833 192.45 493.129 184.854 481.264L111.074 364.388C132.837 349.625 171.597 365.385 171.597 365.385C217.018 391.36 207.94 451.511 207.94 451.511C210.367 460.301 213.957 455.872 213.957 455.872C221.009 440.68 219.573 407.773 219.573 407.773C215.501 330.838 118.123 332.5 118.123 332.5L118.157 332.441Z" fill="white"/>
<path d="M296.917 690.842L321.532 566.813C321.641 566.265 321.275 565.718 320.727 565.609L316.289 564.729C315.741 564.62 315.194 564.986 315.085 565.534L292.471 679.481C286.56 674.929 276.435 673.527 266.018 676.566C251.553 680.776 242.089 691.92 244.853 701.429C247.635 710.941 261.587 715.247 276.056 711.019C288.123 707.51 295.363 698.867 296.899 690.838L296.917 690.842Z" fill="white"/>
</svg>
