<svg width="64" height="64" viewBox="0 0 64 64" fill="none" xmlns="http://www.w3.org/2000/svg">
<path fill-rule="evenodd" clip-rule="evenodd" d="M60.0809 3.91879C60.8619 4.69984 60.8619 5.96617 60.0809 6.74722L6.74755 60.0806C5.9665 60.8616 4.70017 60.8616 3.91912 60.0806C3.13807 59.2995 3.13807 58.0332 3.91912 57.2521L13.8432 47.328C11.4881 47.3027 9.69468 47.1621 8.06655 46.4088C6.21375 45.5516 4.43044 43.8737 3.46208 42.0764C2.4151 40.1333 2.29225 38.1012 2.11757 35.2117C2.11064 35.0971 2.10363 34.9812 2.09648 34.8638C2.03662 33.8818 2 32.9106 2 31.9998C2 31.0889 2.03662 30.1177 2.09648 29.1357C2.10363 29.0183 2.11064 28.9024 2.11757 28.7878C2.29225 25.8983 2.4151 23.8662 3.46208 21.9231C4.43044 20.1259 6.21375 18.4479 8.06655 17.5907C10.0709 16.6634 12.3257 16.6646 15.5708 16.6663C15.7121 16.6664 15.8552 16.6664 16.0002 16.6664C17.4309 16.6664 17.9188 16.66 18.3768 16.5827C18.8672 16.4999 19.3454 16.3564 19.8003 16.1556C20.2253 15.9681 20.6362 15.7048 21.8306 14.9173L22.542 14.4483C25.8243 12.284 28.4566 10.5484 30.6262 9.49448C32.8289 8.42443 34.9976 7.82928 37.1794 8.57383C37.9044 8.82124 38.6024 9.17641 39.2292 9.61689C40.9342 10.8152 41.7471 12.6433 42.2053 14.7457C42.4389 15.8183 42.5989 17.0539 42.7213 18.45L57.2525 3.91879C58.0335 3.13775 59.2998 3.13775 60.0809 3.91879ZM38.9611 22.2102C38.8074 19.2743 38.6372 17.1588 38.297 15.5973C37.9345 13.9339 37.4516 13.2566 36.9292 12.8895C36.6125 12.6669 36.2539 12.4845 35.8876 12.3595C35.2231 12.1327 34.2734 12.1697 32.374 13.0924C30.4693 14.0177 28.0557 15.604 24.6163 17.8718L24.0324 18.2568C23.988 18.2861 23.9442 18.315 23.9009 18.3435C22.8871 19.0123 22.1848 19.4755 21.4154 19.8151C20.6571 20.1497 19.8602 20.3888 19.0429 20.5268C18.2136 20.6669 17.3724 20.6667 16.1578 20.6664C16.106 20.6664 16.0534 20.6664 16.0002 20.6664C12.1504 20.6664 10.851 20.7098 9.74615 21.221C8.67852 21.7149 7.54145 22.7848 6.98346 23.8204C6.40139 24.9007 6.29454 26.0079 6.08907 29.379C6.03267 30.3043 6 31.1912 6 31.9998C6 32.8084 6.03267 33.6952 6.08907 34.6205C6.29454 37.9916 6.40139 39.0988 6.98346 40.1791C7.54145 41.2147 8.67852 42.2846 9.74615 42.7785C10.851 43.2897 12.1504 43.3331 16.0002 43.3331C16.0534 43.3331 16.106 43.3331 16.1578 43.3331C16.7971 43.3329 17.3329 43.3328 17.8181 43.3532L38.9611 22.2102ZM54.0386 16.8434C55.0454 16.3892 56.2299 16.8371 56.6841 17.8439C57.9296 20.6043 59.3333 25.2252 59.3333 31.9997C59.3333 37.8439 58.2886 42.0873 57.2 44.9176C56.6567 46.3304 56.105 47.3842 55.6733 48.1037C55.4576 48.4633 55.272 48.739 55.1327 48.934C55.063 49.0315 55.005 49.1089 54.9605 49.1664C54.9382 49.1952 54.9194 49.219 54.9042 49.2379L54.8841 49.2626L54.8762 49.2722L54.8728 49.2764C54.8721 49.2773 54.8698 49.28 53.3333 47.9997L54.8698 49.28C54.1627 50.1286 52.9015 50.2432 52.053 49.5361C51.2085 48.8324 51.0909 47.5799 51.7868 46.7315C51.7884 46.7295 51.7915 46.7255 51.796 46.7197C51.8102 46.7014 51.838 46.6647 51.8777 46.6091C51.9572 46.4979 52.0841 46.3111 52.2433 46.0457C52.5616 45.5152 53.01 44.669 53.4666 43.4817C54.3781 41.112 55.3333 37.3555 55.3333 31.9997C55.3333 25.7961 54.0517 21.7357 53.038 19.489C52.5838 18.4821 53.0317 17.2977 54.0386 16.8434ZM48.4373 24.7081C49.5189 24.4836 50.5776 25.1783 50.8021 26.2598C51.0958 27.6744 51.3333 29.5702 51.3333 31.9997C51.3333 34.96 50.9807 37.1273 50.604 38.5964C50.4158 39.3304 50.2223 39.8875 50.0653 40.28C49.9868 40.4761 49.9176 40.6307 49.863 40.7455C49.8357 40.8028 49.812 40.8502 49.7927 40.8877L49.767 40.9366L49.7568 40.9556L49.7523 40.9637L49.7503 40.9675C49.7498 40.9683 49.7483 40.9709 48.0736 40.0406L49.7483 40.971C49.2119 41.9365 47.9943 42.2844 47.0287 41.748C46.0713 41.2161 45.7212 40.0146 46.2382 39.053L46.2516 39.0257C46.2699 38.9874 46.3048 38.9108 46.3514 38.7944C46.4444 38.5618 46.5842 38.169 46.7293 37.6029C47.0193 36.4721 47.3333 34.6394 47.3333 31.9997C47.3333 29.8324 47.1216 28.2095 46.8857 27.0729C46.6611 25.9914 47.3558 24.9326 48.4373 24.7081ZM41.3333 29.9998C42.4379 29.9998 43.3333 30.8952 43.3333 31.9998C43.3333 33.4718 43.2366 36.067 43.0984 39.0403L43.0913 39.1936C42.9105 43.0867 42.7653 46.2119 42.3407 48.5702C41.909 50.9687 41.112 53.0594 39.2292 54.3826C38.6024 54.8231 37.9044 55.1783 37.1794 55.4257C35.2007 56.1009 33.2339 55.6726 31.2545 54.797C29.2999 53.9324 27.0072 52.4818 24.2371 50.6666C23.3133 50.0612 23.0551 48.8214 23.6605 47.8976C24.2659 46.9737 25.5057 46.7155 26.4295 47.3209C29.2529 49.1711 31.2704 50.4302 32.8726 51.1389C34.45 51.8366 35.2865 51.8452 35.8876 51.6401C36.2539 51.515 36.6125 51.3326 36.9292 51.11C37.5069 50.704 38.0337 49.9185 38.404 47.8615C38.776 45.7951 38.9131 42.9366 39.1027 38.8546C39.2415 35.8691 39.3333 33.3645 39.3333 31.9998C39.3333 30.8952 40.2288 29.9998 41.3333 29.9998Z" fill="white"/>
</svg>
