<svg width="64" height="64" viewBox="0 0 64 64" fill="none" xmlns="http://www.w3.org/2000/svg">
<path fill-rule="evenodd" clip-rule="evenodd" d="M60.0809 3.91977C60.8619 4.70082 60.8619 5.96715 60.0809 6.7482L6.74755 60.0815C5.9665 60.8626 4.70017 60.8626 3.91912 60.0815C3.13807 59.3005 3.13807 58.0342 3.91912 57.2531L13.8432 47.329C11.4881 47.3037 9.69468 47.1631 8.06655 46.4098C6.21375 45.5526 4.43044 43.8746 3.46208 42.0774C2.4151 40.1343 2.29225 38.1022 2.11757 35.2127C2.11064 35.0981 2.10363 34.9822 2.09648 34.8648C2.03662 33.8828 2 32.9116 2 32.0007C2 31.0899 2.03662 30.1187 2.09648 29.1367C2.10363 29.0193 2.11064 28.9034 2.11757 28.7888C2.29225 25.8993 2.4151 23.8672 3.46208 21.9241C4.43044 20.1268 6.21375 18.4489 8.06655 17.5917C10.0709 16.6644 12.3257 16.6655 15.5708 16.6673C15.7121 16.6673 15.8552 16.6674 16.0002 16.6674C17.4309 16.6674 17.9188 16.661 18.3768 16.5836C18.8672 16.5008 19.3454 16.3574 19.8003 16.1566C20.2253 15.9691 20.6362 15.7058 21.8306 14.9183L22.542 14.4492C25.8243 12.285 28.4566 10.5494 30.6262 9.49545C32.8289 8.42541 34.9976 7.83026 37.1794 8.5748C37.9044 8.82222 38.6024 9.17739 39.2292 9.61787C40.9342 10.8162 41.7471 12.6442 42.2053 14.7467C42.4389 15.8192 42.5989 17.0549 42.7213 18.451L57.2525 3.91977C58.0335 3.13872 59.2998 3.13872 60.0809 3.91977ZM38.9611 22.2111C38.8074 19.2752 38.6372 17.1598 38.297 15.5983C37.9345 13.9348 37.4516 13.2576 36.9292 12.8905C36.6125 12.6679 36.2539 12.4855 35.8876 12.3604C35.2231 12.1337 34.2734 12.1707 32.374 13.0934C30.4693 14.0186 28.0557 15.605 24.6163 17.8728L24.0324 18.2577C23.988 18.287 23.9442 18.3159 23.9009 18.3445C22.8871 19.0133 22.1848 19.4765 21.4154 19.8161C20.6571 20.1507 19.8602 20.3898 19.0429 20.5278C18.2136 20.6678 17.3724 20.6677 16.1578 20.6674C16.106 20.6674 16.0534 20.6674 16.0002 20.6674C12.1504 20.6674 10.851 20.7108 9.74615 21.222C8.67852 21.7159 7.54145 22.7858 6.98346 23.8214C6.40139 24.9017 6.29454 26.0089 6.08907 29.38C6.03267 30.3053 6 31.1921 6 32.0007C6 32.8093 6.03267 33.6962 6.08907 34.6215C6.29454 37.9926 6.40139 39.0998 6.98346 40.1801C7.54145 41.2157 8.67852 42.2855 9.74615 42.7795C10.851 43.2907 12.1504 43.3341 16.0002 43.3341C16.0534 43.3341 16.106 43.3341 16.1578 43.3341C16.7971 43.3339 17.3329 43.3338 17.8181 43.3542L38.9611 22.2111ZM54.0386 16.8444C55.0454 16.3901 56.2299 16.8381 56.6841 17.8449C57.9296 20.6053 59.3333 25.2262 59.3333 32.0007C59.3333 37.8448 58.2886 42.0883 57.2 44.9186C56.6567 46.3314 56.105 47.3851 55.6733 48.1046C55.4576 48.4642 55.272 48.74 55.1327 48.935C55.063 49.0325 55.005 49.1098 54.9605 49.1674C54.9382 49.1961 54.9194 49.22 54.9042 49.2389L54.8841 49.2636L54.8762 49.2732L54.8728 49.2774C54.8721 49.2783 54.8698 49.281 53.3333 48.0007L54.8698 49.281C54.1627 50.1296 52.9015 50.2442 52.053 49.5371C51.2085 48.8334 51.0909 47.5809 51.7868 46.7325C51.7884 46.7304 51.7915 46.7265 51.796 46.7207C51.8102 46.7024 51.838 46.6657 51.8777 46.61C51.9572 46.4988 52.0841 46.3121 52.2433 46.0467C52.5616 45.5162 53.01 44.6699 53.4666 43.4827C54.3781 41.113 55.3333 37.3565 55.3333 32.0007C55.3333 25.7971 54.0517 21.7366 53.038 19.49C52.5838 18.4831 53.0317 17.2987 54.0386 16.8444ZM48.4373 24.7091C49.5189 24.4845 50.5776 25.1793 50.8021 26.2608C51.0958 27.6754 51.3333 29.5712 51.3333 32.0007C51.3333 34.961 50.9807 37.1282 50.604 38.5974C50.4158 39.3313 50.2223 39.8885 50.0653 40.2809C49.9868 40.4771 49.9176 40.6317 49.863 40.7465C49.8357 40.8038 49.812 40.8512 49.7927 40.8887L49.767 40.9376L49.7568 40.9566L49.7523 40.9647L49.7503 40.9684C49.7498 40.9693 49.7483 40.9719 48.0736 40.0416L49.7483 40.9719C49.2119 41.9375 47.9943 42.2854 47.0287 41.749C46.0713 41.2171 45.7212 40.0156 46.2382 39.054L46.2516 39.0267C46.2699 38.9883 46.3048 38.9118 46.3514 38.7954C46.4444 38.5628 46.5842 38.17 46.7293 37.6039C47.0193 36.4731 47.3333 34.6403 47.3333 32.0007C47.3333 29.8334 47.1216 28.2105 46.8857 27.0739C46.6611 25.9924 47.3558 24.9336 48.4373 24.7091ZM41.3333 30.0007C42.4379 30.0007 43.3333 30.8962 43.3333 32.0007C43.3333 33.4727 43.2366 36.068 43.0984 39.0413L43.0913 39.1946C42.9105 43.0876 42.7653 46.2129 42.3407 48.5712C41.909 50.9697 41.112 53.0604 39.2292 54.3836C38.6024 54.8241 37.9044 55.1793 37.1794 55.4267C35.2007 56.1019 33.2339 55.6736 31.2545 54.798C29.2999 53.9334 27.0072 52.4828 24.2371 50.6676C23.3133 50.0622 23.0551 48.8224 23.6605 47.8985C24.2659 46.9747 25.5057 46.7165 26.4295 47.3219C29.2529 49.172 31.2704 50.4312 32.8726 51.1399C34.45 51.8376 35.2865 51.8461 35.8876 51.641C36.2539 51.516 36.6125 51.3335 36.9292 51.111C37.5069 50.705 38.0337 49.9194 38.404 47.8625C38.776 45.7961 38.9131 42.9376 39.1027 38.8556C39.2415 35.8701 39.3333 33.3655 39.3333 32.0007C39.3333 30.8962 40.2288 30.0007 41.3333 30.0007Z" fill="white"/>
</svg>
