<svg width="64" height="64" viewBox="0 0 64 64" fill="none" xmlns="http://www.w3.org/2000/svg">
<path d="M5.33398 16.0007C5.33398 10.9723 5.33398 8.45818 6.89608 6.89608C8.45818 5.33398 10.9723 5.33398 16.0007 5.33398C21.029 5.33398 23.5431 5.33398 25.1052 6.89608C26.6673 8.45818 26.6673 10.9723 26.6673 16.0007V48.0007C26.6673 53.029 26.6673 55.5431 25.1052 57.1052C23.5431 58.6673 21.029 58.6673 16.0007 58.6673C10.9723 58.6673 8.45818 58.6673 6.89608 57.1052C5.33398 55.5431 5.33398 53.029 5.33398 48.0007V16.0007Z" fill="white"/>
<path d="M37.334 16.0007C37.334 10.9723 37.334 8.45818 38.8961 6.89608C40.4582 5.33398 42.9723 5.33398 48.0007 5.33398C53.029 5.33398 55.5431 5.33398 57.1052 6.89608C58.6673 8.45818 58.6673 10.9723 58.6673 16.0007V48.0007C58.6673 53.029 58.6673 55.5431 57.1052 57.1052C55.5431 58.6673 53.029 58.6673 48.0007 58.6673C42.9723 58.6673 40.4582 58.6673 38.8961 57.1052C37.334 55.5431 37.334 53.029 37.334 48.0007V16.0007Z" fill="white"/>
</svg>
