<svg width="64" height="64" viewBox="0 0 64 64" fill="none" xmlns="http://www.w3.org/2000/svg">
<path d="M43.1009 18.2329C51.7003 24.0787 56 27.0017 56 32.0009C56 37.0001 51.7003 39.923 43.1009 45.7688C40.727 47.3826 38.3725 48.902 36.2089 50.1681C34.3108 51.2788 32.1611 52.4278 29.9355 53.5556C21.3562 57.9032 17.0666 60.0769 13.2193 57.6702C9.37201 55.2635 9.02235 50.2252 8.32305 40.1485C8.12529 37.2989 8 34.5053 8 32.0009C8 29.4965 8.12529 26.7029 8.32305 23.8532C9.02236 13.7766 9.37201 8.73826 13.2193 6.33153C17.0666 3.92479 21.3562 6.09857 29.9355 10.4461C32.1611 11.574 34.3108 12.7229 36.2089 13.8337C38.3725 15.0997 40.727 16.6191 43.1009 18.2329Z" fill="white"/>
</svg>
