<svg width="309" height="310" viewBox="0 0 309 310" fill="none" xmlns="http://www.w3.org/2000/svg">
<path d="M8 7C3.58172 7 0 10.5817 0 15C0 19.4183 3.58172 23 8 23V15V7ZM8.1 15V23H9.72304L11.2178 22.3675L8.1 15ZM67.8 13.2767L63.4901 20.0165L67.8 13.2767ZM77 19.1599L72.6901 25.8997L77 19.1599ZM86.2 18.9923L81.7201 12.3643L86.2 18.9923ZM95.4 12.7739L99.88 19.4018L95.4 12.7739ZM104.6 11.505L101.628 18.9326L104.6 11.505ZM113.8 15.1856L110.828 22.6133L113.8 15.1856ZM123 15.3148L120.211 7.81676L123 15.3148ZM141.4 12.82L145.381 5.88068L141.4 12.82ZM146 15.4588L142.019 22.3981L146 15.4588ZM150.6 18.0975L154.581 11.1582L150.6 18.0975ZM159.8 18.1493L155.878 11.1764L159.8 18.1493ZM164.4 15.5622L168.322 22.5351L164.4 15.5622ZM169 12.9752L165.078 6.0023L169 12.9752ZM187.4 8.80615L186.489 0.858201L187.4 8.80615ZM196.6 9.29723L194.871 17.1081L196.6 9.29723ZM201.2 10.3157L202.929 2.5048L201.2 10.3157ZM205.8 11.3341L204.071 19.1449L205.8 11.3341ZM219.6 11.2552L218.653 3.31155L219.6 11.2552ZM233.6 10.9344L232.323 18.8318L233.6 10.9344ZM251.246 17.2076L257.424 12.1246L251.246 17.2076ZM257.737 25.0954L251.559 30.1784L257.737 25.0954ZM266.464 29.6143L265.63 37.5707L266.464 29.6143ZM277.43 30.7644L276.595 38.7207L277.43 30.7644ZM283.451 36.639L275.492 37.4477L283.451 36.639ZM284.528 47.2383L292.487 46.4296L284.528 47.2383ZM289.241 56.1592L294.483 50.1158L289.241 56.1592ZM293.416 59.7806L298.658 53.7372L293.416 59.7806ZM297.592 63.402L292.35 69.4454L297.592 63.402ZM299.046 71.9338L306.044 75.8107L299.046 71.9338ZM293.605 81.7546L286.607 77.8776L293.605 81.7546ZM290.219 91.265L282.302 90.1201L290.219 91.265ZM289.554 95.865L297.472 97.0099L289.554 95.865ZM288.889 100.465L280.971 99.3201L288.889 100.465ZM288.068 109.665L280.072 109.394L288.068 109.665ZM287.756 118.865L295.751 119.136L287.756 118.865ZM290.807 128.065L284.245 132.641L290.807 128.065ZM297.222 137.265L303.784 132.689L297.222 137.265ZM299.045 146.465L306.705 148.771L299.045 146.465ZM297.66 151.065L290 148.759L297.66 151.065ZM296.276 155.665L288.615 153.359L296.276 155.665ZM294.14 164.865L286.245 163.576L294.14 164.865ZM292.638 174.065L300.533 175.354L292.638 174.065ZM293.453 183.265L285.88 185.844L293.453 183.265ZM296.586 192.465L289.012 195.044L296.586 192.465ZM298.937 201.665L306.823 200.319L298.937 201.665ZM299.722 206.265L291.836 207.611L299.722 206.265ZM300.507 210.865L308.393 209.519L300.507 210.865ZM298.228 220.065L291.57 215.63L298.228 220.065ZM292.1 229.265L298.758 233.7L292.1 229.265ZM288.705 238.465L280.726 237.891L288.705 238.465ZM288.374 243.065L296.353 243.639L288.374 243.065ZM288.043 247.665L280.064 247.091L288.043 247.665ZM288.729 256.865L296.541 255.137L288.729 256.865ZM290.764 266.065L282.953 267.793L290.764 266.065ZM291.897 275.265L283.899 275.464L291.897 275.265ZM292.126 284.465L300.123 284.266L292.126 284.465ZM293.047 292.299L300.809 290.364L293.047 292.299ZM293.853 295.533L286.09 297.468L293.853 295.533ZM294.659 298.766L302.421 296.831L294.659 298.766ZM295.233 302L292.072 309.349L293.586 310H295.233V302ZM295 301.9L298.16 294.551L287 289.752V301.9H295ZM287 302C287 306.418 290.582 310 295 310C299.418 310 303 306.418 303 302H295H287ZM8 15V23H8.1V15V7H8V15ZM8.1 15L11.2178 22.3675L20.3677 18.4954L17.25 11.1279L14.1322 3.76045L4.98225 7.63253L8.1 15ZM17.25 11.1279L20.3677 18.4954C22.9361 17.4085 24.7198 17.0014 25.8466 16.9189C26.9107 16.841 27.0243 17.0698 26.7702 16.9116L31 10.1212L35.2298 3.33086C28.6396 -0.774224 20.7153 0.974633 14.1322 3.76045L17.25 11.1279ZM31 10.1212L26.7702 16.9116L31.3702 19.777L35.6 12.9866L39.8298 6.19623L35.2298 3.33086L31 10.1212ZM35.6 12.9866L31.3702 19.777L35.9702 22.6423L40.2 15.852L44.4298 9.0616L39.8298 6.19623L35.6 12.9866ZM40.2 15.852L35.9702 22.6423C41.1164 25.8479 47.0091 26.502 52.7165 23.9019L49.4 16.6218L46.0835 9.34163C45.6753 9.52758 45.508 9.50839 45.4671 9.50497C45.401 9.49944 45.0732 9.46238 44.4298 9.0616L40.2 15.852ZM49.4 16.6218L52.7165 23.9019L57.3165 21.8064L54 14.5262L50.6835 7.24608L46.0835 9.34163L49.4 16.6218ZM54 14.5262L57.3165 21.8064L61.9165 19.7108L58.6 12.4307L55.2835 5.15052L50.6835 7.24608L54 14.5262ZM58.6 12.4307L61.9165 19.7108C62.3056 19.5336 62.4489 19.5591 62.4674 19.5608C62.5149 19.5652 62.8386 19.5999 63.4901 20.0165L67.8 13.2767L72.1099 6.53694C66.9758 3.25382 61.0466 2.5251 55.2835 5.15052L58.6 12.4307ZM67.8 13.2767L63.4901 20.0165L68.0901 22.9581L72.4 16.2183L76.7099 9.47853L72.1099 6.53694L67.8 13.2767ZM72.4 16.2183L68.0901 22.9581L72.6901 25.8997L77 19.1599L81.3099 12.4201L76.7099 9.47853L72.4 16.2183ZM77 19.1599L72.6901 25.8997C75.2994 27.5683 78.3602 28.6491 81.7457 28.5875C85.1203 28.526 88.1327 27.342 90.6799 25.6203L86.2 18.9923L81.7201 12.3643C81.4504 12.5466 81.3026 12.6021 81.277 12.611C81.2609 12.6165 81.329 12.5924 81.4543 12.5901C81.5114 12.5891 81.5638 12.593 81.6073 12.5994C81.6504 12.6056 81.6733 12.6127 81.6732 12.6126C81.6724 12.6124 81.6426 12.6031 81.5828 12.5747C81.5224 12.546 81.4314 12.4978 81.3099 12.4201L77 19.1599ZM86.2 18.9923L90.6799 25.6203L95.2799 22.511L90.8 15.8831L86.3201 9.2551L81.7201 12.3643L86.2 18.9923ZM90.8 15.8831L95.2799 22.511L99.88 19.4018L95.4 12.7739L90.9201 6.14589L86.3201 9.2551L90.8 15.8831ZM95.4 12.7739L99.88 19.4018C100.595 18.9185 100.988 18.8415 101.093 18.827C101.159 18.8179 101.295 18.7991 101.628 18.9326L104.6 11.505L107.572 4.07735C101.714 1.73382 95.8743 2.79727 90.9201 6.14589L95.4 12.7739ZM104.6 11.505L101.628 18.9326L106.228 20.7729L109.2 13.3453L112.172 5.91768L107.572 4.07735L104.6 11.505ZM109.2 13.3453L106.228 20.7729L110.828 22.6133L113.8 15.1856L116.772 7.758L112.172 5.91768L109.2 13.3453ZM113.8 15.1856L110.828 22.6133C115.721 24.5705 120.841 24.6536 125.789 22.8128L123 15.3148L120.211 7.81676C119.026 8.25752 118.013 8.25455 116.772 7.758L113.8 15.1856ZM123 15.3148L125.789 22.8128L130.389 21.1016L127.6 13.6036L124.811 6.10557L120.211 7.81676L123 15.3148ZM127.6 13.6036L130.389 21.1016L134.989 19.3904L132.2 11.8924L129.411 4.39438L124.811 6.10557L127.6 13.6036ZM132.2 11.8924L134.989 19.3904C135.632 19.1514 136.225 19.0743 137.419 19.7593L141.4 12.82L145.381 5.88068C140.441 3.04727 134.901 2.35184 129.411 4.39438L132.2 11.8924ZM141.4 12.82L137.419 19.7593L142.019 22.3981L146 15.4588L149.981 8.51945L145.381 5.88068L141.4 12.82ZM146 15.4588L142.019 22.3981L146.619 25.0368L150.6 18.0975L154.581 11.1582L149.981 8.51945L146 15.4588ZM150.6 18.0975L146.619 25.0368C152.116 28.1898 158.184 28.2365 163.722 25.1222L159.8 18.1493L155.878 11.1764C155.614 11.325 155.441 11.3852 155.354 11.4092C155.311 11.4214 155.283 11.4262 155.269 11.428C155.255 11.4299 155.248 11.43 155.245 11.43C155.242 11.43 155.234 11.4298 155.218 11.4275C155.203 11.4252 155.172 11.4197 155.126 11.4061C155.033 11.3793 154.853 11.3142 154.581 11.1582L150.6 18.0975ZM159.8 18.1493L163.722 25.1222L168.322 22.5351L164.4 15.5622L160.478 8.58933L155.878 11.1764L159.8 18.1493ZM164.4 15.5622L168.322 22.5351L172.922 19.9481L169 12.9752L165.078 6.0023L160.478 8.58933L164.4 15.5622ZM169 12.9752L172.922 19.9481C175.189 18.673 177.241 18.0232 179.111 17.8088L178.2 9.86083L177.289 1.91288C173.026 2.40158 168.945 3.82802 165.078 6.0023L169 12.9752ZM178.2 9.86083L179.111 17.8088L183.711 17.2814L182.8 9.33349L181.889 1.38554L177.289 1.91288L178.2 9.86083ZM182.8 9.33349L183.711 17.2814L188.311 16.7541L187.4 8.80615L186.489 0.858201L181.889 1.38554L182.8 9.33349ZM187.4 8.80615L188.311 16.7541C190.481 16.5054 192.655 16.6175 194.871 17.1081L196.6 9.29723L198.329 1.48637C194.412 0.619013 190.453 0.40378 186.489 0.858201L187.4 8.80615ZM196.6 9.29723L194.871 17.1081L199.471 18.1265L201.2 10.3157L202.929 2.5048L198.329 1.48637L196.6 9.29723ZM201.2 10.3157L199.471 18.1265L204.071 19.1449L205.8 11.3341L207.529 3.52323L202.929 2.5048L201.2 10.3157ZM205.8 11.3341L204.071 19.1449C208.001 20.015 211.972 20.2217 215.947 19.7476L215 11.8039L214.053 3.86018C211.895 4.11756 209.733 4.01106 207.529 3.52323L205.8 11.3341ZM215 11.8039L215.947 19.7476L220.547 19.199L219.6 11.2552L218.653 3.31155L214.053 3.86018L215 11.8039ZM219.6 11.2552L220.547 19.199L225.147 18.6503L224.2 10.7066L223.253 2.76292L218.653 3.31155L219.6 11.2552ZM224.2 10.7066L225.147 18.6503C227.438 18.3771 229.822 18.4273 232.323 18.8318L233.6 10.9344L234.878 3.03706C230.978 2.40635 227.095 2.3046 223.253 2.76292L224.2 10.7066ZM233.6 10.9344L232.323 18.8318L237.123 19.6082L238.401 11.7109L239.678 3.81349L234.878 3.03706L233.6 10.9344ZM238.401 11.7109L237.123 19.6082L241.924 20.3847L243.201 12.4873L244.478 4.58993L239.678 3.81349L238.401 11.7109ZM243.201 12.4873L241.924 20.3847C243.1 20.5749 244.074 21.0818 245.069 22.2906L251.246 17.2076L257.424 12.1246C254.092 8.0749 249.703 5.43498 244.478 4.58993L243.201 12.4873ZM251.246 17.2076L245.069 22.2906L248.314 26.2345L254.492 21.1515L260.669 16.0685L257.424 12.1246L251.246 17.2076ZM254.492 21.1515L248.314 26.2345L251.559 30.1784L257.737 25.0954L263.914 20.0124L260.669 16.0685L254.492 21.1515ZM257.737 25.0954L251.559 30.1784C255.169 34.5664 260.068 36.9874 265.63 37.5707L266.464 29.6143L267.299 21.658C265.55 21.4746 264.63 20.8829 263.914 20.0124L257.737 25.0954ZM266.464 29.6143L265.63 37.5707L271.113 38.1457L271.947 30.1893L272.781 22.233L267.299 21.658L266.464 29.6143ZM271.947 30.1893L271.113 38.1457L276.595 38.7207L277.43 30.7644L278.264 22.808L272.781 22.233L271.947 30.1893ZM277.43 30.7644L276.595 38.7207C277.192 38.7833 276.726 38.8674 276.09 38.2466C275.794 37.9586 275.616 37.6597 275.526 37.4501C275.444 37.2613 275.47 37.2286 275.492 37.4477L283.451 36.639L291.41 35.8303C291.093 32.7069 289.936 29.4019 287.263 26.7944C284.62 24.2154 281.323 23.1288 278.264 22.808L277.43 30.7644ZM283.451 36.639L275.492 37.4477L276.03 42.7473L283.989 41.9386L291.948 41.13L291.41 35.8303L283.451 36.639ZM283.989 41.9386L276.03 42.7473L276.569 48.0469L284.528 47.2383L292.487 46.4296L291.948 41.13L283.989 41.9386ZM284.528 47.2383L276.569 48.0469C277.142 53.6899 279.741 58.5086 283.999 62.2026L289.241 56.1592L294.483 50.1158C293.175 48.9814 292.631 47.8528 292.487 46.4296L284.528 47.2383ZM289.241 56.1592L283.999 62.2026L288.175 65.824L293.416 59.7806L298.658 53.7372L294.483 50.1158L289.241 56.1592ZM293.416 59.7806L288.175 65.824L292.35 69.4454L297.592 63.402L302.833 57.3586L298.658 53.7372L293.416 59.7806ZM297.592 63.402L292.35 69.4454C292.551 69.6203 292.54 69.6554 292.454 69.5164C292.356 69.3587 292.222 69.073 292.157 68.6901C292.092 68.309 292.125 68.0112 292.158 67.861C292.186 67.7314 292.195 67.7917 292.048 68.0568L299.046 71.9338L306.044 75.8107C307.567 73.0621 308.557 69.6865 307.929 66.0011C307.298 62.2975 305.229 59.4361 302.833 57.3586L297.592 63.402ZM299.046 71.9338L292.048 68.0568L289.328 72.9672L296.326 76.8442L303.323 80.7212L306.044 75.8107L299.046 71.9338ZM296.326 76.8442L289.328 72.9672L286.607 77.8776L293.605 81.7546L300.603 85.6316L303.323 80.7212L296.326 76.8442ZM293.605 81.7546L286.607 77.8776C284.419 81.8275 282.909 85.9183 282.302 90.1201L290.219 91.265L298.137 92.4099C298.416 90.4785 299.164 88.2289 300.603 85.6316L293.605 81.7546ZM290.219 91.265L282.302 90.1201L281.637 94.7201L289.554 95.865L297.472 97.0099L298.137 92.4099L290.219 91.265ZM289.554 95.865L281.637 94.7201L280.971 99.3201L288.889 100.465L296.807 101.61L297.472 97.0099L289.554 95.865ZM288.889 100.465L280.971 99.3201C280.486 102.674 280.186 106.032 280.072 109.394L288.068 109.665L296.063 109.936C296.157 107.165 296.405 104.39 296.807 101.61L288.889 100.465ZM288.068 109.665L280.072 109.394L279.916 113.994L287.912 114.265L295.907 114.536L296.063 109.936L288.068 109.665ZM287.912 114.265L279.916 113.994L279.76 118.594L287.756 118.865L295.751 119.136L295.907 114.536L287.912 114.265ZM287.756 118.865L279.76 118.594C279.586 123.738 281.339 128.473 284.245 132.641L290.807 128.065L297.369 123.489C295.999 121.524 295.717 120.125 295.751 119.136L287.756 118.865ZM290.807 128.065L284.245 132.641L287.452 137.241L294.014 132.665L300.577 128.089L297.369 123.489L290.807 128.065ZM294.014 132.665L287.452 137.241L290.66 141.841L297.222 137.265L303.784 132.689L300.577 128.089L294.014 132.665ZM297.222 137.265L290.66 141.841C291.663 143.279 291.48 143.841 291.384 144.159L299.045 146.465L306.705 148.771C308.456 142.956 307.058 137.385 303.784 132.689L297.222 137.265ZM299.045 146.465L291.384 144.159L290 148.759L297.66 151.065L305.321 153.371L306.705 148.771L299.045 146.465ZM297.66 151.065L290 148.759L288.615 153.359L296.276 155.665L303.936 157.971L305.321 153.371L297.66 151.065ZM296.276 155.665L288.615 153.359C287.595 156.749 286.803 160.155 286.245 163.576L294.14 164.865L302.036 166.154C302.479 163.442 303.111 160.714 303.936 157.971L296.276 155.665ZM294.14 164.865L286.245 163.576L285.494 168.176L293.389 169.465L301.284 170.754L302.036 166.154L294.14 164.865ZM293.389 169.465L285.494 168.176L284.742 172.776L292.638 174.065L300.533 175.354L301.284 170.754L293.389 169.465ZM292.638 174.065L284.742 172.776C284.021 177.195 284.431 181.588 285.88 185.844L293.453 183.265L301.026 180.686C300.387 178.808 300.253 177.069 300.533 175.354L292.638 174.065ZM293.453 183.265L285.88 185.844L287.446 190.444L295.019 187.865L302.592 185.286L301.026 180.686L293.453 183.265ZM295.019 187.865L287.446 190.444L289.012 195.044L296.586 192.465L304.159 189.886L302.592 185.286L295.019 187.865ZM296.586 192.465L289.012 195.044C289.925 197.725 290.602 200.38 291.051 203.011L298.937 201.665L306.823 200.319C306.225 196.817 305.334 193.339 304.159 189.886L296.586 192.465ZM298.937 201.665L291.051 203.011L291.836 207.611L299.722 206.265L307.608 204.919L306.823 200.319L298.937 201.665ZM299.722 206.265L291.836 207.611L292.621 212.211L300.507 210.865L308.393 209.519L307.608 204.919L299.722 206.265ZM300.507 210.865L292.621 212.211C292.739 212.901 292.703 213.929 291.57 215.63L298.228 220.065L304.886 224.5C307.838 220.068 309.322 214.962 308.393 209.519L300.507 210.865ZM298.228 220.065L291.57 215.63L288.506 220.23L295.164 224.665L301.822 229.1L304.886 224.5L298.228 220.065ZM295.164 224.665L288.506 220.23L285.442 224.83L292.1 229.265L298.758 233.7L301.822 229.1L295.164 224.665ZM292.1 229.265L285.442 224.83C282.784 228.82 281.063 233.195 280.726 237.891L288.705 238.465L296.684 239.039C296.788 237.602 297.33 235.844 298.758 233.7L292.1 229.265ZM288.705 238.465L280.726 237.891L280.395 242.491L288.374 243.065L296.353 243.639L296.684 239.039L288.705 238.465ZM288.374 243.065L280.395 242.491L280.064 247.091L288.043 247.665L296.022 248.239L296.353 243.639L288.374 243.065ZM288.043 247.665L280.064 247.091C279.786 250.946 280.077 254.787 280.918 258.593L288.729 256.865L296.541 255.137C296.026 252.809 295.858 250.518 296.022 248.239L288.043 247.665ZM288.729 256.865L280.918 258.593L281.936 263.193L289.747 261.465L297.558 259.737L296.541 255.137L288.729 256.865ZM289.747 261.465L281.936 263.193L282.953 267.793L290.764 266.065L298.576 264.337L297.558 259.737L289.747 261.465ZM290.764 266.065L282.953 267.793C283.523 270.369 283.836 272.924 283.899 275.464L291.897 275.265L299.894 275.066C299.804 271.473 299.362 267.894 298.576 264.337L290.764 266.065ZM291.897 275.265L283.899 275.464L284.014 280.064L292.011 279.865L300.009 279.666L299.894 275.066L291.897 275.265ZM292.011 279.865L284.014 280.064L284.128 284.664L292.126 284.465L300.123 284.266L300.009 279.666L292.011 279.865ZM292.126 284.465L284.128 284.664C284.214 288.113 284.563 291.341 285.284 294.234L293.047 292.299L300.809 290.364C300.455 288.945 300.19 286.951 300.123 284.266L292.126 284.465ZM293.047 292.299L285.284 294.234L286.09 297.468L293.853 295.533L301.615 293.597L300.809 290.364L293.047 292.299ZM293.853 295.533L286.09 297.468L286.897 300.701L294.659 298.766L302.421 296.831L301.615 293.597L293.853 295.533ZM294.659 298.766L286.897 300.701C287.161 301.76 287.325 302.461 287.411 302.861C287.46 303.092 287.45 303.071 287.428 302.918C287.427 302.907 287.362 302.492 287.364 301.93C287.364 301.752 287.359 300.855 287.677 299.758C287.832 299.223 288.243 297.99 289.306 296.762C290.572 295.299 292.67 294 295.349 294V302V310C298.033 310 300.135 308.699 301.404 307.232C302.471 306 302.885 304.76 303.043 304.216C303.366 303.103 303.363 302.18 303.363 301.969C303.365 301.339 303.291 300.824 303.271 300.678C303.211 300.255 303.124 299.83 303.059 299.523C302.914 298.845 302.695 297.928 302.421 296.831L294.659 298.766ZM295.349 302V294H295.233V302V310H295.349V302ZM295.233 302L298.393 294.651L298.16 294.551L295 301.9L291.84 309.249L292.072 309.349L295.233 302ZM295 301.9H287V302H295H303V301.9H295Z" fill="white"/>
</svg>
