<svg width="309" height="310" viewBox="0 0 309 310" fill="none" xmlns="http://www.w3.org/2000/svg">
<path d="M301 303C305.418 303 309 299.418 309 295C309 290.582 305.418 287 301 287V295V303ZM300.9 295V287H299.277L297.782 287.633L300.9 295ZM241.2 296.723L245.51 289.984L241.2 296.723ZM232 290.84L236.31 284.1L232 290.84ZM222.8 291.008L227.28 297.636L222.8 291.008ZM213.6 297.226L209.12 290.598L213.6 297.226ZM204.4 298.495L207.372 291.067L204.4 298.495ZM195.2 294.814L198.172 287.387L195.2 294.814ZM186 294.685L188.789 302.183L186 294.685ZM167.6 297.18L163.619 304.119L167.6 297.18ZM163 294.541L166.981 287.602L163 294.541ZM158.4 291.902L154.419 298.842L158.4 291.902ZM149.2 291.851L153.122 298.824L149.2 291.851ZM144.6 294.438L140.678 287.465L144.6 294.438ZM140 297.025L143.922 303.998L140 297.025ZM121.6 301.194L122.511 309.142L121.6 301.194ZM112.4 300.703L114.129 292.892L112.4 300.703ZM107.8 299.684L106.071 307.495L107.8 299.684ZM103.2 298.666L104.929 290.855L103.2 298.666ZM89.4 298.745L90.3474 306.688L89.4 298.745ZM75.3996 299.066L76.677 291.168L75.3996 299.066ZM57.7535 292.792L51.5759 297.875L57.7535 292.792ZM51.2635 284.905L57.4411 279.822L51.2635 284.905ZM42.5357 280.386L43.3701 272.429L42.5357 280.386ZM31.5703 279.236L32.4047 271.279L31.5703 279.236ZM25.5491 273.361L33.5081 272.552L25.5491 273.361ZM24.4722 262.762L16.5132 263.57L24.4722 262.762ZM19.7586 253.841L14.5168 259.884L19.7586 253.841ZM15.5835 250.219L10.3416 256.263L15.5835 250.219ZM11.4084 246.598L16.6503 240.555L11.4084 246.598ZM9.95386 238.066L2.95609 234.189L9.95386 238.066ZM15.3949 228.245L22.3927 232.122L15.3949 228.245ZM18.7806 218.735L26.6983 219.88L18.7806 218.735ZM19.4458 214.135L11.5282 212.99L19.4458 214.135ZM20.111 209.535L28.0287 210.68L20.111 209.535ZM20.9323 200.335L28.9276 200.606L20.9323 200.335ZM21.2444 191.135L13.249 190.864L21.2444 191.135ZM18.193 181.935L24.7552 177.359L18.193 181.935ZM11.778 172.735L5.21579 177.311L11.778 172.735ZM9.95508 163.535L2.29456 161.229L9.95508 163.535ZM11.3396 158.935L19.0002 161.241L11.3396 158.935ZM12.7242 154.335L20.3847 156.641L12.7242 154.335ZM14.8598 145.135L22.7553 146.424L14.8598 145.135ZM16.3621 135.935L8.46671 134.646L16.3621 135.935ZM15.547 126.735L23.1201 124.156L15.547 126.735ZM12.4145 117.535L19.9875 114.956L12.4145 117.535ZM10.0632 108.335L2.17725 109.681L10.0632 108.335ZM9.27823 103.735L17.1642 102.389L9.27823 103.735ZM8.49319 99.135L0.607208 100.481L8.49319 99.135ZM10.7722 89.935L17.4304 94.3699L10.7722 89.935ZM16.9001 80.735L10.2419 76.3001L16.9001 80.735ZM20.2951 71.535L28.2745 72.1091L20.2951 71.535ZM20.6261 66.935L12.6467 66.3609L20.6261 66.935ZM20.957 62.335L28.9364 62.9091L20.957 62.335ZM20.2705 53.135L12.4594 54.8627L20.2705 53.135ZM18.2356 43.935L26.0468 42.2072L18.2356 43.935ZM17.1035 34.735L25.101 34.5356L17.1035 34.735ZM16.8741 25.535L8.87656 25.7344L16.8741 25.535ZM15.9532 17.7012L8.1908 19.6363L15.9532 17.7012ZM15.1471 14.4675L22.9095 12.5324L15.1471 14.4675ZM14.341 11.2337L6.57855 13.1688L14.341 11.2337ZM13.7674 8L16.9275 0.650604L15.4145 0H13.7674V8ZM14 8.10001L10.8399 15.4494L22 20.248V8.10001H14ZM22 8C22 3.58173 18.4183 0 14 0C9.58173 0 6 3.58173 6 8H14H22ZM301 295V287H300.9V295V303H301V295ZM300.9 295L297.782 287.633L288.632 291.505L291.75 298.872L294.868 306.24L304.018 302.367L300.9 295ZM291.75 298.872L288.632 291.505C286.064 292.591 284.28 292.999 283.153 293.081C282.089 293.159 281.976 292.93 282.23 293.088L278 299.879L273.77 306.669C280.36 310.774 288.285 309.025 294.868 306.24L291.75 298.872ZM278 299.879L282.23 293.088L277.63 290.223L273.4 297.013L269.17 303.804L273.77 306.669L278 299.879ZM273.4 297.013L277.63 290.223L273.03 287.358L268.8 294.148L264.57 300.938L269.17 303.804L273.4 297.013ZM268.8 294.148L273.03 287.358C267.884 284.152 261.991 283.498 256.283 286.098L259.6 293.378L262.917 300.658C263.325 300.472 263.492 300.492 263.533 300.495C263.599 300.501 263.927 300.538 264.57 300.938L268.8 294.148ZM259.6 293.378L256.283 286.098L251.683 288.194L255 295.474L258.317 302.754L262.917 300.658L259.6 293.378ZM255 295.474L251.683 288.194L247.083 290.289L250.4 297.569L253.717 304.849L258.317 302.754L255 295.474ZM250.4 297.569L247.083 290.289C246.694 290.466 246.551 290.441 246.533 290.439C246.485 290.435 246.161 290.4 245.51 289.984L241.2 296.723L236.89 303.463C242.024 306.746 247.953 307.475 253.717 304.849L250.4 297.569ZM241.2 296.723L245.51 289.984L240.91 287.042L236.6 293.782L232.29 300.521L236.89 303.463L241.2 296.723ZM236.6 293.782L240.91 287.042L236.31 284.1L232 290.84L227.69 297.58L232.29 300.521L236.6 293.782ZM232 290.84L236.31 284.1C233.701 282.432 230.64 281.351 227.254 281.413C223.88 281.474 220.867 282.658 218.32 284.38L222.8 291.008L227.28 297.636C227.55 297.453 227.697 297.398 227.723 297.389C227.739 297.383 227.671 297.408 227.546 297.41C227.489 297.411 227.436 297.407 227.393 297.401C227.35 297.394 227.327 297.387 227.327 297.387C227.328 297.388 227.357 297.397 227.417 297.425C227.478 297.454 227.569 297.502 227.69 297.58L232 290.84ZM222.8 291.008L218.32 284.38L213.72 287.489L218.2 294.117L222.68 300.745L227.28 297.636L222.8 291.008ZM218.2 294.117L213.72 287.489L209.12 290.598L213.6 297.226L218.08 303.854L222.68 300.745L218.2 294.117ZM213.6 297.226L209.12 290.598C208.405 291.081 208.012 291.158 207.907 291.173C207.841 291.182 207.705 291.201 207.372 291.067L204.4 298.495L201.428 305.923C207.286 308.266 213.126 307.203 218.08 303.854L213.6 297.226ZM204.4 298.495L207.372 291.067L202.772 289.227L199.8 296.655L196.828 304.082L201.428 305.923L204.4 298.495ZM199.8 296.655L202.772 289.227L198.172 287.387L195.2 294.814L192.228 302.242L196.828 304.082L199.8 296.655ZM195.2 294.814L198.172 287.387C193.279 285.43 188.159 285.346 183.211 287.187L186 294.685L188.789 302.183C189.974 301.742 190.987 301.745 192.228 302.242L195.2 294.814ZM186 294.685L183.211 287.187L178.611 288.898L181.4 296.396L184.189 303.894L188.789 302.183L186 294.685ZM181.4 296.396L178.611 288.898L174.011 290.61L176.8 298.108L179.589 305.606L184.189 303.894L181.4 296.396ZM176.8 298.108L174.011 290.61C173.368 290.849 172.775 290.926 171.581 290.241L167.6 297.18L163.619 304.119C168.559 306.953 174.099 307.648 179.589 305.606L176.8 298.108ZM167.6 297.18L171.581 290.241L166.981 287.602L163 294.541L159.019 301.481L163.619 304.119L167.6 297.18ZM163 294.541L166.981 287.602L162.381 284.963L158.4 291.902L154.419 298.842L159.019 301.481L163 294.541ZM158.4 291.902L162.381 284.963C156.884 281.81 150.816 281.764 145.278 284.878L149.2 291.851L153.122 298.824C153.386 298.675 153.559 298.615 153.646 298.591C153.689 298.579 153.717 298.574 153.731 298.572C153.745 298.57 153.752 298.57 153.755 298.57C153.758 298.57 153.766 298.57 153.782 298.572C153.797 298.575 153.828 298.58 153.874 298.594C153.967 298.621 154.147 298.686 154.419 298.842L158.4 291.902ZM149.2 291.851L145.278 284.878L140.678 287.465L144.6 294.438L148.522 301.411L153.122 298.824L149.2 291.851ZM144.6 294.438L140.678 287.465L136.078 290.052L140 297.025L143.922 303.998L148.522 301.411L144.6 294.438ZM140 297.025L136.078 290.052C133.811 291.327 131.759 291.977 129.889 292.191L130.8 300.139L131.711 308.087C135.974 307.598 140.055 306.172 143.922 303.998L140 297.025ZM130.8 300.139L129.889 292.191L125.289 292.719L126.2 300.667L127.111 308.614L131.711 308.087L130.8 300.139ZM126.2 300.667L125.289 292.719L120.689 293.246L121.6 301.194L122.511 309.142L127.111 308.614L126.2 300.667ZM121.6 301.194L120.689 293.246C118.519 293.495 116.345 293.382 114.129 292.892L112.4 300.703L110.671 308.514C114.588 309.381 118.547 309.596 122.511 309.142L121.6 301.194ZM112.4 300.703L114.129 292.892L109.529 291.873L107.8 299.684L106.071 307.495L110.671 308.514L112.4 300.703ZM107.8 299.684L109.529 291.873L104.929 290.855L103.2 298.666L101.471 306.477L106.071 307.495L107.8 299.684ZM103.2 298.666L104.929 290.855C100.999 289.985 97.0279 289.778 93.0526 290.252L94 298.196L94.9474 306.14C97.1054 305.882 99.2673 305.989 101.471 306.477L103.2 298.666ZM94 298.196L93.0526 290.252L88.4526 290.801L89.4 298.745L90.3474 306.688L94.9474 306.14L94 298.196ZM89.4 298.745L88.4526 290.801L83.8526 291.35L84.8 299.293L85.7474 307.237L90.3474 306.688L89.4 298.745ZM84.8 299.293L83.8526 291.35C81.562 291.623 79.1781 291.573 76.677 291.168L75.3996 299.066L74.1223 306.963C78.0217 307.594 81.9047 307.695 85.7474 307.237L84.8 299.293ZM75.3996 299.066L76.677 291.168L71.8766 290.392L70.5993 298.289L69.3219 306.187L74.1223 306.963L75.3996 299.066ZM70.5993 298.289L71.8766 290.392L67.0763 289.615L65.7989 297.513L64.5216 305.41L69.3219 306.187L70.5993 298.289ZM65.7989 297.513L67.0763 289.615C65.9004 289.425 64.9258 288.918 63.9312 287.709L57.7535 292.792L51.5759 297.875C54.908 301.925 59.297 304.565 64.5216 305.41L65.7989 297.513ZM57.7535 292.792L63.9312 287.709L60.6861 283.766L54.5085 288.848L48.3308 293.931L51.5759 297.875L57.7535 292.792ZM54.5085 288.848L60.6861 283.766L57.4411 279.822L51.2635 284.905L45.0858 289.988L48.3308 293.931L54.5085 288.848ZM51.2635 284.905L57.4411 279.822C53.8306 275.434 48.9318 273.013 43.3701 272.429L42.5357 280.386L41.7013 288.342C43.4499 288.525 44.3696 289.117 45.0858 289.988L51.2635 284.905ZM42.5357 280.386L43.3701 272.429L37.8875 271.854L37.053 279.811L36.2185 287.767L41.7013 288.342L42.5357 280.386ZM37.053 279.811L37.8875 271.854L32.4047 271.279L31.5703 279.236L30.7358 287.192L36.2185 287.767L37.053 279.811ZM31.5703 279.236L32.4047 271.279C31.808 271.217 32.2741 271.133 32.9104 271.753C33.2056 272.041 33.3841 272.34 33.4744 272.55C33.5557 272.739 33.5304 272.771 33.5081 272.552L25.5491 273.361L17.5901 274.17C17.9074 277.293 19.0644 280.598 21.7369 283.206C24.3802 285.785 27.6774 286.871 30.7358 287.192L31.5703 279.236ZM25.5491 273.361L33.5081 272.552L32.9697 267.253L25.0107 268.061L17.0516 268.87L17.5901 274.17L25.5491 273.361ZM25.0107 268.061L32.9697 267.253L32.4312 261.953L24.4722 262.762L16.5132 263.57L17.0516 268.87L25.0107 268.061ZM24.4722 262.762L32.4312 261.953C31.8579 256.31 29.2594 251.491 25.0005 247.797L19.7586 253.841L14.5168 259.884C15.8247 261.019 16.3686 262.147 16.5132 263.57L24.4722 262.762ZM19.7586 253.841L25.0005 247.797L20.8254 244.176L15.5835 250.219L10.3416 256.263L14.5168 259.884L19.7586 253.841ZM15.5835 250.219L20.8254 244.176L16.6503 240.555L11.4084 246.598L6.16656 252.641L10.3416 256.263L15.5835 250.219ZM11.4084 246.598L16.6503 240.555C16.4486 240.38 16.46 240.345 16.5464 240.484C16.6443 240.641 16.7782 240.927 16.8434 241.31C16.9084 241.691 16.8749 241.989 16.8423 242.139C16.8141 242.269 16.8048 242.208 16.9517 241.943L9.95386 238.066L2.95609 234.189C1.43329 236.938 0.442719 240.313 1.07104 243.999C1.70245 247.702 3.77139 250.564 6.16656 252.641L11.4084 246.598ZM9.95386 238.066L16.9517 241.943L19.6722 237.033L12.6744 233.156L5.67664 229.279L2.95609 234.189L9.95386 238.066ZM12.6744 233.156L19.6722 237.033L22.3927 232.122L15.3949 228.245L8.39716 224.368L5.67664 229.279L12.6744 233.156ZM15.3949 228.245L22.3927 232.122C24.5811 228.173 26.0907 224.082 26.6983 219.88L18.7806 218.735L10.863 217.59C10.5837 219.522 9.83618 221.771 8.39716 224.368L15.3949 228.245ZM18.7806 218.735L26.6983 219.88L27.3635 215.28L19.4458 214.135L11.5282 212.99L10.863 217.59L18.7806 218.735ZM19.4458 214.135L27.3635 215.28L28.0287 210.68L20.111 209.535L12.1934 208.39L11.5282 212.99L19.4458 214.135ZM20.111 209.535L28.0287 210.68C28.5136 207.326 28.8136 203.968 28.9276 200.606L20.9323 200.335L12.9369 200.064C12.8428 202.835 12.5953 205.61 12.1934 208.39L20.111 209.535ZM20.9323 200.335L28.9276 200.606L29.0837 196.006L21.0883 195.735L13.0929 195.464L12.9369 200.064L20.9323 200.335ZM21.0883 195.735L29.0837 196.006L29.2398 191.406L21.2444 191.135L13.249 190.864L13.0929 195.464L21.0883 195.735ZM21.2444 191.135L29.2398 191.406C29.4143 186.262 27.6615 181.527 24.7552 177.359L18.193 181.935L11.6307 186.511C13.0011 188.476 13.2825 189.875 13.249 190.864L21.2444 191.135ZM18.193 181.935L24.7552 177.359L21.5477 172.759L14.9855 177.335L8.42325 181.911L11.6307 186.511L18.193 181.935ZM14.9855 177.335L21.5477 172.759L18.3402 168.159L11.778 172.735L5.21579 177.311L8.42325 181.911L14.9855 177.335ZM11.778 172.735L18.3402 168.159C17.3375 166.721 17.5198 166.159 17.6156 165.841L9.95508 163.535L2.29456 161.229C0.544281 167.044 1.94189 172.615 5.21579 177.311L11.778 172.735ZM9.95508 163.535L17.6156 165.841L19.0002 161.241L11.3396 158.935L3.67911 156.629L2.29456 161.229L9.95508 163.535ZM11.3396 158.935L19.0002 161.241L20.3847 156.641L12.7242 154.335L5.06363 152.029L3.67911 156.629L11.3396 158.935ZM12.7242 154.335L20.3847 156.641C21.405 153.251 22.1967 149.845 22.7553 146.424L14.8598 145.135L6.96442 143.846C6.52145 146.558 5.8894 149.286 5.06363 152.029L12.7242 154.335ZM14.8598 145.135L22.7553 146.424L23.5064 141.824L15.611 140.535L7.71555 139.246L6.96442 143.846L14.8598 145.135ZM15.611 140.535L23.5064 141.824L24.2576 137.224L16.3621 135.935L8.46671 134.646L7.71555 139.246L15.611 140.535ZM16.3621 135.935L24.2576 137.224C24.9791 132.805 24.5689 128.412 23.1201 124.156L15.547 126.735L7.97397 129.314C8.61346 131.192 8.74664 132.931 8.46671 134.646L16.3621 135.935ZM15.547 126.735L23.1201 124.156L21.5538 119.556L13.9807 122.135L6.40768 124.714L7.97397 129.314L15.547 126.735ZM13.9807 122.135L21.5538 119.556L19.9875 114.956L12.4145 117.535L4.84143 120.114L6.40768 124.714L13.9807 122.135ZM12.4145 117.535L19.9875 114.956C19.0746 112.275 18.3983 109.62 17.9492 106.989L10.0632 108.335L2.17725 109.681C2.77487 113.183 3.66602 116.661 4.84143 120.114L12.4145 117.535ZM10.0632 108.335L17.9492 106.989L17.1642 102.389L9.27823 103.735L1.39221 105.081L2.17725 109.681L10.0632 108.335ZM9.27823 103.735L17.1642 102.389L16.3792 97.7892L8.49319 99.135L0.607208 100.481L1.39221 105.081L9.27823 103.735ZM8.49319 99.135L16.3792 97.7892C16.2614 97.0989 16.2974 96.0709 17.4304 94.3699L10.7722 89.935L4.11398 85.5001C1.16165 89.9324 -0.321655 95.0377 0.607208 100.481L8.49319 99.135ZM10.7722 89.935L17.4304 94.3699L20.4944 89.7699L13.8362 85.335L7.17798 80.9001L4.11398 85.5001L10.7722 89.935ZM13.8362 85.335L20.4944 89.7699L23.5583 85.1699L16.9001 80.735L10.2419 76.3001L7.17798 80.9001L13.8362 85.335ZM16.9001 80.735L23.5583 85.1699C26.2156 81.1805 27.9366 76.8053 28.2745 72.1091L20.2951 71.535L12.3157 70.9609C12.2123 72.398 11.67 74.1561 10.2419 76.3001L16.9001 80.735ZM20.2951 71.535L28.2745 72.1091L28.6054 67.5091L20.6261 66.935L12.6467 66.3609L12.3157 70.9609L20.2951 71.535ZM20.6261 66.935L28.6054 67.5091L28.9364 62.9091L20.957 62.335L12.9777 61.7609L12.6467 66.3609L20.6261 66.935ZM20.957 62.335L28.9364 62.9091C29.2137 59.0544 28.9234 55.2126 28.0818 51.4072L20.2705 53.135L12.4594 54.8627C12.9742 57.1907 13.1416 59.4822 12.9777 61.7609L20.957 62.335ZM20.2705 53.135L28.0818 51.4072L27.0643 46.8073L19.2531 48.535L11.4419 50.2627L12.4594 54.8627L20.2705 53.135ZM19.2531 48.535L27.0643 46.8073L26.0468 42.2072L18.2356 43.935L10.4244 45.6627L11.4419 50.2627L19.2531 48.535ZM18.2356 43.935L26.0468 42.2072C25.477 39.6309 25.1643 37.0759 25.101 34.5356L17.1035 34.735L9.10593 34.9344C9.19553 38.5275 9.63766 42.1058 10.4244 45.6627L18.2356 43.935ZM17.1035 34.735L25.101 34.5356L24.9863 29.9356L16.9888 30.135L8.99124 30.3344L9.10593 34.9344L17.1035 34.735ZM16.9888 30.135L24.9863 29.9356L24.8716 25.3356L16.8741 25.535L8.87656 25.7344L8.99124 30.3344L16.9888 30.135ZM16.8741 25.535L24.8716 25.3356C24.7856 21.8875 24.4368 18.6589 23.7157 15.7662L15.9532 17.7012L8.1908 19.6363C8.54453 21.0552 8.8096 23.0491 8.87656 25.7344L16.8741 25.535ZM15.9532 17.7012L23.7157 15.7662L22.9095 12.5324L15.1471 14.4675L7.38467 16.4026L8.1908 19.6363L15.9532 17.7012ZM15.1471 14.4675L22.9095 12.5324L22.1034 9.29868L14.341 11.2337L6.57855 13.1688L7.38467 16.4026L15.1471 14.4675ZM14.341 11.2337L22.1034 9.29868C21.8394 8.23953 21.6748 7.53946 21.5894 7.13937C21.5399 6.90753 21.5502 6.92902 21.5718 7.082C21.5734 7.09305 21.6378 7.50763 21.6365 8.06998C21.636 8.24756 21.6415 9.14523 21.3234 10.2416C21.1682 10.7768 20.757 12.01 19.6939 13.2385C18.4281 14.701 16.33 16 13.6512 16V8V0C10.9674 0 8.86508 1.30115 7.59567 2.76785C6.52887 4.00049 6.11472 5.24008 5.957 5.78366C5.63406 6.89688 5.63702 7.81979 5.63651 8.03107C5.63498 8.6608 5.70883 9.17645 5.72946 9.32224C5.78918 9.74469 5.87601 10.1704 5.9415 10.4775C6.08612 11.1553 6.30515 12.0721 6.57855 13.1688L14.341 11.2337ZM13.6512 8V16H13.7674V8V0H13.6512V8ZM13.7674 8L10.6073 15.3494L10.8399 15.4494L14 8.10001L17.1601 0.75058L16.9275 0.650604L13.7674 8ZM14 8.10001H22V8H14H6V8.10001H14Z" fill="white"/>
</svg>
