<svg width="64" height="64" viewBox="0 0 64 64" fill="none" xmlns="http://www.w3.org/2000/svg">
<path fill-rule="evenodd" clip-rule="evenodd" d="M32.374 13.0927C30.4693 14.018 28.0557 15.6044 24.6163 17.8721L24.0324 18.2571C23.988 18.2864 23.9441 18.3153 23.9009 18.3439C22.887 19.0126 22.1848 19.4758 21.4154 19.8154C20.6571 20.1501 19.8602 20.3891 19.0429 20.5271C18.2136 20.6672 17.3724 20.667 16.1578 20.6668C16.106 20.6668 16.0534 20.6668 16.0002 20.6668C12.1504 20.6668 10.851 20.7102 9.74615 21.2213C8.67852 21.7153 7.54145 22.7852 6.98346 23.8207C6.40139 24.901 6.29454 26.0082 6.08907 29.3794C6.03267 30.3046 6 31.1915 6 32.0001C6 32.8087 6.03267 33.6956 6.08907 34.6208C6.29454 37.9919 6.40139 39.0991 6.98346 40.1794C7.54145 41.215 8.67852 42.2849 9.74615 42.7788C10.851 43.29 12.1504 43.3334 16.0002 43.3334C16.0534 43.3334 16.106 43.3334 16.1578 43.3334C17.3724 43.3332 18.2136 43.333 19.0429 43.473C19.8602 43.611 20.6571 43.8501 21.4154 44.1848C22.1848 44.5244 22.887 44.9875 23.9008 45.6563C23.9441 45.6849 23.988 45.7138 24.0324 45.7431L24.6163 46.128C28.0557 48.3958 30.4693 49.9822 32.374 50.9074C34.2734 51.8301 35.2231 51.8671 35.8876 51.6404C36.2539 51.5153 36.6125 51.3329 36.9292 51.1103C37.5069 50.7043 38.0337 49.9188 38.404 47.8618C38.776 45.7955 38.9131 42.937 39.1027 38.8549C39.2415 35.8694 39.3333 33.3648 39.3333 32.0001C39.3333 30.6354 39.2415 28.1307 39.1027 25.1452C38.9131 21.0632 38.776 18.2047 38.404 16.1384C38.0337 14.0814 37.5069 13.2959 36.9292 12.8899C36.6125 12.6673 36.2539 12.4848 35.8876 12.3598C35.2231 12.133 34.2734 12.17 32.374 13.0927ZM30.6261 9.4948C32.8289 8.42476 34.9976 7.8296 37.1794 8.57415C37.9044 8.82157 38.6024 9.17674 39.2292 9.61721C41.112 10.9404 41.909 13.0311 42.3407 15.4297C42.7653 17.7879 42.9105 20.9131 43.0913 24.8062L43.0984 24.9596C43.2366 27.9328 43.3333 30.5281 43.3333 32.0001C43.3333 33.4721 43.2366 36.0674 43.0984 39.0406L43.0913 39.194C42.9105 43.087 42.7653 46.2122 42.3407 48.5705C41.909 50.969 41.112 53.0597 39.2292 54.383C38.6024 54.8234 37.9044 55.1786 37.1794 55.426C34.9976 56.1706 32.8289 55.5754 30.6261 54.5054C28.4567 53.4515 25.8244 51.7158 22.542 49.5516L21.8306 49.0825C20.6362 48.295 20.2253 48.0318 19.8003 47.8442C19.3454 47.6434 18.8672 47.5 18.3768 47.4172C17.9188 47.3398 17.4309 47.3334 16.0002 47.3334C15.8552 47.3334 15.7121 47.3335 15.5708 47.3336C12.3257 47.3353 10.0709 47.3365 8.06655 46.4091C6.21375 45.5519 4.43044 43.874 3.46208 42.0768C2.4151 40.1336 2.29225 38.1015 2.11757 35.2121C2.11064 35.0975 2.10363 34.9815 2.09648 34.8642C2.03662 33.8821 2 32.911 2 32.0001C2 31.0892 2.03662 30.118 2.09648 29.136C2.10363 29.0187 2.11064 28.9027 2.11757 28.7881C2.29225 25.8987 2.4151 23.8666 3.46208 21.9234C4.43044 20.1262 6.21375 18.4483 8.06655 17.591C10.0709 16.6637 12.3257 16.6649 15.5708 16.6666C15.7121 16.6667 15.8552 16.6668 16.0002 16.6668C17.4309 16.6668 17.9188 16.6603 18.3768 16.583C18.8672 16.5002 19.3454 16.3567 19.8003 16.1559C20.2253 15.9684 20.6361 15.7052 21.8306 14.9176L22.5421 14.4485C25.8244 12.2843 28.4567 10.5487 30.6261 9.4948ZM52.053 14.4642C52.9015 13.7571 54.1626 13.8717 54.8698 14.7203L53.3333 16.0006C54.8698 14.7203 54.8698 14.7203 54.8698 14.7203L54.8728 14.724L54.8762 14.7281L54.8841 14.7377L54.9042 14.7624C54.9194 14.7813 54.9382 14.8052 54.9605 14.8339C55.005 14.8915 55.063 14.9688 55.1327 15.0663C55.272 15.2613 55.4576 15.5371 55.6733 15.8967C56.105 16.6162 56.6567 17.6699 57.2 19.0827C58.2886 21.913 59.3333 26.1565 59.3333 32.0007C59.3333 37.8448 58.2886 42.0883 57.2 44.9186C56.6567 46.3314 56.105 47.3851 55.6733 48.1046C55.4576 48.4642 55.272 48.74 55.1327 48.935C55.063 49.0325 55.005 49.1098 54.9605 49.1674C54.9472 49.1846 54.9351 49.2 54.9243 49.2137C54.917 49.2229 54.9103 49.2313 54.9042 49.2389L54.8841 49.2636L54.8762 49.2732L54.8728 49.2774C54.8728 49.2774 54.8698 49.281 53.3333 48.0007L54.8698 49.281C54.1626 50.1296 52.9015 50.2442 52.053 49.5371C51.2085 48.8334 51.0909 47.581 51.7867 46.7326M51.7867 46.7326C51.7867 46.7326 51.7915 46.7265 51.796 46.7206C51.8101 46.7024 51.838 46.6657 51.8777 46.6101C51.9572 46.4988 52.0841 46.3121 52.2433 46.0467C52.5616 45.5162 53.01 44.6699 53.4666 43.4827C54.3781 41.113 55.3333 37.3565 55.3333 32.0007C55.3333 26.6448 54.3781 22.8883 53.4666 20.5186C53.01 19.3314 52.5616 18.4851 52.2433 17.9546C52.0841 17.6892 51.9572 17.5025 51.8777 17.3913C51.838 17.3356 51.8101 17.2989 51.796 17.2807C51.7915 17.2748 51.7867 17.2687 51.7867 17.2687L51.796 17.2807L51.7919 17.275L51.7867 17.2687C51.0909 16.4203 51.2085 15.1679 52.053 14.4642M47.0287 22.2523C47.9943 21.7159 49.2119 22.0638 49.7483 23.0294L48.0736 23.9597C49.7483 23.0294 49.7483 23.0294 49.7483 23.0294L49.7503 23.0329L49.7523 23.0366L49.7568 23.0447L49.767 23.0637L49.7927 23.1126C49.812 23.1501 49.8357 23.1975 49.863 23.2548C49.9176 23.3696 49.9868 23.5242 50.0653 23.7204C50.2223 24.1128 50.4158 24.67 50.604 25.4039C50.9807 26.8731 51.3333 29.0403 51.3333 32.0007C51.3333 34.961 50.9807 37.1282 50.604 38.5974C50.4158 39.3313 50.2223 39.8885 50.0653 40.2809C49.9868 40.4771 49.9176 40.6317 49.863 40.7465C49.8357 40.8038 49.812 40.8512 49.7927 40.8887L49.767 40.9376L49.7568 40.9566L49.7523 40.9647L49.7503 40.9684C49.7503 40.9684 49.7483 40.9719 48.0736 40.0416L49.7483 40.9719C49.2119 41.9375 47.9943 42.2854 47.0287 41.749C46.0713 41.2171 45.7212 40.0156 46.2382 39.054L46.2516 39.0267C46.2698 38.9883 46.3048 38.9117 46.3514 38.7954C46.4444 38.5628 46.5842 38.17 46.7293 37.6039C47.0193 36.4731 47.3333 34.6403 47.3333 32.0007C47.3333 29.361 47.0193 27.5282 46.7293 26.3974C46.5842 25.8313 46.4444 25.4385 46.3514 25.2059C46.3048 25.0896 46.2698 25.013 46.2516 24.9746L46.2382 24.9473C45.7212 23.9857 46.0713 22.7842 47.0287 22.2523Z" fill="white"/>
</svg>
