<svg width="3840" height="2160" viewBox="0 0 3840 2160" fill="none" xmlns="http://www.w3.org/2000/svg" xmlns:xlink="http://www.w3.org/1999/xlink">
<path d="M3703 1953.31L2760.37 2567L1547 2052.69L2489.63 1439L3703 1953.31ZM-3707 2088L-4086.5 2335L-4575 2128L-4195.5 1881L-3707 2088ZM-1360 1434L-1739.5 1681L-1739.52 1680.99L-2117.5 1927L-2606 1720L-2226.5 1473L-2226.48 1473.01L-1848.5 1227L-1360 1434ZM-2902 1608L-3281.5 1855L-3770 1648L-3390.5 1401L-2902 1608ZM1563 1010L1183.5 1257L842.291 1112.41L466.5 1357L-22 1150L357.5 903L698.708 1047.59L1074.5 803L1563 1010ZM-2094 -127.646L-2767.54 310.918L-2411 462L-2785.54 705.771L-2785 706L-3143.84 939.556L-3001 1000.1L-3492.43 1320L-4125 1051.9L-3955.64 941.656L-6048 54.6455L-4319.26 -1071L-2094 -127.646ZM4183 882L3803.5 1129L3315 922L3694.5 675L4183 882ZM-1025 703L-1404.5 950L-1893 743L-1890.77 741.549L-2094 655.37L-1935.29 552L-1732 638.208L-1513.5 496L-1025 703ZM-157 663L-536.5 910L-1025 703L-645.5 456L-157 663ZM4580 -104.22L3626.88 516L2400 -3.7793L3353.12 -624L4580 -104.22ZM355 -75.793L-418.865 428L-1415 5.79297L-641.135 -498L355 -75.793ZM-1197 204.821L-1361.39 312L-1573 222.179L-1408.61 115L-1197 204.821Z" fill="url(#pattern0_2007_291)" fill-opacity="0.5"/>
<path opacity="0.05" d="M-1204 2023.43L-1840.58 2438L-2660 2090.57L-2023.42 1676L-1204 2023.43ZM1854 2020.88L1652.45 2152L1393 2042.12L1594.55 1911L1854 2020.88ZM-3837 1700L-4216.5 1947L-4705 1740L-4325.5 1493L-3837 1700ZM956 1259L576.5 1506L88 1299L467.5 1052L956 1259ZM-3764 1076.77L-4005.78 1234L-4317 1102.23L-4075.22 945L-3764 1076.77ZM3644 933L3264.5 1180L2776 973L3155.5 726L3644 933ZM-1103 898.8L-1362.7 1068L-1697 926.2L-1437.3 757L-1103 898.8ZM-286 879.769L-527.778 1037L-839 905.231L-597.222 748L-286 879.769ZM-2547 684.769L-2788.78 842L-3100 710.231L-2858.22 553L-2547 684.769ZM1959 595.883L1757.45 727L1498 617.117L1699.55 486L1959 595.883ZM-1274 205.769L-1515.78 363L-1515.85 362.97L-1755.78 519L-2067 387.231L-1825.22 230L-1825.15 230.029L-1585.22 74L-1274 205.769Z" fill="#3D4734"/>
<defs>
<pattern id="pattern0_2007_291" patternUnits="userSpaceOnUse" viewBox="9583.18 11075 103.18 206.36" width="0.21358298780709942%" height="1.2479164345320795%" patternContentUnits="objectBoundingBox">
<g id="pattern0_2007_291_inner">
<path d="M9513.5 11075V11142M9480 11108.5H9513.5H9547" stroke="#3D4734" stroke-width="8"/>
</g>
<use xlink:href="#pattern0_2007_291_inner" transform="translate(103.18 0)"/>
<use xlink:href="#pattern0_2007_291_inner" transform="translate(51.59 103.18)"/>
<use xlink:href="#pattern0_2007_291_inner" transform="translate(154.77 103.18)"/>
</pattern></defs>
</svg>
