<svg width="3840" height="2160" viewBox="0 0 3840 2160" fill="none" xmlns="http://www.w3.org/2000/svg" xmlns:xlink="http://www.w3.org/1999/xlink">
<path d="M8054 1953.31L7111.37 2567L5898 2052.69L6840.63 1439L8054 1953.31ZM644 2088L264.5 2335L-224 2128L155.5 1881L644 2088ZM2991 1434L2611.5 1681L2611.48 1680.99L2233.5 1927L1745 1720L2124.5 1473L2124.52 1473.01L2502.5 1227L2991 1434ZM1449 1608L1069.5 1855L581 1648L960.5 1401L1449 1608ZM5914 1010L5534.5 1257L5193.29 1112.41L4817.5 1357L4329 1150L4708.5 903L5049.71 1047.59L5425.5 803L5914 1010ZM2257 -127.646L1583.46 310.918L1940 462L1565.46 705.771L1566 706L1207.16 939.556L1350 1000.1L858.574 1320L226 1051.9L395.356 941.656L-1697 54.6455L31.7363 -1071L2257 -127.646ZM8534 882L8154.5 1129L7666 922L8045.5 675L8534 882ZM3326 703L2946.5 950L2458 743L2460.23 741.549L2257 655.37L2415.71 552L2619 638.208L2837.5 496L3326 703ZM4194 663L3814.5 910L3326 703L3705.5 456L4194 663ZM8931 -104.22L7977.88 516L6751 -3.7793L7704.12 -624L8931 -104.22ZM4706 -75.793L3932.13 428L2936 5.79297L3709.87 -498L4706 -75.793ZM3154 204.821L2989.61 312L2778 222.179L2942.39 115L3154 204.821Z" fill="url(#pattern0_173_7622)" fill-opacity="0.5"/>
<defs>
<pattern id="pattern0_173_7622" patternUnits="userSpaceOnUse" viewBox="13934.2 11075 103.18 206.36" width="0.21358298780709942%" height="1.2479164345320795%" patternContentUnits="objectBoundingBox">
<g id="pattern0_173_7622_inner">
<path d="M13864.5 11075V11142M13831 11108.5H13864.5H13898" stroke="#3D4734" stroke-width="8"/>
</g>
<use xlink:href="#pattern0_173_7622_inner" transform="translate(103.18 0)"/>
<use xlink:href="#pattern0_173_7622_inner" transform="translate(51.59 103.18)"/>
<use xlink:href="#pattern0_173_7622_inner" transform="translate(154.77 103.18)"/>
</pattern></defs>
</svg>
