<svg width="3622" height="1156" viewBox="0 0 3622 1156" fill="none" xmlns="http://www.w3.org/2000/svg">
<g opacity="0.3" filter="url(#filter0_f_173_7654)">
<path d="M1331.22 522.249C1344.04 513.9 1360.18 512.474 1374.27 518.446L1912.61 746.635C1946.53 761.012 1950.6 807.457 1919.73 827.556L1558.9 1062.48C1518.75 1088.61 1468.2 1093.1 1424.09 1074.41L933.758 866.568C899.84 852.191 895.739 805.766 926.612 785.666L1331.22 522.249ZM2955.74 426.466C2968.55 418.132 2984.67 416.709 2998.75 422.669L3523.2 644.715C3557.14 659.085 3561.2 705.568 3530.3 725.662L3180.26 953.299C3140.14 979.388 3089.65 983.863 3045.58 965.205L2569.1 763.469C2535.16 749.098 2531.06 702.64 2561.96 682.546L2955.74 426.466ZM464.74 183.408C477.562 175.063 493.694 173.638 507.78 179.607L1005.34 390.447C1039.27 404.822 1043.33 451.284 1012.45 471.383L683.272 685.627C643.134 711.751 592.628 716.214 548.532 697.529L98.9707 507.03C65.0464 492.655 60.9454 446.22 91.8252 426.122L464.74 183.408ZM2060.7 77.8289C2073.52 69.4837 2089.65 68.0592 2103.74 74.0281L2601.3 284.868C2635.23 299.243 2639.28 345.705 2608.4 365.803L2279.23 580.048C2239.09 606.172 2188.59 610.636 2144.49 591.951L1694.93 401.451C1661 387.076 1656.9 340.641 1687.78 320.543L2060.7 77.8289Z" fill="#505B48"/>
</g>
<defs>
<filter id="filter0_f_173_7654" x="0.914062" y="0.382202" width="3620.33" height="1155.43" filterUnits="userSpaceOnUse" color-interpolation-filters="sRGB">
<feFlood flood-opacity="0" result="BackgroundImageFix"/>
<feBlend mode="normal" in="SourceGraphic" in2="BackgroundImageFix" result="shape"/>
<feGaussianBlur stdDeviation="35" result="effect1_foregroundBlur_173_7654"/>
</filter>
</defs>
</svg>
