<svg width="3840" height="2086" viewBox="0 0 3840 2086" fill="none" xmlns="http://www.w3.org/2000/svg">
<path opacity="0.05" d="M3147 1949.43L2510.42 2364L1691 2016.57L2327.58 1602L3147 1949.43ZM6205 1946.88L6003.45 2078L5744 1968.12L5945.55 1837L6205 1946.88ZM514 1626L134.5 1873L-354 1666L25.5 1419L514 1626ZM5307 1185L4927.5 1432L4439 1225L4818.5 978L5307 1185ZM587 1002.77L345.222 1160L34 1028.23L275.778 871L587 1002.77ZM7995 859L7615.5 1106L7127 899L7506.5 652L7995 859ZM3248 824.8L2988.3 994L2654 852.2L2913.7 683L3248 824.8ZM4065 805.769L3823.22 963L3512 831.231L3753.78 674L4065 805.769ZM1804 610.769L1562.22 768L1251 636.231L1492.78 479L1804 610.769ZM6310 521.883L6108.45 653L5849 543.117L6050.55 412L6310 521.883ZM3077 131.769L2835.22 289L2835.15 288.97L2595.22 445L2284 313.231L2525.78 156L2525.85 156.029L2765.78 0L3077 131.769Z" fill="#3D4734"/>
</svg>
