<svg width="1664" height="728" viewBox="0 0 1664 728" fill="none" xmlns="http://www.w3.org/2000/svg">
<g filter="url(#filter0_f_2001_38)">
<path d="M497.474 660.452C354.807 694.334 203.51 747.734 51 813L1618.65 813L2226.27 813H3757C3456.97 706.582 3110.35 573.967 2971.23 539.177C2664.25 462.41 2436.74 373 1882.03 373C1327.33 373 1006.93 539.462 497.474 660.452Z" fill="#535C47"/>
</g>
<g filter="url(#filter1_f_2001_38)">
<path d="M915.375 775.984C1039.65 718.866 1154.61 640.541 1307.71 553.439C1497.61 445.406 1882.05 350.984 2179.55 454.484C2477.05 557.984 3160.05 775.984 3160.05 775.984L915.375 775.984Z" fill="#737D65"/>
</g>
<defs>
<filter id="filter0_f_2001_38" x="0" y="322" width="3808" height="542" filterUnits="userSpaceOnUse" color-interpolation-filters="sRGB">
<feFlood flood-opacity="0" result="BackgroundImageFix"/>
<feBlend mode="normal" in="SourceGraphic" in2="BackgroundImageFix" result="shape"/>
<feGaussianBlur stdDeviation="25.5" result="effect1_foregroundBlur_2001_38"/>
</filter>
<filter id="filter1_f_2001_38" x="864.375" y="358.787" width="2346.67" height="468.197" filterUnits="userSpaceOnUse" color-interpolation-filters="sRGB">
<feFlood flood-opacity="0" result="BackgroundImageFix"/>
<feBlend mode="normal" in="SourceGraphic" in2="BackgroundImageFix" result="shape"/>
<feGaussianBlur stdDeviation="25.5" result="effect1_foregroundBlur_2001_38"/>
</filter>
</defs>
</svg>
